/* XPM */
static char *result[] = {
/* columns rows colors chars-per-pixel */
"64 64 222 2 ",
"   c #1A1816",
".  c #201A16",
"X  c #3C2617",
"o  c #3C2719",
"O  c #372919",
"+  c #3A341D",
"@  c #2E3029",
"#  c #442B1A",
"$  c #4B2C1B",
"%  c #452917",
"&  c #46351E",
"*  c #56351D",
"=  c #502F1C",
"-  c #62371F",
";  c #76391E",
":  c #463922",
">  c #5A3823",
",  c #663B22",
"<  c #713E22",
"1  c #314324",
"2  c #4A4627",
"3  c #584627",
"4  c #594937",
"5  c #4F5430",
"6  c #694929",
"7  c #7C4325",
"8  c #754B29",
"9  c #7C5A2F",
"0  c #634D39",
"q  c #625439",
"w  c #785836",
"e  c #6F4E30",
"r  c #675548",
"t  c #7B5C4B",
"y  c #446E44",
"u  c #786453",
"i  c #6F705D",
"p  c #776C6B",
"a  c #626A6A",
"s  c #514D4A",
"d  c #844725",
"f  c #844B2A",
"g  c #8D4C2A",
"h  c #8E4C26",
"j  c #944D29",
"k  c #954D27",
"l  c #94512D",
"z  c #9B532D",
"x  c #895836",
"c  c #985936",
"v  c #A4552D",
"b  c #A9582B",
"n  c #B65C2E",
"m  c #AB5A32",
"M  c #A65935",
"N  c #B35D33",
"B  c #B85E35",
"V  c #A86635",
"C  c #B56134",
"Z  c #BB6133",
"A  c #B7663D",
"S  c #C36435",
"D  c #CB6A36",
"F  c #CD6A38",
"G  c #C76738",
"H  c #D46D3A",
"J  c #D86C3B",
"K  c #DC7136",
"L  c #D5723B",
"P  c #DB733C",
"I  c #DB652F",
"U  c #E56F37",
"Y  c #E4753C",
"T  c #ED7B3D",
"R  c #E6763C",
"E  c #F37E3E",
"W  c #FC7C3A",
"Q  c #8F5D43",
"!  c #886344",
"~  c #9A6446",
"^  c #986E55",
"/  c #8C715B",
"(  c #A86642",
")  c #B87756",
"_  c #B26E4B",
"`  c #847568",
"'  c #867975",
"]  c #9E7768",
"[  c #A87967",
"{  c #C87548",
"}  c #D87646",
"|  c #C97551",
" . c #CC6F4A",
".. c #EC7641",
"X. c #E87943",
"o. c #F27D40",
"O. c #FC7C43",
"+. c #F57C49",
"@. c #E77E52",
"#. c #5A8171",
"$. c #729375",
"%. c #FD823D",
"&. c #998976",
"*. c #948775",
"=. c #A6826F",
"-. c #B88D76",
";. c #AF8676",
":. c #9EA67F",
">. c #C9845F",
",. c #E7834C",
"<. c #F68241",
"1. c #FE8542",
"2. c #FC8947",
"3. c #E8865A",
"4. c #F78A56",
"5. c #FF9559",
"6. c #D78B67",
"7. c #C89279",
"8. c #DA9E76",
"9. c #C7886B",
"0. c #F89767",
"q. c #F69B72",
"w. c #ED926D",
"e. c #FAA57B",
"r. c #FEA371",
"t. c #FFAC73",
"y. c #7A8D96",
"u. c #6E8488",
"i. c #7F93A0",
"p. c #879797",
"a. c #949596",
"s. c #A89488",
"d. c #B59889",
"f. c #A59A99",
"g. c #AC8A80",
"h. c #97AC9D",
"j. c #91AB94",
"k. c #AFA293",
"l. c #B3A698",
"z. c #ACB89A",
"x. c #899BA7",
"c. c #949FA6",
"v. c #8D9FB0",
"b. c #8EA2A7",
"n. c #93A3AB",
"m. c #9AA7AA",
"M. c #9CADB9",
"N. c #99A9B4",
"B. c #9FB1BA",
"V. c #AAAAAB",
"C. c #AAA7A5",
"Z. c #BCACA8",
"A. c #BCB3AE",
"S. c #A5B4BE",
"D. c #ADB4BC",
"F. c #A9B2B8",
"G. c #B6B7B9",
"H. c #A9AEB7",
"J. c #C8A28D",
"K. c #D6A48A",
"L. c #D6AB96",
"P. c #CCAF90",
"I. c #FBA983",
"U. c #FFB287",
"Y. c #FCB595",
"T. c #F9BC99",
"R. c #EAA990",
"E. c #CBB7AE",
"W. c #FCBEA4",
"Q. c #F4BEA9",
"!. c #BAC6BA",
"~. c #C7C8BA",
"^. c #D8C4B8",
"/. c #DCD2BF",
"(. c #F9C4A8",
"). c #FBCBB4",
"_. c #F6CDB9",
"`. c #A9B5C0",
"'. c #ACBBC3",
"]. c #ABB9C5",
"[. c #B3BBC3",
"{. c #BBBDC4",
"}. c #B2BEC8",
"|. c #C2BCC0",
" X c #BAC4CC",
".X c #B9C3C8",
"XX c #BDCBD4",
"oX c #C4C4C4",
"OX c #C9C8C9",
"+X c #D7D0CC",
"@X c #C3CCD4",
"#X c #CAD2D9",
"$X c #D9DADA",
"%X c #D5D6D8",
"&X c #D3CEC9",
"*X c #FBDBCA",
"=X c #F9D7C9",
"-X c #E6DEDC",
";X c #F6DCD2",
":X c #E6CFC5",
">X c #E9E3DF",
",X c #FDE3D5",
"<X c #F6E7DD",
"1X c #CED8E0",
"2X c #DADEE3",
"3X c #D3DBE3",
"4X c #E0DFE1",
"5X c #DBE1E5",
"6X c #ECE6E4",
"7X c #E2E6E9",
"8X c #E6EAED",
"9X c #EAEBED",
"0X c #E3E3E3",
"qX c #F7EBE5",
"wX c #FDF2EB",
"eX c #ECEEF1",
"rX c #EFF1F3",
"tX c #F3F4F5",
"yX c #F6FBFC",
"uX c #FDFDFD",
"iX c #F7F7F7",
"pX c None",
/* pixels */
"pXpXpXpXpXpXpXpXpXpXpXpXpXpXpXpXpXpXpXpXpXpXpXpXpXpXpXpXpXpXpXpXpXpXpXpXpXpXpXpXpXpXpXpXpXpXpXpXpXpXpXpXpXpXpXpXpXpXpXpXpXpXpXpX",
"pXpXpXpXpXpXpXpXpXpXpXpXpXpXpXpXpXpXpXpXpXpXpXpXpXpXpXpXpXpXpXpXpX$.j.pXpXpXpXpXpXpXpXpXpXpXpXpXpXpXpXpXpXpXpXpXpXpXpXpXpXpXpXpX",
"pXpXpXpXpXpXpXpXpXpXpXpXpXpXpXpXpXpXpXpXpXpXpXpXpXpXpXpXpXpXpXpXpXh.&XpXpXpXpXpXpXpXpXpXpXpXpXpXpXpXpXpXpXpXpXpXpXpXpXpXpXpXpXpX",
"pXpXpXpXpXpXpXpXpXpXpXpXpXpXpXpXpXpXpXpXpXpXpXpXpXpXpXpXpXpXpXpX$.OXrX~.pXpXpXpXpXpXpXpXpXpXpXpXpXpXpXpXpXpXpXpXpXpXpXpXpXpXpXpX",
"pXpXpXpXpXpXpXpXpXpXpXpXpXpXpXpXpXpXpXpXpXpXpXpXpXpXpXpXpXpXpXpXj.-XwX<XpXpXpXpXpXpXpXpXpXpXpXpXpXpXpXpXpXpXpXpXpXpXpXpXpXpXpXpX",
"pXpXpXpXpXpXpXpXpXpXpXpXpXpXpXpXpXpXpXpXpXpXpXpXpXpXpXpXpXpXpXpX.X6XwX<Xz.pXpXpXpXpXpXpXpXpXpXpXpXpXpXpXpXpXpXpXpXpXpXpXpXpXpXpX",
"pXpXpXpXpXpXpXpXpXpXpXpXpXpXpXpXpXpXpXpXpXpXpXpXpXpXpXpXpXpXpXm.%X6XwX,X/.pXpXpXpXpXpXpXpXpXpXpXpXpXpXpXpXpXpXpXpXpXpXpXpXpXpXpX",
"pXpXpXpXpXpXpXpXpXpXpXpXpXpXpXpXpXpXpXpXpXpXpXpXpXpXpXpXpXpXpXG.>X6XqX,X*X:.pXpXpXpXpXpXpXpXpXpXpXpXpXpXpXpXpXpXpXpXpXpXpXpXpXpX",
"pXpXpXpXpXpXpXpXpXpXpXpXpXpXpXpXpXpXpXpXpXpXpXpXpXpXpXpXpXpXp.OX>X>X,X_.).P.pXpXpXpXpXpXpXpXpXpXpXpXpXpXpXpXpXpXpXpXpXpXpXpXpXpX",
"pXpXpXpXpXpXpXpXpXpXpXpXpXpXpXpXpXpXpXpXpXpXpXpXpXpXpXpXpXpXc.+X=X<X*X_.(.T.pXpXpXpXpXpXpXpXpXpXpXpXpXpXpXpXpXpXpXpXpXpXpXpXpXpX",
"pXpXpXpXpXpXpXpXpXpXpXpXpXpXpXpXpXpXpXpXpXpXpXpXpXpXpXpXpXpXm.:X_.*X).(.Y.Y.P.pXpX+ pXpXpXpXpXpXpXpXpXpXpXpXpXpXpXpXpXpXpXpXpXpX",
"pXpXpXpXpXpXpXpXpXpXpXpXpXpXpXpXpXpXpXpXpXpXpXpXpXpXpXpXpXi Z.Q.Y.(.Y.Y.I.U.8.! 0 w 5 pXpXpXpXpXpXpXpXpXpXpXpXpXpXpXpXpXpXpXpXpX",
"pXpXpXpXpXpXpXpXpXpXpXpXpXpXpXpXpXpXpXpXpXpXpXpXpXpXpXpXpXu L.e.e.I.I.I.I.q.( u E.s.3 pXpXpXpXpXpXpXpXpXpXpXpXpXpXpXpXpXpXpXpXpX",
"pXpXpXpXpXpXpXpXpXpXpXpXpXpXpXpXpXpXpXpXpXpXpXpXpXpXpXpXpX! w.w.0.0.w.0.q.( t C.4XE.q pXpXpXpXpXpXpXpXpXpXpXpXpXpXpXpXpXpXpXpXpX",
"pXpXpXpXpXpXpXpXpXpXpXpXpXpXpXpXpXpXpXpXpXpXpXpXpXpXpXpXpXQ | @.4.4.@.0. .f s.OX$X&Xu pXpXpXpXpXpXpXpXpXpXpXpXpXpXpXpXpXpXpXpXpX",
"pXpXpXpXpXpXpXpXpXpXpXpXpXpXpX4 pXpXpXpXpXpXpXpXpXpXpXpXpXx A } +.X.} A < ] E.@X$X%X` pXpXpXpXpXpXpXpXpXpXpXpXpXpXpXpXpXpXpXpXpX",
"pXpXpXpXpXpXpXpXpXpXpXpXpXpXpX` a.` 0 pXpXpXpXpXpXpXpXpXpX9 N G Y G N ; x J.oXOX%X6X&.pXpXpXpXpXpXpXpXpXpXpXpXpXpXpXpXpXpXpXpXpX",
"pXpXpXpXpXpXpXpXpXpXpXpXpXpXpX' H.`.V.' 0 pXpXpXpXpXpXpXpXw N C S S g 7 | L.~.oX%X9Xs.pXpXpXpXpXpXpXpXpXpXpXpXpXpXpXpXpXpXpXpXpX",
"pXpXpXpXpXpXpXpXpXpXpXpXpXpXpXu D.}.].{.C./ 3 pXpXpXpXpXpXV S V S S l m { 6.L.OX#X>Xl.pXpXpXpXpXpXpXpXpXpXpXpXpXpXpXpXpXpXpXpXpX",
"pXpXpXpXpXpXpXpXpXpXpXpXpXpXpX4 V.{.`.{. XG.g.Q 9 pXpXpXV P D F X.F Z K L { 8.E.+X9XC.pXpXpXpXpXpXpXpXpXpXpXpXpXpXpXpXpXpXpXpXpX",
"pXpXpXpXpXpXpXpXpXpXpXpXpXpXpX: f.{.G.V.A.~.^.J.) V V D T 1.R %.1.R T <.T o.4.q.(.<Xl.pXpXpXpXpXpXpXpXpXpXpXpXpXpXpXpXpXpXpXpXpX",
"pXpXpXpXpXpXpXpXpXpXpXpXpXpXpXpX' {. XE.7.-.8.q.4.%.%.<.1.<.1.2.1.1.1.1.1.1.%.<.r.).k.pXpXpXpXpXpXpXpXpXpXpXpXpXpXpXpXpXpXpXpXpX",
"pXpXpXpXpXpXpXpXpXpXpXpXpXpXpXpXr H.XXE.9.A L <.2.1.%.1.1.2.1.1.1.2.1.1.1.1.%.E 4.W.s.pXpXpXpXpXpXpXpXpXpXpXpXpXpXpXpXpXpXpXpXpX",
"pXpXpXpXpXpXpXpXpXpXpXpXpXpXpXpX> f.E.J.>.{ R %.1.1.1.1.1.1.1.1.1.1.1.1.1.1.1.O.<.R.=.pXpXpXpXpXpXpXpXpXpXpXpXpXpXpXpXpXpXpXpXpX",
"pXpXpXpXpXpXpXpXpXpXpXpXpXpXpXpXpX' A.9.H } T 1.1.1.1.1.1.1.1.1.1.1.1.1.1.1.1.1.+.3.^ pXpXpXpXpXpXpXpXpXpXpXpXpXpXpXpXpXpXpXpXpX",
"pXpXpXpXpXpXpXpXpXpXpXpXpXpXpXpXpXr f.-.D Y <.1.1.1.1.1.1.1.1.1.1.1.1.1.1.1.1.O.W @.~ pXpXpXpXpXpXpXpXpXpXpXpXpXpXpXpXpXpXpXpXpX",
"pXpXpXpXpXpXpXpXpXpXpXpXpXpXpXpXpXpX[ [ A K E O.1.1.1.1.1.1.1.1.1.1.1.1.1.1.1.O.O.@.~ 5 pXpXpXpXpXpXpXpXpXpXpXpXpXpXpXpXpXpXpXpX",
"pXpXpXpXpXpXpXpXpXpXpXpXpXpXpXpXpXpXQ _ A H E 1.%.1.1.1.1.1.1.1.1.1.1.1.2.1.1.1.+...m 7 pXpXpXpXpXpXpXpXpXpXpXpXpXpXpXpXpXpXpXpX",
"pXpXpXpXpXpXpXpXpXpXpXpXpXpXpXpXpXpX0 c A H E 1.1.1.1.1.1.1.1.1.1.1.%.2.E D L <.O...S z pXpXpXpXpXpXpXpXpXpXpXpXpXpXpXpXpXpXpXpX",
"pXpXpXpXpXpXpXpXpXpXpXpXpXpXpXpXpXpXpXg N H o.O.1.1.1.1.1.1.1.1.1.%.2.%.l o , P 2.O.} v z pXpXpXpXpXpXpXpXpXpXpXpXpXpXpXpXpXpXpX",
"pXpXpXpXpXpXpXpXpXpXpXpXpXpXpXpXpXpXpXf N G Y o.<.<.1.%.1.1.1.1.1.1.2.P * . > L 2.O...Z M x pXpXpXpXpXpXpXpXpXpXpXpXpXpXpXpXpXpX",
"pXpXpXpXpXpXpXpXpXpXpXpXpXpXpXpXpXpXpX8 m F J z , l R 2.%.1.%.1.1.%.%.%.k # l <.2.O.O...S z pXpXpXpXpXpXpXpXpXpXpXpXpXpXpXpXpXpX",
"pXpXpXpXpXpXpXpXpXpXpXpXpXpXpXpXpXpXpXe v F G ,   X k T W 1.5.r.t.t.0.5.2.%.%.%.%.W 1.5.w._ pXpXpXpXpXpXpXpXpXpXpXpXpXpXpXpXpXpX",
"pXpXpXpXpXpXpXpXpXpXpXpXpXpXpXpXpXpXpX6 v S F j O % b K @.U.(.J.d.^.*X*X).T.t.q.5.0.q.U.W.R.&.pXpXpXpXpXpXpXpXpXpXpXpXpXpXpXpXpX",
"pXpXpXpXpXpXpXpXpXpXpXpXpXpXpXpXpXpXpX6 m B G F n b D 6.P.l.s   @ C.iXuXwX<X<X,X,X,X;X=X*X;X-X!.pXpXpXpXpXpXpXpXpXpXpXpXpXpXpXpX",
"pXpXpXpXpXpXpXpXpXpXpXpXpXpXpXpXpXpXpX8 m S F U U } 7.E.+Xc.@   a %XuXuXuXuXuXuXuXuXiX6X6X2XE.pXpXpXpXpXpXpXpXpXpXpXpXpXpXpXpXpX",
"pXpXpXpXpXpXpXpXpXpXpXpXpXpXpXpXpXpXpXf B S I U ,.K.OX%X0X$XH.C.$XuXuXuXuXuXuXuXuXuX9X-X$XoX/ pXpXpXpXpXpXpXpXpXpXpXpXpXpXpXpXpX",
"pXpXpXpXpXpXpXpXpXpXpXpXpXpXpXpXpXpXpX( | @.4.I._.>X8X9XtXuXuXuXuXuXuXyXuXuXuXuXuXrX2X#X.X-.9 pXpXpXpXpXpXpXpXpXpXpXpXpXpXpXpXpX",
"pXpXpXpXpXpXpXpXpXpXpXpXpXpXpXpXpXpX/ 7.R.Q.=XwXiXuXtXtXiXuXuXuXyXiXtXiXiXtXiXiXtX8X1X`.g.M x pXpXpXpXpXpXpXpXpXpXpXpXpXpXpXpXpX",
"pXpXpXpXpXpXpXpXpXpXpXpXpXpXpXpXpXa.A.E.+X6XyXyXyXtXtXtXtXiXiXtXtXtXrXtXtXtXtXrXeX1XD.;.M z w pXpXpXpXpXpXpXpXpXpXpXpXpXpXpXpXpX",
"pXpXpXpXpXpXpXpXpXpXpXpXpXpXpXpXpXp.N.S. X#X5X5X7X9XeXeXrXrXrXtX9XtXeXtXrXrXrX8X3XD.[ N v g pXpXpXpXpXpXpXpXpXpXpXpXpXpXpXpXpXpX",
"pXpXpXpXpXpXpXpXpXpXpXpXpXpXpXpXpXpX#.y.N.[. X X@X3X7X8X9X8X8X8X8X8X7X7X7X5X5X#X'.[ n N z d pXpXpXpXpXpXpXpXpXpXpXpXpXpXpXpXpXpX",
"pXpXpXpXpXpXpXpXpXpXpXpXpXpXpXpXpXpXpXpXu.x.M.S.].}.@X1X2X2X2X3X3X1X#X#X#XXXXXG.=.m Z C g 6 pXpXpXpXpXpXpXpXpXpXpXpXpXpXpXpXpXpX",
"pXpXpXpXpXpXpXpXpXpXpXpXpXpXpXpXpXpXpXpXpXpXy.v.v.M.`.].}.@X#X#X@XXXXX X.XD.D.f._ N G C d > pXpXpXpXpXpXpXpXpXpXpXpXpXpXpXpXpXpX",
"pXpXpXpXpXpXpXpXpXpXpXpXpXpXpXpXpXpXpXpXpXpXpXa u.x.v.v.N.M.S.D.`.`.D.F.N.m.F.d.{ H L b - & pXpXpXpXpXpXpXpXpXpXpXpXpXpXpXpXpXpX",
"pXpXpXpXpXpXpXpXpXpXpXpXpXpXpXpXpXpXpXpXpXpXpXpX> r p p.x.c.n.b.n.m.n.b.b.D..XK.} T K k = # pXpXpXpXpXpXpXpXpXpXpXpXpXpXpXpXpXpX",
"pXpXpXpXpXpXpXpXpXpXpXpXpXpXpXpXpXpXpXpXpXpXpXpX3 < d p x.p.b.x.x.n.m.B.S..X.XK.,.T D 8 o + pXpXpXpXpXpXpXpXpXpXpXpXpXpXpXpXpXpX",
"pXpXpXpXpXpXpXpXpXpXpXpXpXpXpXpXpXpXpXpXpXpXpXpXpXd z Q ' a.m.N.N.N.M.'.!.'.d.| <.R V 6 & pXpXpXpXpXpXpXpXpXpXpXpXpXpXpXpXpXpXpX",
"pXpXpXpXpXpXpXpXpXpXpXpXpXpXpXpXpXpXpXpXpXpXpXpXpX8 m C c ^ [ V.S.M.N.XXG.g.) F R C pXpXpXpXpXpXpXpXpXpXpXpXpXpXpXpXpXpXpXpXpXpX",
"pXpXpXpXpXpXpXpXpXpXpXpXpXpXpXpXpXpXpXpXpXpXpXpXpXpXC H N N C ;.V.M.!.j.p ~ V D Z 8 pXpXpXpXpXpXpXpXpXpXpXpXpXpXpXpXpXpXpXpXpXpX",
"pXpXpXpXpXpXpXpXpXpXpXpXpXpXpXpXpXpXpXpXpXpXpXpXpXpXc R J D D A ) ` $.y q k b Z h pXpXpXpXpXpXpXpXpXpXpXpXpXpXpXpXpXpXpXpXpXpXpX",
"pXpXpXpXpXpXpXpXpXpXpXpXpXpXpXpXpXpXpXpXpXpXpXpXpXpXpXY T R R K D 3 pXpX* h z z 8 pXpXpXpXpXpXpXpXpXpXpXpXpXpXpXpXpXpXpXpXpXpXpX",
"pXpXpXpXpXpXpXpXpXpXpXpXpXpXpXpXpXpXpXpXpXpXpXpXpXpXpXS O.X.R K n 3 pXpX* 7 d d 6 pXpXpXpXpXpXpXpXpXpXpXpXpXpXpXpXpXpXpXpXpXpXpX",
"pXpXpXpXpXpXpXpXpXpXpXpXpXpXpXpXpXpXpXpXpXpXpXpXpXpXpXl Y H J D b & pX1 & ; < ; 3 pXpXpXpXpXpXpXpXpXpXpXpXpXpXpXpXpXpXpXpXpXpXpX",
"pXpXpXpXpXpXpXpXpXpXpXpXpXpXpXpXpXpXpXpXpXpXpXpXpXpXpX8 S S S n l & pX+ $ * - - 2 pXpXpXpXpXpXpXpXpXpXpXpXpXpXpXpXpXpXpXpXpXpXpX",
"pXpXpXpXpXpXpXpXpXpXpXpXpXpXpXpXpXpXpXpXpXpXpXpXpXpXpX3 v m m v h : pX+ X $ = * 2 pXpXpXpXpXpXpXpXpXpXpXpXpXpXpXpXpXpXpXpXpXpXpX",
"pXpXpXpXpXpXpXpXpXpXpXpXpXpXpXpXpXpXpXpXpXpXpXpXpXpXpX3 d j z d 7 : pXpXX X $ % pXpXpXpXpXpXpXpXpXpXpXpXpXpXpXpXpXpXpXpXpXpXpXpX",
"pXpXpXpXpXpXpXpXpXpXpXpXpXpXpXpXpXpXpXpXpXpXpXpXpXpXpX2 , 7 < - * + pXpXO o X # pXpXpXpXpXpXpXpXpXpXpXpXpXpXpXpXpXpXpXpXpXpXpXpX",
"pXpXpXpXpXpXpXpXpXpXpXpXpXpXpXpXpXpXpXpXpXpXpXpXpXpXpX+ $ - * = $ X pXpXpX+ + pXpXpXpXpXpXpXpXpXpXpXpXpXpXpXpXpXpXpXpXpXpXpXpXpX",
"pXpXpXpXpXpXpXpXpXpXpXpXpXpXpXpXpXpXpXpXpXpXpXpXpXpXpX# $ $ $ % % X pXpXpXpXpXpXpXpXpXpXpXpXpXpXpXpXpXpXpXpXpXpXpXpXpXpXpXpXpXpX",
"pXpXpXpXpXpXpXpXpXpXpXpXpXpXpXpXpXpXpXpXpXpXpXpXpXpXpX$ # $ # % % O pXpXpXpXpXpXpXpXpXpXpXpXpXpXpXpXpXpXpXpXpXpXpXpXpXpXpXpXpXpX",
"pXpXpXpXpXpXpXpXpXpXpXpXpXpXpXpXpXpXpXpXpXpXpXpXpXpXpX& o & # O O pXpXpXpXpXpXpXpXpXpXpXpXpXpXpXpXpXpXpXpXpXpXpXpXpXpXpXpXpXpXpX",
"pXpXpXpXpXpXpXpXpXpXpXpXpXpXpXpXpXpXpXpXpXpXpXpXpXpXpXpXpXpXpXpXpXpXpXpXpXpXpXpXpXpXpXpXpXpXpXpXpXpXpXpXpXpXpXpXpXpXpXpXpXpXpXpX",
"pXpXpXpXpXpXpXpXpXpXpXpXpXpXpXpXpXpXpXpXpXpXpXpXpXpXpXpXpXpXpXpXpXpXpXpXpXpXpXpXpXpXpXpXpXpXpXpXpXpXpXpXpXpXpXpXpXpXpXpXpXpXpXpX"
};
