/* XPM */
static char *result[] = {
/* columns rows colors chars-per-pixel */
"64 64 222 2 ",
"   c #06090B",
".  c #3A2C1A",
"X  c #3B2718",
"o  c #3A351E",
"O  c #2C371A",
"+  c #3A3C2A",
"@  c #442B1A",
"#  c #4B2D1B",
"$  c #432817",
"%  c #54321C",
"&  c #5D361E",
"*  c #47301C",
"=  c #67391C",
"-  c #583721",
";  c #4B3B26",
":  c #6C3D22",
">  c #633920",
",  c #743E22",
"<  c #374526",
"1  c #4C4829",
"2  c #565E36",
"3  c #584B2F",
"4  c #6B4628",
"5  c #744224",
"6  c #7B4425",
"7  c #7A492C",
"8  c #72542E",
"9  c #685535",
"0  c #715032",
"q  c #7E6C38",
"w  c #695744",
"e  c #795A49",
"r  c #685A54",
"t  c #6B6653",
"y  c #776B69",
"u  c #6F7474",
"i  c #4F6756",
"p  c #813C1E",
"a  c #834524",
"s  c #874A29",
"d  c #974D28",
"f  c #89532E",
"g  c #9C532C",
"h  c #95522F",
"j  c #804F35",
"k  c #8C5332",
"l  c #9D5832",
"z  c #A9572C",
"x  c #B35B2D",
"c  c #B5562A",
"v  c #A65C33",
"b  c #AD5A32",
"n  c #A45934",
"m  c #B35C33",
"M  c #B85E36",
"N  c #936838",
"B  c #AC6237",
"V  c #B56134",
"C  c #BC6233",
"Z  c #BD663B",
"A  c #BA6C36",
"S  c #C25F32",
"D  c #C55F2E",
"F  c #D1642C",
"G  c #C46535",
"H  c #CE6B34",
"J  c #CD6B39",
"K  c #C76637",
"L  c #D36C35",
"P  c #D46C3A",
"I  c #D96D39",
"U  c #CE713D",
"Y  c #DD733B",
"T  c #D97239",
"R  c #CD662F",
"E  c #E26D37",
"W  c #E3743C",
"Q  c #EC7B3D",
"!  c #E6773D",
"~  c #F47B3A",
"^  c #FE7D39",
"/  c #855D47",
"(  c #995D41",
")  c #926853",
"_  c #AD6343",
"`  c #A66C4A",
"'  c #B76944",
"]  c #B47554",
"[  c #866E62",
"{  c #897769",
"}  c #987A69",
"|  c #977B72",
" . c #A67C6A",
".. c #B07D6B",
"X. c #C96C43",
"o. c #D66F41",
"O. c #C97849",
"+. c #DB7648",
"@. c #D97E55",
"#. c #E67944",
"$. c #F57D41",
"%. c #FC7D43",
"&. c #F17741",
"*. c #76997B",
"=. c #FF823C",
"-. c #94867B",
";. c #8F9173",
":. c #BC8267",
">. c #A8867A",
",. c #B28977",
"<. c #BE9778",
"1. c #A8806F",
"2. c #D48357",
"3. c #DB894F",
"4. c #F48141",
"5. c #FE8542",
"6. c #FF8944",
"7. c #FF8C4C",
"8. c #FB844B",
"9. c #E98852",
"0. c #F88A56",
"q. c #FF9356",
"w. c #FC955E",
"e. c #E29057",
"r. c #D68862",
"t. c #C99479",
"y. c #DA9778",
"u. c #D0916E",
"i. c #E9996D",
"p. c #FC9A68",
"a. c #E59372",
"s. c #F28E61",
"d. c #FFA267",
"f. c #FCA779",
"g. c #7B9396",
"h. c #74888C",
"j. c #879C8A",
"k. c #9A989B",
"l. c #908D8A",
"z. c #B7988B",
"x. c #A6938C",
"c. c #94AC98",
"v. c #BAA294",
"b. c #AAAD95",
"n. c #899AA6",
"m. c #929DA4",
"M. c #94A4AC",
"N. c #99A7AC",
"B. c #99ABB6",
"V. c #9FB1BD",
"C. c #8DA2B0",
"Z. c #A7A6AA",
"A. c #B6ACA8",
"S. c #A6ADB2",
"D. c #A9B5BA",
"F. c #B3B6BC",
"G. c #B7B9B8",
"H. c #AFB2AE",
"J. c #C49A88",
"K. c #C6A18F",
"L. c #D6AD93",
"P. c #D0AA90",
"I. c #F4AB88",
"U. c #FBB588",
"Y. c #E8B198",
"T. c #FFBE9C",
"R. c #FCB695",
"E. c #E7AC8D",
"W. c #C6BDB8",
"Q. c #D4BDB6",
"!. c #CDB4AB",
"~. c #F7BDA3",
"^. c #AAC2A3",
"/. c #FFC099",
"(. c #C8C7BF",
"). c #D3C8B4",
"_. c #F9C5A9",
"`. c #FECCB2",
"'. c #FBCDB9",
"]. c #EFCBB6",
"[. c #ADBAC5",
"{. c #A9B7C2",
"}. c #B2BCC5",
"|. c #B6BDC5",
" X c #BCC4CC",
".X c #B7C2C9",
"XX c #BBC8D1",
"oX c #C4C4C5",
"OX c #CBCBCA",
"+X c #C4C8CB",
"@X c #D4CBC5",
"#X c #C3CBD4",
"$X c #C8CFD5",
"%X c #CBD4DC",
"&X c #C6D0D9",
"*X c #DDDCDC",
"=X c #D4D7D9",
"-X c #D2D9C8",
";X c #E9D7CB",
":X c #FDD3C2",
">X c #F7D8C8",
",X c #E8DBD6",
"<X c #F9DED3",
"1X c #E9E4DD",
"2X c #FAE5DA",
"3X c #D3DBE2",
"4X c #DBDFE3",
"5X c #D2DFE9",
"6X c #E1DEE0",
"7X c #DDE3E7",
"8X c #E3E3E4",
"9X c #E9ECEE",
"0X c #E7E7E9",
"qX c #F6EAE5",
"wX c #EBEDF0",
"eX c #E5EBF0",
"rX c #EFF1F2",
"tX c #F3F4F5",
"yX c #F7F9FA",
"uX c #FDFDFD",
"iX c #F9F7F6",
"pX c None",
/* pixels */
"pXpXpXpXpXpXpXpXpXpXpXpXpXpXpXpXpXpXpXpXpXpXpXpXpXpXpXpXpXpXpXpXpXpXpXpXpXpXpXpXpXpXpXpXpXpXpXpXpXpXpXpXpXpXpXpXpXpXpXpXpXpXpXpX",
"pXpXpXpXpXpXpXpXpXpXpXpXpXpXpXpXpXpXpXpXpXpXpXpXpXpXpXpXpXpXpXpXpXpXpXpXpXpXpXpXpXpXpXpXpXpXpXpXpXpXpXpXpXpXpXpXpXpXpXpXpXpXpXpX",
"pXpXpXpXpXpXpXpXpXpXpXpXpXpXpXpXpXpXpXpXpXpXpXpXpXpXpXpXpXpXpXpXpXpXpXpXpXpXpXpXj.^.^.pXpXpXpXpXpXpXpXpXpXpXpXpXpXpXpXpXpXpXpXpX",
"pXpXpXpXpXpXpXpXpXpXpXpXpXpXpXpXpXpXpXpXpXpXpXpXpXpXpXpXpXpXpXpXpXpXpXpXpXpXpXj.^.^.(.^.pXpXpXpXpXpXpXpXpXpXpXpXpXpXpXpXpXpXpXpX",
"pXpXpXpXpXpXpXpXpXpXpXpXpXpXpXpXpXpXpXpXpXpXpXpXpXpXpXpXpXpXpXpXpXpXpXpXpXpXj.G.1X1X1X-XpXpXpXpXpXpXpXpXpXpXpXpXpXpXpXpXpXpXpXpX",
"pXpXpXpXpXpXpXpXpXpXpXpXpXpXpXpXpXpXpXpXpXpXpXpXpXpXpXpXpXpXpXpXpXpXpXpX*.M..X*XqXqX1X-XpXpXpXpXpXpXpXpXpXpXpXpXpXpXpXpXpXpXpXpX",
"pXpXpXpXpXpXpXpXpXpXpXpXpXpXpXpXpXpXpXpXpXpXpXpXpXpXpXpXpXpXpXpXpXpXpXg.S.oX*XqXiXqX2X;X^.pXpXpXpXpXpXpXpXpXpXpXpXpXpXpXpXpXpXpX",
"pXpXpXpXpXpXpXpXpXpXpXpXpXpXpXpXpXpXpXpXpXpXpXpXpXpXpXpXpXpXpXpXpXpXg.D.+X1X1X0XqXqX2X;X).pXpXpXpXpXpXpXpXpXpXpXpXpXpXpXpXpXpXpX",
"pXpXpXpXpXpXpXpXpXpXpXpXpXpXpXpXpXpXpXpXpXpXpXpXpXpXpXpXpXpXpXpX*.g.D.OX,X1XqXqX2X2X<X:X-XpXpXpXpXpXpXpXpXpXpXpXpXpXpXpXpXpXpXpX",
"pXpXpXpXpXpXpXpXpXpXpXpXpXpXpXpXpXpXpXpXpXpXpXpXpXpXpXpXpXpXpXpXu M.OX-X,X<X1XqXqX<X:X`.].;.pXpXpXpXpXpXpXpXpXpXpXpXpXpXpXpXpXpX",
"pXpXpXpXpXpXpXpXpXpXpXpXpXpXpXpXpXpXpXpXpXpXpXpXpXpXpXpXpXpXpXu k.oX;X>X>X,XqX>XK.z.Y.~._.P.pXpXpXpXpXpXpXpXpXpXpXpXpXpXpXpXpXpX",
"pXpXpXpXpXpXpXpXpXpXpXpXpXpXpXpXpXpXpXpXpXpXpXpXpXpXpXpXpXpXt | A.).~.R._.:X:Xt., : ..T././.;.pXpXpXpXpXpXpXpXpXpXpXpXpXpXpXpXpX",
"pXpXpXpXpXpXpXpXpXpXpXpXpXpXpXpXpXpXpXpXpXpXpXpXpXpXpXpXpXpX) t.Y.E.I.f.R.R.../ [ / ( I.U.U.<.pXpXpXpXpXpXpXpXpXpXpXpXpXpXpXpXpX",
"pXpXpXpXpXpXpXpXpXpXpXpXpXpXpXpXpXpXpXpXpXpXpXpXpXpXpXpXpXpX_ r.a.s.s.p.f.O.e x.@Xx.j a.U.f.u.pXpXpXpXpXpXpXpXpXpXpXpXpXpXpXpXpX",
"pXpXpXpXpXpXpXpXpXpXpXpXpXpXpXpXpXpXpXpXpXpXpXpXpXpXpXpXpXj ' X.+.&.s.p.X.s -.OX8XA./ 2.f.p.e.pXpXpXpXpXpXpXpXpXpXpXpXpXpXpXpXpX",
"pXpXpXpXpXpXpXpXpXpXpXpXpXpXpXpXpXpXpXpXpXpXpXpXpXpXpXpXpXj M ' X.#.%.+.p [ W.#X4XW.) O.d.p.e.pXpXpXpXpXpXpXpXpXpXpXpXpXpXpXpXpX",
"pXpXpXpXpXpXpXpXpXpXpXpXpXpXw r pXpXpXpXpXpXpXpXpXpXpXpXpXk m m S P K p 7 K.OXOX8XOX} X.d.w.e.pXpXpXpXpXpXpXpXpXpXpXpXpXpXpXpXpX",
"pXpXpXpXpXpXpXpXpXpXpXpXpXpX[ Z.Z.l.e 1 pXpXpXpXpXpXpXpX9 h V b K M s , :.Q.oXoX*X,X>.C w.q.9.pXpXpXpXpXpXpXpXpXpXpXpXpXpXpXpXpX",
"pXpXpXpXpXpXpXpXpXpXpXpXpXpXr {.|.|.F.-.w 1 pXpXpXpXpXpX8 v C v K b 6 v r.L.W.+X=X4Xz.G 7.7.3.pXpXpXpXpXpXpXpXpXpXpXpXpXpXpXpXpX",
"pXpXpXpXpXpXpXpXpXpXpXpXpXpX3 Z.|.[..X XA.{ 9 pXpXpXpXpXB L C G I m b U T 2.L.oX=X8XK.G 6.8.3.pXpXpXpXpXpXpXpXpXpXpXpXpXpXpXpXpX",
"pXpXpXpXpXpXpXpXpXpXpXpXpXpX; k..XF.G..X+X(.J.` N q pXA Q #.T =.#.T #.#.T #.i.Y.;X1XK.D 5.$.O.pXpXpXpXpXpXpXpXpXpXpXpXpXpXpXpXpX",
"pXpXpXpXpXpXpXpXpXpXpXpXpXpXo { |. XA.v.v.!.E.s.#.P Y 4.6.4.4.5.4.5.5.5.4.5.4.w.T.>Xz.c ~ ! A pXpXpXpXpXpXpXpXpXpXpXpXpXpXpXpXpX",
"pXpXpXpXpXpXpXpXpXpXpXpXpXpXpXw A.|.W.t.] O.9.7.6.4.5.5.5.5.6.5.5.5.6.5.5.5.=.~ p.].z.d L T ` pXpXpXpXpXpXpXpXpXpXpXpXpXpXpXpXpX",
"pXpXpXpXpXpXpXpXpXpXpXpXpXpXpX; k.oX!.t.X.L ~ 6.5.5.5.5.5.5.5.5.6.5.5.5.5.5.5.~ s.Y.>.p b B pXpXpXpXpXpXpXpXpXpXpXpXpXpXpXpXpXpX",
"pXpXpXpXpXpXpXpXpXpXpXpXpXpXpXpX{ G.J.@.O.W =.6.5.5.5.5.5.6.5.5.5.5.=.5.5.5.5.$.%.E.) , h k pXpXpXpXpXpXpXpXpXpXpXpXpXpXpXpXpXpX",
"pXpXpXpXpXpXpXpXpXpXpXpXpXpXpXpXw Z.J.K W #.=.6.5.5.5.6.5.5.5.5.5.5.6.5.5.6.5.%.%.@.( , j pXpXpXpXpXpXpXpXpXpXpXpXpXpXpXpXpXpXpX",
"pXpXpXpXpXpXpXpXpXpXpXpXpXpXpXpX1 | ..' L ~ 5.$.=.5.5.5.5.5.5.5.5.5.5.5.5.5.5.%.&.@.( : pXpXpXpXpXpXpXpXpXpXpXpXpXpXpXpXpXpXpXpX",
"pXpXpXpXpXpXpXpXpXpXpXpXpXpXpXpXpX/ ] ' J ~ 4.5.6.5.5.5.5.5.5.5.5.5.5.5.=.5.5.%.%.+.l : pXpXpXpXpXpXpXpXpXpXpXpXpXpXpXpXpXpXpXpX",
"pXpXpXpXpXpXpXpXpXpXpXpXpXpXpXpXpX9 ( _ K &.5.5.5.5.5.5.5.5.5.5.5.5.=.6.6.6.6.5.%.#.b k pXpXpXpXpXpXpXpXpXpXpXpXpXpXpXpXpXpXpXpX",
"pXpXpXpXpXpXpXpXpXpXpXpXpXpXpXpXpXpXs b K ! 4.5.5.5.5.5.5.5.5.5.5.6.6.6.5.Y Y 4.%.&.S g pXpXpXpXpXpXpXpXpXpXpXpXpXpXpXpXpXpXpXpX",
"pXpXpXpXpXpXpXpXpXpXpXpXpXpXpXpXpXpX7 b K #.%.6.6.4.6.5.5.5.5.5.=.6.6.Y h 5 v 4.5.%.Y n v pXpXpXpXpXpXpXpXpXpXpXpXpXpXpXpXpXpXpX",
"pXpXpXpXpXpXpXpXpXpXpXpXpXpXpXpXpXpX9 z S I ~ 4.=.4.5.4.5.=.=.=.^ =.=.H s s J 5.%.%.$.P V pXpXpXpXpXpXpXpXpXpXpXpXpXpXpXpXpXpXpX",
"pXpXpXpXpXpXpXpXpXpXpXpXpXpXpXpXpXpXpXg S I G s 6 g ! ~ =.6.w.p.d.q.7.=.! =.=.=.^ ^ %.%.@.b pXpXpXpXpXpXpXpXpXpXpXpXpXpXpXpXpXpX",
"pXpXpXpXpXpXpXpXpXpXpXpXpXpXpXpXpXpXpXd M J b - % a H W 0.U.Y.L.L._._./.f.d.w.q.7.8.w.I.R.J.pXpXpXpXpXpXpXpXpXpXpXpXpXpXpXpXpXpX",
"pXpXpXpXpXpXpXpXpXpXpXpXpXpXpXpXpXpXpXg M K G m b C J r.L.v.r ; y *XuXiX2X>X'.`.`.`.`.'.:X:X@XpXpXpXpXpXpXpXpXpXpXpXpXpXpXpXpXpX",
"pXpXpXpXpXpXpXpXpXpXpXpXpXpXpXpXpXpXpXz M K P L L O.t.!.oXi     u 0XuXuXuXiXiXuXuXuXtX0X1X8X=XpXpXpXpXpXpXpXpXpXpXpXpXpXpXpXpXpX",
"pXpXpXpXpXpXpXpXpXpXpXpXpXpXpXpXpXpX4 b S F E E 2.P.@X=X3Xk.u l.*XuXuXuXuXuXuXuXuXuX9X6X4XoX;.pXpXpXpXpXpXpXpXpXpXpXpXpXpXpXpXpX",
"pXpXpXpXpXpXpXpXpXpXpXpXpXpXpXpXpXpXk X.o.#.0.I.].8X7X9XiXuXiXuXuXuXuXuXuXuXuXuXuXrX6X=X+Xz.pXpXpXpXpXpXpXpXpXpXpXpXpXpXpXpXpXpX",
"pXpXpXpXpXpXpXpXpXpXpXpXpXpXpXpXpXw ..a.I.~.>XqXiXyXtXyXyXuXuXuXuXyXtXyXyXyXyXyXtX0X%X{.z._ pXpXpXpXpXpXpXpXpXpXpXpXpXpXpXpXpXpX",
"pXpXpXpXpXpXpXpXpXpXpXpXpXpXpXpXpXx.!.).,XiXuXyXyXtXtXiXyXiXiXiXtXrXtXtXtXtXtXtX9X3X}.x._ d pXpXpXpXpXpXpXpXpXpXpXpXpXpXpXpXpXpX",
"pXpXpXpXpXpXpXpXpXpXpXpXpXpXpXpXj.S.[. X3XeXeXeXwXrXrXrXtXtXrXrXrXtXtXrXtXrXrXrX5XF.1._ z s pXpXpXpXpXpXpXpXpXpXpXpXpXpXpXpXpXpX",
"pXpXpXpXpXpXpXpXpXpXpXpXpXpXpXpXpXpXg.B.}.#X#X$X5X7XwXwXwXeXwXwXeX9X0XeXeX7X7X3XD. .m m g f pXpXpXpXpXpXpXpXpXpXpXpXpXpXpXpXpXpX",
"pXpXpXpXpXpXpXpXpXpXpXpXpXpXpXpXpXpXpXh.n.V.{.[.|.&X5X5X7X7X7X4X7X7X3X=X%X%X&XG.1.B M V h 5 pXpXpXpXpXpXpXpXpXpXpXpXpXpXpXpXpXpX",
"pXpXpXpXpXpXpXpXpXpXpXpXpXpXpXpXpXpXpXpXpXg.C.B.V.{.}.|.&X%X%X%X&XXXXXXX.X[.{.x._ x G x 6 - pXpXpXpXpXpXpXpXpXpXpXpXpXpXpXpXpXpX",
"pXpXpXpXpXpXpXpXpXpXpXpXpXpXpXpXpXpXpXpXpXpXu h.n.C.B.V.D.{.[.[.[.[.D.D.N.V.H.,.K J L v = * pXpXpXpXpXpXpXpXpXpXpXpXpXpXpXpXpXpX",
"pXpXpXpXpXpXpXpXpXpXpXpXpXpXpXpXpXpXpXpXpXpXpX3 r y h.n.n.m.M.M.M.N.N.M.M.D.G.t.+.! L s * * pXpXpXpXpXpXpXpXpXpXpXpXpXpXpXpXpXpX",
"pXpXpXpXpXpXpXpXpXpXpXpXpXpXpXpXpXpXpXpXpXpXpX3 = , e h.n.n.M.n.m.C.M.C.V.XX(.y.4.Q G 5 . * pXpXpXpXpXpXpXpXpXpXpXpXpXpXpXpXpXpX",
"pXpXpXpXpXpXpXpXpXpXpXpXpXpXpXpXpXpXpXpXpXpXpXpX5 d d [ l.m.M.M.B.B.V..X^.|.J.@.4.Y v 3 * pXpXpXpXpXpXpXpXpXpXpXpXpXpXpXpXpXpXpX",
"pXpXpXpXpXpXpXpXpXpXpXpXpXpXpXpXpXpXpXpXpXpXpXpX3 l V n )  .x.S.D.V.^. XH.,.' L Y V 8 pXpXpXpXpXpXpXpXpXpXpXpXpXpXpXpXpXpXpXpXpX",
"pXpXpXpXpXpXpXpXpXpXpXpXpXpXpXpXpXpXpXpXpXpXpXpXpXk P D z x ] b.S.V.[.j.{ ( V H x 8 pXpXpXpXpXpXpXpXpXpXpXpXpXpXpXpXpXpXpXpXpXpX",
"pXpXpXpXpXpXpXpXpXpXpXpXpXpXpXpXpXpXpXpXpXpXpXpXpX8 I #.H R R ] ..*.pXi 4 g x C a pXpXpXpXpXpXpXpXpXpXpXpXpXpXpXpXpXpXpXpXpXpXpX",
"pXpXpXpXpXpXpXpXpXpXpXpXpXpXpXpXpXpXpXpXpXpXpXpXpX2 C &.! W T F z 2 pXpX= d g g 4 pXpXpXpXpXpXpXpXpXpXpXpXpXpXpXpXpXpXpXpXpXpXpX",
"pXpXpXpXpXpXpXpXpXpXpXpXpXpXpXpXpXpXpXpXpXpXpXpXpXpXk ~ &.! W L d pXpXO : 6 s a pXpXpXpXpXpXpXpXpXpXpXpXpXpXpXpXpXpXpXpXpXpXpXpX",
"pXpXpXpXpXpXpXpXpXpXpXpXpXpXpXpXpXpXpXpXpXpXpXpXpXpX8 K W I L C a pXpXo = : : : pXpXpXpXpXpXpXpXpXpXpXpXpXpXpXpXpXpXpXpXpXpXpXpX",
"pXpXpXpXpXpXpXpXpXpXpXpXpXpXpXpXpXpXpXpXpXpXpXpXpXpXpXg K S C x 5 pXpXo # & = & pXpXpXpXpXpXpXpXpXpXpXpXpXpXpXpXpXpXpXpXpXpXpXpX",
"pXpXpXpXpXpXpXpXpXpXpXpXpXpXpXpXpXpXpXpXpXpXpXpXpXpXpXs b z m g , pXpX. $ # % % pXpXpXpXpXpXpXpXpXpXpXpXpXpXpXpXpXpXpXpXpXpXpXpX",
"pXpXpXpXpXpXpXpXpXpXpXpXpXpXpXpXpXpXpXpXpXpXpXpXpXpXpX5 d d d 6 : < pX. X $ # @ pXpXpXpXpXpXpXpXpXpXpXpXpXpXpXpXpXpXpXpXpXpXpXpX",
"pXpXpXpXpXpXpXpXpXpXpXpXpXpXpXpXpXpXpXpXpXpXpXpXpXpXpX% , 6 > & & + pXpXX X $ @ pXpXpXpXpXpXpXpXpXpXpXpXpXpXpXpXpXpXpXpXpXpXpXpX",
"pXpXpXpXpXpXpXpXpXpXpXpXpXpXpXpXpXpXpXpXpXpXpXpXpXpX< $ - > % # $ X pXpX< o o pXpXpXpXpXpXpXpXpXpXpXpXpXpXpXpXpXpXpXpXpXpXpXpXpX",
"pXpXpXpXpXpXpXpXpXpXpXpXpXpXpXpXpXpXpXpXpXpXpXpXpXpXo # # # # X X X pXpXpXpXpXpXpXpXpXpXpXpXpXpXpXpXpXpXpXpXpXpXpXpXpXpXpXpXpXpX",
"pXpXpXpXpXpXpXpXpXpXpXpXpXpXpXpXpXpXpXpXpXpXpXpXpXpX* @ @ # @ @ . . pXpXpXpXpXpXpXpXpXpXpXpXpXpXpXpXpXpXpXpXpXpXpXpXpXpXpXpXpXpX",
"pXpXpXpXpXpXpXpXpXpXpXpXpXpXpXpXpXpXpXpXpXpXpXpXpXpXpX@ @ # . X O pXpXpXpXpXpXpXpXpXpXpXpXpXpXpXpXpXpXpXpXpXpXpXpXpXpXpXpXpXpXpX",
"pXpXpXpXpXpXpXpXpXpXpXpXpXpXpXpXpXpXpXpXpXpXpXpXpXpXpXpXpXpXpXpXpXpXpXpXpXpXpXpXpXpXpXpXpXpXpXpXpXpXpXpXpXpXpXpXpXpXpXpXpXpXpXpX",
"pXpXpXpXpXpXpXpXpXpXpXpXpXpXpXpXpXpXpXpXpXpXpXpXpXpXpXpXpXpXpXpXpXpXpXpXpXpXpXpXpXpXpXpXpXpXpXpXpXpXpXpXpXpXpXpXpXpXpXpXpXpXpXpX"
};
