/* XPM */
static char *result[] = {
/* columns rows colors chars-per-pixel */
"64 64 222 2 ",
"   c #000204",
".  c #271C15",
"X  c #2D2018",
"o  c #3D2617",
"O  c #3A261A",
"+  c #3E2B19",
"@  c #352418",
"#  c #3B321D",
"$  c #3E3F22",
"%  c #452A1A",
"&  c #4B2D1A",
"*  c #422716",
"=  c #502E1A",
"-  c #53341E",
";  c #5B331B",
":  c #4F301E",
">  c #6A391F",
",  c #4A3B24",
"<  c #543922",
"1  c #643A21",
"2  c #6B3C23",
"3  c #733E22",
"4  c #444626",
"5  c #5B4736",
"6  c #5C4A27",
"7  c #654129",
"8  c #7B4324",
"9  c #774427",
"0  c #694A39",
"q  c #6A543B",
"w  c #715336",
"e  c #7B6638",
"r  c #535455",
"t  c #675845",
"y  c #725C52",
"u  c #5D605F",
"i  c #6C6A51",
"p  c #636666",
"a  c #687577",
"s  c #8C4C2A",
"d  c #854827",
"f  c #974C28",
"g  c #83532E",
"h  c #96512C",
"j  c #9D532C",
"k  c #9A5B35",
"l  c #83573E",
"z  c #A4552D",
"x  c #B25E2E",
"c  c #BA5E2A",
"v  c #AB5D35",
"b  c #B45D33",
"n  c #B95E33",
"m  c #9D603F",
"M  c #BA6233",
"N  c #B96539",
"B  c #AF6433",
"V  c #C25D32",
"C  c #C36535",
"Z  c #CA6A35",
"A  c #CD6A38",
"S  c #C86738",
"D  c #D36B3A",
"F  c #D76B38",
"G  c #D5703A",
"H  c #DB723B",
"J  c #DA7137",
"K  c #E86B3E",
"L  c #E3743C",
"P  c #EB763D",
"I  c #EA7A3D",
"U  c #E57B3F",
"Y  c #F37F3F",
"T  c #8D5C45",
"R  c #94634A",
"E  c #876C5D",
"W  c #8C6F4D",
"Q  c #BC764E",
"!  c #A86C53",
"~  c #A97559",
"^  c #B87655",
"/  c #B16B4B",
"(  c #927364",
")  c #8B7872",
"_  c #B37E67",
"`  c #C97244",
"'  c #D47549",
"]  c #CF7752",
"[  c #ED7641",
"{  c #EE7D41",
"}  c #E67A46",
"|  c #F37C40",
" . c #FD7D43",
".. c #F87948",
"X. c #EF744A",
"o. c #C07C60",
"O. c #FE823E",
"+. c #F5813F",
"@. c #9C8577",
"#. c #A7887C",
"$. c #B98B77",
"%. c #BFA67B",
"&. c #C7815C",
"*. c #CA8C55",
"=. c #D38459",
"-. c #F58242",
";. c #FE8542",
":. c #FF8944",
">. c #F6854A",
",. c #EB8253",
"<. c #E6865A",
"1. c #FC8B54",
"2. c #FD8C5C",
"3. c #F58D53",
"4. c #FF935B",
"5. c #F6915B",
"6. c #EE8247",
"7. c #D79978",
"8. c #D19271",
"9. c #FE9D6B",
"0. c #F99869",
"q. c #F89A72",
"w. c #EF8E63",
"e. c #FDA678",
"r. c #F9AA78",
"t. c #6D7F85",
"y. c #6C8788",
"u. c #758386",
"i. c #7F8D97",
"p. c #859199",
"a. c #928F8F",
"s. c #B5978A",
"d. c #A59B98",
"f. c #AA8F83",
"g. c #8EA68A",
"h. c #B8A396",
"j. c #ABA29E",
"k. c #8A9BA7",
"l. c #919DA2",
"z. c #98A7A9",
"x. c #8EA3B3",
"c. c #9AABB5",
"v. c #9EAEBD",
"b. c #9EB0B6",
"n. c #A9A7A9",
"m. c #B7ABA5",
"M. c #A2AEBA",
"N. c #A8ACB2",
"B. c #A5B2BB",
"V. c #AAB5BD",
"C. c #AEB5B9",
"Z. c #B8B6B9",
"A. c #ABB6AA",
"S. c #C49A8B",
"D. c #DD9E85",
"F. c #D6A388",
"G. c #C7AB94",
"H. c #FBAA84",
"J. c #F8AA88",
"K. c #FDB28B",
"L. c #E8AF91",
"P. c #FABA9D",
"I. c #FCB797",
"U. c #F0B096",
"Y. c #CEB4A8",
"T. c #C4B7B4",
"R. c #CFAFA2",
"E. c #EDBDA1",
"W. c #FEB9A0",
"Q. c #ACC0A4",
"!. c #FFC29F",
"~. c #CEC6B7",
"^. c #D0C2B8",
"/. c #FDC3A8",
"(. c #FCCCB6",
"). c #F0CBBB",
"_. c #ADBBC5",
"`. c #A8B5C1",
"'. c #B3BBC4",
"]. c #B6BFC6",
"[. c #BCC3CB",
"{. c #B8C3C8",
"}. c #BCC9D2",
"|. c #C5C3C3",
" X c #CBC6C5",
".X c #C9C9C9",
"XX c #D6D6CE",
"oX c #C4CCD4",
"OX c #CFCED3",
"+X c #CAD3DA",
"@X c #C8D1D9",
"#X c #DBDCDC",
"$X c #D3D4D6",
"%X c #DACDC9",
"&X c #F8D7C7",
"*X c #E4DDDB",
"=X c #E6D9D3",
"-X c #F7DDD3",
";X c #EFD9CE",
":X c #E2E0DB",
">X c #F9E5DA",
",X c #D5DBE2",
"<X c #E2DEE0",
"1X c #DCE1E6",
"2X c #E4E1E4",
"3X c #EDE6E4",
"4X c #E1E5E9",
"5X c #E5E9EC",
"6X c #EBEBED",
"7X c #ECE7E6",
"8X c #F4EAE4",
"9X c #FFECE3",
"0X c #F3EBE9",
"qX c #FCF1ED",
"wX c #ECEEF1",
"eX c #EEF1F2",
"rX c #F2F3F5",
"tX c #F6F7F8",
"yX c #F5F9FA",
"uX c #FDFDFD",
"iX c #FFF7F3",
"pX c None",
/* pixels */
"pXpXpXpXpXpXpXpXpXpXpXpXpXpXpXpXpXpXpXpXpXpXpXpXpXpXpXpXpXpXpXpXpXpXpXpXpXpXpXpXpXpXpXpXpXpXpXpXpXpXpXpXpXpXpXpXpXpXpXpXpXpXpXpX",
"pXpXpXpXpXpXpXpXpXpXpXpXpXpXpXpXpXpXpXpXpXpXpXpXpXpXpXpXpXpXpXpXpXpXpXpXpXpXpXpXpXpXpXpXpXpXpXpXpXpXpXpXpXpXpXpXpXpXpXpXpXpXpXpX",
"pXpXpXpXpXpXpXpXpXpXpXpXpXpXpXpXpXpXpXpXpXpXpXpXpXpXpXpXpXpXpXpXpXpXpXpXpXpXpXpXpXpXpXpXpXpXpXpXpXpXpXpXpXpXpXpXpXpXpXpXpXpXpXpX",
"pXpXpXpXpXpXpXpXpXpXpXpXpXpXpXpXpXpXpXpXpXpXpXpXpXpXpXpXpXpXpXpXpXpXpXpXpXpXpXpXpXpXpXpXpXpXpXpXpXpXpXpXpXpXpXpXpXpXpXpXpXpXpXpX",
"pXpXpXpXpXpXpXpXpXpXpXpXpXpXpXpXpXpXpXpXpXpXpXpXpXpXpXpXpXpXpXpXpXpXpXpXpXpXpXpXpXpXpXpXpXpXpXpXpXpXpXpXpXpXpXpXpXpXpXpXpXpXpXpX",
"pXpXpXpXpXpXpXpXpXpXpXpXpXpXpXpXpXpXpXpXpXpXpXpXpXpXpXpXpXpXpXpXpXpXA.pXpXpXpXpXpXpXpXpXpXpXpXpXpXpXpXpXpXpXpXpXpXpXpXpXpXpXpXpX",
"pXpXpXpXpXpXpXpXpXpXpXpXpXpXpXpXpXpXpXpXpXpXpXpXpXpXpXpXpXpXpXpXpXz.XXQ.pXpXpXpXpXpXpXpXpXpXpXpXpXpXpXpXpXpXpXpXpXpXpXpXpXpXpXpX",
"pXpXpXpXpXpXpXpXpXpXpXpXpXpXpXpXpXpXpXpXpXpXpXpXpXpXpXpXpXpXpXpXpX~.0X:XpXpXpXpXpXpXpXpXpXpXpXpXpXpXpXpXpXpXpXpXpXpXpXpXpXpXpXpX",
"pXpXpXpXpXpXpXpXpXpXpXpXpXpXpXpXpXpXpXpXpXpXpXpXpXpXpXpXpXpXpXpXz.:XqX>Xg.pXpXpXpXpXpXpXpXpXpXpXpXpXpXpXpXpXpXpXpXpXpXpXpXpXpXpX",
"pXpXpXpXpXpXpXpXpXpXpXpXpXpXpXpXpXpXpXpXpXpXpXpXpXpXpXpXpXpXpXpX{.8X0X>X~.pXpXpXpXpXpXpXpXpXpXpXpXpXpXpXpXpXpXpXpXpXpXpXpXpXpXpX",
"pXpXpXpXpXpXpXpXpXpXpXpXpXpXpXpXpXpXpXpXpXpXpXpXpXpXpXpXpXpXpXz.XX8X8X>X;XpXpXpXpXpXpXpXpXpXpXpXpXpXpXpXpXpXpXpXpXpXpXpXpXpXpXpX",
"pXpXpXpXpXpXpXpXpXpXpXpXpXpXpXpXpXpXpXpXpXpXpXpXpXpXpXpXpXpXpXZ.:X8X>X&X(.G.pXpXpXpXpXpXpXpXpXpXpXpXpXpXpXpXpXpXpXpXpXpXpXpXpXpX",
"pXpXpXpXpXpXpXpXpXpXpXpXpXpXpXpXpXpXpXpXpXpXpXpXpXpXpXpXpXpXu..X=X>X-X(././.pXpXpXpXpXpXpXpXpXpXpXpXpXpXpXpXpXpXpXpXpXpXpXpXpXpX",
"pXpXpXpXpXpXpXpXpXpXpXpXpXpXpXpXpXpXpXpXpXpXpXpXpXpX4 pXpXpXp.%X).>X(./.P.P.%.pXpXpXpXpXpXpXpXpXpXpXpXpXpXpXpXpXpXpXpXpXpXpXpXpX",
"pXpXpXpXpXpXpXpXpXpXpXpXpXpXpXpXpXpXpXpXpXpXpXpXpX: ) t pXpXd.).P.(.P.U.J.H.J.pXpXpXpXpXpXpXpXpXpXpXpXpXpXpXpXpXpXpXpXpXpXpXpXpX",
"pXpXpXpXpXpXpXpXpXpXpXpXpXpXpXpXpXpXpXpXpXpXpXpXpX5 N.n.t pXS.U.r.J.J.H.H.r.e.pXpXpXpXpXpXpXpXpXpXpXpXpXpXpXpXpXpXpXpXpXpXpXpXpX",
"pXpXpXpXpXpXpXpXpXpXpXpXpXpXpXpXpXpXpXpXpXpXpXpXpXy ]._.N.0 ! q.0.0.q.q.e.r.9.*.pXpXpXpXpXpXpXpXpXpXpXpXpXpXpXpXpXpXpXpXpXpXpXpX",
"pXpXpXpXpXpXpXpXpXpXpXpXpXpXpXpXpXpXpXpXpXpXpXpXpX) ].`.].d.3 ` 2.2.X.] 0.9.9.<.pXpXpXpXpXpXpXpXpXpXpXpXpXpXpXpXpXpXpXpXpXpXpXpX",
"pXpXpXpXpXpXpXpXpXpXpXpXpXpXpXpXpXpXpXpXpXpXpXpX, a.[.V.Z.|.) 3 X.X.' X.1.2.4.5.pXpXpXpXpXpXpXpXpXpXpXpXpXpXpXpXpXpXpXpXpXpXpXpX",
"pXpXpXpXpXpXpXpXpXpXpXpXpXpXpXpXpXpXpXpXpXpXpXpX, d.].'.Z.].T.y f K S X.....1.1.pXpXpXpXpXpXpXpXpXpXpXpXpXpXpXpXpXpXpXpXpXpXpXpX",
"pXpXpXpXpXpXpXpXpXpXpXpXpXpXpXpXpXpXpXpXpXpXpXpX, n.].T.7.m..XS.d V S [  .....} pXpXpXpXpXpXpXpXq E ( < pXpXpXpXpXpXpXpXpXpXpXpX",
"pXpXpXpXpXpXpXpXpXpXpXpXpXpXpXpXpXpXpXpXpXpXpXpX6 Z.Z.Y.&.^ F.L.&.b b F K D S M pXpXpXpXpXpX7 #.T.XXh., pXpXpXpXpXpXpXpXpXpXpXpX",
"pXpXpXpXpXpXpXpXpXpXpXpXpXpXpXpXpXpXpXpXpXpXpXpX5 Z.s.8.Q S I >.1.L S V A G Z B C pXpXpXpXR R. X.X:Xf.4 pXpXpXpXpXpXpXpXpXpXpXpX",
"pXpXpXpXpXpXpXpXpXpXpXpXpXpXpXpXpXpXpXpXpXpXpXpX0 n.&.G ` 6.;.O.;.Y |  .:.U A G H m pXs &.R.|. XXX1X( pXpXpXpXpXpXpXpXpXpXpXpXpX",
"pXpXpXpXpXpXpXpXpXpXpXpXpXpXpXpXpXpXpXpXpXpXpXpXw $./ F L -.;.;.;.;.;.;.-.-.;.;.L M M ` 8.R.|..X#X#Xt pXpXpXpXpXpXpXpXpXpXpXpXpX",
"pXpXpXpXpXpXpXpXpXpXpXpXpXpXpXpXpXpXpXpXpXpXpXpXT ^ v F Y ;.;.;.;.;.;.;.;.;.;.+.-.| { G ` F. X.X3X^.6 pXpXpXpXpXpXpXpXpXpXpXpXpX",
"pXpXpXpXpXpXpXpXpXpXpXpXpXpXpXpXpXpXpXpXpXpXpXpX9 v C } +.-.;.;.;.;.;.;.;.;.;.;.;.:.;.I ,.L.~..X0X@.pXpXpXpXpXpXpXpXpXpXpXpXpXpX",
"pXpXpXpXpXpXpXpXpXpXpXpXpXpXpXpXpXpXpXpXpXpXpXpXg b S P -.;.;.;.;.;.;.;.;.;.;.;.;.;.;.:.:.5.E.7X:XpXpXpXpXpXpXpXpXpXpXpXpXpXpXpX",
"pXpXpXpXpXpXpXpXpXpXpXpXpXpXpXpXpXpXpXpXpXpXpXpXj b D Y ;.;.;.;.;.;.;.;.;.;.;.;.;.;.;.;.+.>.K.>Xh.pXpXpXpXpXpXpXpXpXpXpXpXpXpXpX",
"pXpXpXpXpXpXpXpXpXpXpXpXpXpXpXpXpXpXpXpXpXpXpXpXz n K P U ;.;.;.;.;.;.:.;.;.;.;.;.;.;.;.O.{ J.;XpXpXpXpXpXpXpXpXpXpXpXpXpXpXpXpX",
"pXpXpXpXpXpXpXpXpXpXpXpXpXpXpXpXpXpXpXpXpXpXpXpXv V ' 3 * v :.;.;.;.;.;.;.;.;.;.;.;.;.;. .} P.s.pXpXpXpXpXpXpXpXpXpXpXpXpXpXpXpX",
"pXpXpXpXpXpXpXpXpXpXpXpXpXpXpXpXpXpXpXpXpXpXpXz b D v . X 1 -.-.;.;.;.;.;.;.;.;.:.;.;. ...>.D.pXpXpXpXpXpXpXpXpXpXpXpXpXpXpXpXpX",
"pXpXpXpXpXpXpXpXpXpXpXpXpXpXpXpXpXpXpXpXpXpXpXb n A M @ . 8 I -.;.;.:.:.:.:.:.;.I :.;. .| X.! pXpXpXpXpXpXpXpXpXpXpXpXpXpXpXpXpX",
"pXpXpXpXpXpXpXpXpXpXpXpXpXpXpXpXpXpXpXpXpXpXb n A D H z 8 c L | ;.;.O.+.O.:.-.d < v ;. ...] q pXpXpXpXpXpXpXpXpXpXpXpXpXpXpXpXpX",
"pXpXpXpXpXpXpXpXpXpXpXpXpXpXpXpXpXpXpXpXpXo.] ` F K P J ` ] =.r.r.9.4.:.O.:.N % O < ;. .| N pXpXpXpXpXpXpXpXpXpXpXpXpXpXpXpXpXpX",
"pXpXpXpXpXpXpXpXpXpXpXpXpXpXpXpXpXpXpXZ.T.R.U.J.0.5.7.F.G.Y.^.m.d.s.!.K.4.O.M @ @ h ;. .[ e pXpXpXpXpXpXpXpXpXpXpXpXpXpXpXpXpXpX",
"pXpXpXpXpXpXpXpXpXpXpXpXpXpXpXpXpXpXpXk.'..X7XqXqX0X7X:X#X#X#Xr     r =X&Xr.:.j h -.;. .| pXpXpXpXpXpXpXpXpXpXpXpXpXpXpXpXpXpXpX",
"pXpXpXpXpXpXpXpXpXpXpXpXpXpXpXpXpXpXpXpXx.{.,XwXrXyXyXtXeXeXtXT.u r n.rXuX9X!.9.:.O.;. .[ pXpXpXpXpXpXpXpXpXpXpXpXpXpXpXpXpXpXpX",
"pXpXpXpXpXpXpXpXpXpXpXpXpXpXpXpXpXpXpXpXy.M..X+X4XwXrXrXtXuXuXuX6X7XuXuXuXiX9X(.e.O.;. . .^ pXpXpXpXpXpXpXpXpXpXpXpXpXpXpXpXpXpX",
"pXpXpXpXpXpXpXpXpXpXpXpXpXpXpXpXpXpXpXpXpXk.M.'.oX4XwXwXrXtXyXuXuXuXuXuXuXuXiXqX>X/.9.2.9.<.pXpXpXpXpXpXpXpXpXpXpXpXpXpXpXpXpXpX",
"pXpXpXpXpXpXpXpXpXpXpXpXpXpXpXpXpXpXpXpXpXy.k.B._.@X5X6XwXrXrXrXtXrXtXuXuXuXuXuXuXuXqX(.W.W.W pXpXpXpXpXpXpXpXpXpXpXpXpXpXpXpXpX",
"pXpXpXpXpXpXpXpXpXpXpXpXpXpXpXpXpXpXpXpXpXpXt.x.v._.+X4X4XwXeXrXrXeXrXrXtXuXuXuXuXuXrX8X-X&XG.pXpXpXpXpXpXpXpXpXpXpXpXpXpXpXpXpX",
"pXpXpXpXpXpXpXpXpXpXpXpXpXpXpXpXpXpXpXpXpXpXpXa x.v._.@X,X,X5XwXeXeXrXrXrXrXyXyXtXwX2X*X<X2X7XpXpXpXpXpXpXpXpXpXpXpXpXpXpXpXpXpX",
"pXpXpXpXpXpXpXpXpXpXpXpXpXpXpXpXpXpXpXpXpXpXpXpXu k.v._.oX,X,X,X1X5XwXeXeXrXrXrX6X#XOX+XOXf.pXpXpXpXpXpXpXpXpXpXpXpXpXpXpXpXpXpX",
"pXpXpXpXpXpXpXpXpXpXpXpXpXpXpXpXpXpXpXpXpXpXpXpX% 5 u.c.`.{.}.}.@X+X1X1X5X5X5X1X@X'.N.s.R < pXpXpXpXpXpXpXpXpXpXpXpXpXpXpXpXpXpX",
"pXpXpXpXpXpXpXpXpXpXpXpXpXpXpXpXpXpXpXpXpXpXpXpXpX< 5 p i.z.V.{.{.}.}.oX@X+X[.N.f._ ` j ; pXpXpXpXpXpXpXpXpXpXpXpXpXpXpXpXpXpXpX",
"pXpXpXpXpXpXpXpXpXpXpXpXpXpXpXpXpXpXpXpXpXpXpXpXpX2 9 y a y.p.N.c.B.V.V.V.N.C.$.F P F 8 - pXpXpXpXpXpXpXpXpXpXpXpXpXpXpXpXpXpXpX",
"pXpXpXpXpXpXpXpXpXpXpXpXpXpXpXpXpXpXpXpXpXpXpXpXpX2 s T i.p.z.p.k.z.x.B.b.{.~.F.6.P M 1 pXpXpXpXpXpXpXpXpXpXpXpXpXpXpXpXpXpXpXpX",
"pXpXpXpXpXpXpXpXpXpXpXpXpXpXpXpXpXpXpXpXpXpXpXpXpX7 h j E a.l.n.c.c.b.`.{.Z.s.' I J k pXpXpXpXpXpXpXpXpXpXpXpXpXpXpXpXpXpXpXpXpX",
"pXpXpXpXpXpXpXpXpXpXpXpXpXpXpXpXpXpXpXpXpXpXpXpXpXpXh B z R ~ d.V.v.c.{.A.$./ A J k pXpXpXpXpXpXpXpXpXpXpXpXpXpXpXpXpXpXpXpXpXpX",
"pXpXpXpXpXpXpXpXpXpXpXpXpXpXpXpXpXpXpXpXpXpXpXpXpXpXg D S b c ~ j.n.b.g.i k v Z x 6 pXpXpXpXpXpXpXpXpXpXpXpXpXpXpXpXpXpXpXpXpXpX",
"pXpXpXpXpXpXpXpXpXpXpXpXpXpXpXpXpXpXpXpXpXpXpXpXpXpXpXD L F G Z N W pXpX, k j x d pXpXpXpXpXpXpXpXpXpXpXpXpXpXpXpXpXpXpXpXpXpXpX",
"pXpXpXpXpXpXpXpXpXpXpXpXpXpXpXpXpXpXpXpXpXpXpXpXpXpXpXB | [ P H A 3 pXpX< s s f pXpXpXpXpXpXpXpXpXpXpXpXpXpXpXpXpXpXpXpXpXpXpXpX",
"pXpXpXpXpXpXpXpXpXpXpXpXpXpXpXpXpXpXpXpXpXpXpXpXpXpXpXg [ L L J M 7 pXpX- 8 8 8 pXpXpXpXpXpXpXpXpXpXpXpXpXpXpXpXpXpXpXpXpXpXpXpX",
"pXpXpXpXpXpXpXpXpXpXpXpXpXpXpXpXpXpXpXpXpXpXpXpXpXpXpX0 V A S C v - pXpX& 1 > > pXpXpXpXpXpXpXpXpXpXpXpXpXpXpXpXpXpXpXpXpXpXpXpX",
"pXpXpXpXpXpXpXpXpXpXpXpXpXpXpXpXpXpXpXpXpXpXpXpXpXpXpXpXj n n x j - pXpX* = ; 1 pXpXpXpXpXpXpXpXpXpXpXpXpXpXpXpXpXpXpXpXpXpXpXpX",
"pXpXpXpXpXpXpXpXpXpXpXpXpXpXpXpXpXpXpXpXpXpXpXpXpXpXpXpX8 j z j d - pXpX+ * & = pXpXpXpXpXpXpXpXpXpXpXpXpXpXpXpXpXpXpXpXpXpXpXpX",
"pXpXpXpXpXpXpXpXpXpXpXpXpXpXpXpXpXpXpXpXpXpXpXpXpXpXpXpX; d d 2 1 - pXpX@ + * * $ pXpXpXpXpXpXpXpXpXpXpXpXpXpXpXpXpXpXpXpXpXpXpX",
"pXpXpXpXpXpXpXpXpXpXpXpXpXpXpXpXpXpXpXpXpXpXpXpXpXpXpXpX& 2 1 ; & o pXpXpX+ * pXpXpXpXpXpXpXpXpXpXpXpXpXpXpXpXpXpXpXpXpXpXpXpXpX",
"pXpXpXpXpXpXpXpXpXpXpXpXpXpXpXpXpXpXpXpXpXpXpXpXpXpXpX# % & - & o o pXpXpXpXpXpXpXpXpXpXpXpXpXpXpXpXpXpXpXpXpXpXpXpXpXpXpXpXpXpX",
"pXpXpXpXpXpXpXpXpXpXpXpXpXpXpXpXpXpXpXpXpXpXpXpXpXpXpX& % % & % % @ pXpXpXpXpXpXpXpXpXpXpXpXpXpXpXpXpXpXpXpXpXpXpXpXpXpXpXpXpXpX",
"pXpXpXpXpXpXpXpXpXpXpXpXpXpXpXpXpXpXpXpXpXpXpXpXpXpXpX4 * % % o @ pXpXpXpXpXpXpXpXpXpXpXpXpXpXpXpXpXpXpXpXpXpXpXpXpXpXpXpXpXpXpX",
"pXpXpXpXpXpXpXpXpXpXpXpXpXpXpXpXpXpXpXpXpXpXpXpXpXpXpXpXpXpXpXpXpXpXpXpXpXpXpXpXpXpXpXpXpXpXpXpXpXpXpXpXpXpXpXpXpXpXpXpXpXpXpXpX",
"pXpXpXpXpXpXpXpXpXpXpXpXpXpXpXpXpXpXpXpXpXpXpXpXpXpXpXpXpXpXpXpXpXpXpXpXpXpXpXpXpXpXpXpXpXpXpXpXpXpXpXpXpXpXpXpXpXpXpXpXpXpXpXpX"
};
