/* XPM */
static char *result[] = {
/* columns rows colors chars-per-pixel */
"64 64 225 2 ",
"   c #181716",
".  c #070D10",
"X  c #251A13",
"o  c #3B2416",
"O  c #392619",
"+  c #3A2B1A",
"@  c #3C331D",
"#  c #323438",
"$  c #3A3820",
"%  c #452B1B",
"&  c #4A2C1A",
"*  c #412717",
"=  c #47331D",
"-  c #54321D",
";  c #5B361E",
":  c #502F1C",
">  c #65391E",
",  c #4F3E21",
"<  c #643A21",
"1  c #693B22",
"2  c #3E4525",
"3  c #494428",
"4  c #58492F",
"5  c #674626",
"6  c #734123",
"7  c #794324",
"8  c #77492B",
"9  c #7C532A",
"0  c #65573A",
"q  c #755834",
"w  c #674C34",
"e  c #414547",
"r  c #585741",
"t  c #645347",
"y  c #755848",
"u  c #6E5E53",
"i  c #776457",
"p  c #6C6E59",
"a  c #727C7C",
"s  c #6D7470",
"d  c #84441F",
"f  c #834423",
"g  c #8D4D2B",
"h  c #894A26",
"j  c #944E2A",
"k  c #964C24",
"l  c #8B502D",
"z  c #9C522B",
"x  c #98522A",
"c  c #865937",
"v  c #9B5938",
"b  c #A8582E",
"n  c #B35C2E",
"m  c #B95D2C",
"M  c #A45A32",
"N  c #A95A33",
"B  c #B45E32",
"V  c #BB5F34",
"C  c #A24E23",
"Z  c #A86234",
"A  c #B56233",
"S  c #BD6334",
"D  c #B8683B",
"F  c #C15D2D",
"G  c #C36534",
"H  c #CC6C3A",
"J  c #C66A38",
"K  c #D56D37",
"L  c #DA6F34",
"P  c #D46C3A",
"I  c #DC6E3B",
"U  c #DB723B",
"Y  c #D77239",
"T  c #CF642E",
"R  c #E57539",
"E  c #E6793E",
"W  c #EA7738",
"Q  c #F37D3E",
"!  c #FC7C3E",
"~  c #FC7B35",
"^  c #E6692E",
"/  c #855741",
"(  c #946449",
")  c #846A5A",
"_  c #986A53",
"`  c #967459",
"'  c #A26548",
"]  c #B76C47",
"[  c #A66E53",
"{  c #B9764D",
"}  c #867669",
"|  c #967D6B",
" . c #8B7D76",
".. c #AC7861",
"X. c #C56E41",
"o. c #CE7343",
"O. c #C6774A",
"+. c #D37B4C",
"@. c #D77743",
"#. c #C47D55",
"$. c #D36F43",
"%. c #E77A46",
"&. c #F57A41",
"*. c #FD7C43",
"=. c #FF833C",
"-. c #FF8237",
";. c #AA855F",
":. c #968779",
">. c #9D947E",
",. c #8C8B7D",
"<. c #A7897A",
"1. c #BA957D",
"2. c #B18671",
"3. c #D98356",
"4. c #E8834A",
"5. c #F58242",
"6. c #FE8542",
"7. c #FE8A44",
"8. c #FB834A",
"9. c #FD8D4B",
"0. c #EA8955",
"q. c #FD9558",
"w. c #FF914D",
"e. c #D19070",
"r. c #E9986B",
"t. c #FC9965",
"y. c #EC9878",
"u. c #FEA26D",
"i. c #E9A37E",
"p. c #FAAA79",
"a. c #FAB077",
"s. c #7B7B80",
"d. c #6B8687",
"f. c #748588",
"g. c #768B95",
"h. c #7D92A0",
"j. c #948A89",
"k. c #989995",
"l. c #8A938F",
"z. c #B49789",
"x. c #A79A98",
"c. c #A8958C",
"v. c #95A78E",
"b. c #ACA998",
"n. c #B7AA99",
"m. c #B3B39C",
"M. c #8B9BA6",
"N. c #8C9FB1",
"B. c #8EA1A8",
"V. c #94A4AC",
"C. c #9DA9A8",
"Z. c #99A9B5",
"A. c #9EB2BB",
"S. c #8BA0B2",
"D. c #A7A8A8",
"F. c #BBACA8",
"G. c #B7B1AE",
"H. c #A3B1BB",
"J. c #A9B3B8",
"K. c #BAB8B9",
"L. c #A9ACB3",
"P. c #C59A8A",
"I. c #C9A38E",
"U. c #D9A385",
"Y. c #C6A393",
"T. c #D4AA95",
"R. c #DDB198",
"E. c #F4A685",
"W. c #FDB285",
"Q. c #E5B498",
"!. c #FBB795",
"~. c #C9B5AB",
"^. c #D9BBA9",
"/. c #CCBBB5",
"(. c #E8BCA5",
"). c #CAC3BE",
"_. c #C1C0BD",
"`. c #D0C4B0",
"'. c #FCC5A5",
"]. c #FBCDB7",
"[. c #FED5BD",
"{. c #E8C7B8",
"}. c #ADBCC5",
"|. c #A7B6C3",
" X c #B2BCC4",
".X c #B7BEC7",
"XX c #B6C2CB",
"oX c #BAC3CA",
"OX c #BACAD3",
"+X c #B7C6D0",
"@X c #C8C7C6",
"#X c #D5CAC3",
"$X c #DAD1CA",
"%X c #C6CDD5",
"&X c #CBD4DC",
"*X c #C9D3DA",
"=X c #D9D8D8",
"-X c #E3D5CD",
";X c #EDD5CA",
":X c #F8DCCB",
">X c #EBDED5",
",X c #E5DEDB",
"<X c #E5DAD4",
"1X c #EED6CE",
"2X c #F9E6DB",
"3X c #E6E0DD",
"4X c #D6DCE2",
"5X c #D7DEE6",
"6X c #CEDDE8",
"7X c #DEE4E8",
"8X c #E2E6EB",
"9X c #EAEBEC",
"0X c #E7E8E9",
"qX c #F2E6E3",
"wX c #FFF3EC",
"eX c #EBEDF1",
"rX c #E5EFF4",
"tX c #EEF1F2",
"yX c #EAF5FB",
"uX c #F3F4F4",
"iX c #F6F7F8",
"pX c #F5F9FA",
"aX c #FDFDFD",
"sX c #FEF8F4",
"dX c None",
/* pixels */
"dXdXdXdXdXdXdXdXdXdXdXdXdXdXdXdXdXdXdXdXdXdXdXdXdXdXdXdXdXdXdXdXdXdXdXdXdXdXdXdXdXdXdXdXdXdXdXdXdXdXdXdXdXdXdXdXdXdXdXdXdXdXdXdX",
"dXdXdXdXdXdXdXdXdXdXdXdXdXdXdXdXdXdXdXdXdXdXdXdXdXdXdXdXdXdXdXdXdXdXdXdXdXdXdXdXdXdXdXdXdXdXdXdXdXdXdXdXdXdXdXdXdXdXdXdXdXdXdXdX",
"dXdXdXdXdXdXdXdXdXdXdXdXdXdXdXdXdXdXdXdXdXdXdXdXdXdXdXdXdXdXdXdXdXdXdXdXdXdXdXdXdXdXdXdXdXdXdXdXdXdXdXdXdXdXdXdXdXdXdXdXdXdXdXdX",
"dXdXdXdXdXdXdXdXdXdXdXdXdXdXdXdXdXdXdXdXdXdXdXdXdXdXdXdXdXdXdXdXdXdXdXdXdXdXdXdXdXdXdXdXdXdXdXdXdXdXdXdXdXdXdXdXdXdXdXdXdXdXdXdX",
"dXdXdXdXdXdXdXdXdXdXdXdXdXdXdXdXdXdXdXdXdXdXdXdXdXdXdXdXdXdXdXdXdXdXdXdXdXdXdXdXdXdXdXdXdXdXdXdXdXdXdXdXdXdXdXdXdXdXdXdXdXdXdXdX",
"dXdXdXdXdXdXdXdXdXdXdXdXdXdXdXdXdXdXdXdXdXdXdXdXdXdXdXdXdXdXdXdXdXdXdXdXdXdXdXdXdXdXdXdXdXdXdXdXdXdXdXdXdXdXdXdXdXdXdXdXdXdXdXdX",
"dXdXdXdXdXdXdXdXdXdXdXdXdXdXdXdXdXdXdXdXdXdXdXdXdXdXdXdXdXdXdXdXdXdXdXdXdXdXdXdXdXdXdXdXdXdXdXdXdXdXdXdXdXdXdXdXdXdXdXdXdXdXdXdX",
"dXdXdXdXdXdXdXdXdXdXdXdXdXdXdXdXdXdXdXdXdXdXdXdXdXdXdXdXdXdXdXdXdXdXdXdXdXdXdXdXdXdXdXdXdXdXdXdXdXdXdXdXdXdXdXdXdXdXdXdXdXdXdXdX",
"dXdXdXdXdXdXdXdXdXdXdXdXdXdXdXdXdXdXdXdXdXdXdXdXdXdXm.~.dXdXdXdXdXdXdXdXdXdXdXdXdXdXdXdXdXdXdXdXdXdXdXdXdXdXdXdXdXdXdXdXdXdXdXdX",
"dXdXdXdXdXdXdXdXdXdXdXdXdXdXdXdXdXdXdXdXdXdXdXdXm.{.2X<X#Xm.dXdXdXdXdXdXdXdXdXdXdXdXdXdXdXdXdXdXdXdXdXdXdXdXdXdXdXdXdXdXdXdXdXdX",
"dXdXdXdXdXdXdXdXdXdXdXdXdXdXdXdXdXdXdXdXdXdXdXb.=X>X-X@XL.D.v.dXdXdXdXdXdXdXdXdXdXdXdXdXdXdXdXdXdXdXdXdXdXdXdXdXdXdXdXdXdXdXdXdX",
"dXdXdXdXdXdXdXdXdXdXdXdXdXdXdXdXdXdXdXdXdXdXv.=X>X-X@XD.k.k.D.dXdXdXdXdXdXdXdXdXdXdXdXdXdXdXdXdXdXdXdXdXdXdXdXdXdXdXdXdXdXdXdXdX",
"dXdXdXdXdXdXdXdXdXdXdXdXdXdXdXdXdXdXdXdXdXdX_.>X>X#XG.l.a v.b.dXdXdXdXdXdXdXdXdXdXdXdXdXdXdXdXdXdXdXdXdXdXdXdXdXdXdXdXdXdXdXdXdX",
"dXdXdXdXdXdXdXdXdXdXdXdXdXdXdXdXdXdXdXdXdXl.$X2X<X).G.f.dXdXdXdXdXdXdXdXdXdXdXdXdXdXdXdXdXdXdXdXdXdXdXdXdXdXdXdXdXdXdXdXdXdXdXdX",
"dXdXdXdXdXdXdXdXdXdXdXdXdXdXdXdXdXdXdXdXdXl.=XqX-X).G.v.dXdXdXdXdXdXdXdXdXdXdXdXdXdXdXdXy w dXdXdXdXdXdXdXdXdXdXdXdXdXdXdXdXdXdX",
"dXdXdXdXdXdXdXdXdXdXdXdXdXdXdXdXdXdX4 4 r } /.qX2X$X_.~.m.>.dXdXdXdXdXdXdXdXdXdXdXdXt c.n.) dXdXdXdXdXdXdXdXdXdXdXdXdXdXdXdXdXdX",
"dXdXdXdXdXdXdXdXdXdXdXdXdXdXdXdXdXdXu j. .i } ~.1X:X{.R.i.i.e.3.dXdXdXdXdXdXdXdXdXt b.=X=X| dXdXdXdXdXdXdXdXdXdXdXdXdXdXdXdXdXdX",
"dXdXdXdXdXdXdXdXdXdXdXdXdXdXdXdXdXdXu J..XC.} ) z.(.!.t.=.4.@.o.O.dXdXdXdXdXdXdXw z.$X7X=X:.dXdXdXdXdXdXdXdXdXdXdXdXdXdXdXdXdXdX",
"dXdXdXdXdXdXdXdXdXdXdXdXdXdXdXdXdXdXt D..X%XL. .i [ 3.5.W E U @.X.D dXdXdXdXdX5 2.#X%X=X-X>.dXdXdXdXdXdXdXdXdXdXdXdXdXdXdXdXdXdX",
"dXdXdXdXdXdXdXdXdXdXdXdXdXdXdXdXdXdX4 D..X|.%X%Xc.y j G Y o.o.o.J A Z D dX5 > { R.#X@X=X,X>.dXdXdXdXdXdXdXdXdXdXdXdXdXdXdXdXdXdX",
"dXdXdXdXdXdXdXdXdXdXdXdXdXdXdXdXdXdX, k..X.XF./.%Xn._ b S D D J H J D K Z z A 3.i.~.@X4X<X>.dXdXdXdXdXdXdXdXdXdXdXdXdXdXdXdXdXdX",
"dXdXdXdXdXdXdXdXdXdXdXdXdXdXdXdXdXdXdXj..XoXY.1.Y.Q.i.+.G G H E 5.Y U =.H H U P +.T.@X=X=X:.dXdXdXdXdXdXdXdXdXdXdXdXdXdXdXdXdXdX",
"dXdXdXdXdXdXdXdXdXdXdXdXdXdXdXdXdXdXdX . XoXY.#.X.4.q.9.Q Q 6.7.5.=.7.5.Q 6.5.R %.r.(.>X3X,.dXdXdXdXdXdXdXdXdXdXdXdXdXdXdXdXdXdX",
"dXdXdXdXdXdXdXdXdXdXdXdXdXdXdXdXdXdXdXu G.~.e.X.K W =.6.6.6.6.6.5.7.6.5.7.6.6.7.5.5.t.[.;Xp dXdXdXdXdXdXdXdXdXdXdXdXdXdXdXdXdXdX",
"dXdXdXdXdXdXdXdXdXdXdXdXdXdXdXdXdXdXdXr x.P.+.I %.5.6.=.6.7.=.6.7.=.6.6.6.6.7.6.6.~ 8.!.`.p dXdXdXdXdXdXdXdXdXdXdXdXdXdXdXdXdXdX",
"dXdXdXdXdXdXdXdXdXdXdXdXdXdXdXdXdXdXdXdXj.2.X.I &.*.6.6.6.6.6.6.6.6.6.7.6.6.6.6.6.~ 5.E.Y.dXdXdXdXdXdXdXdXdXdXdXdXdXdXdXdXdXdXdX",
"dXdXdXdXdXdXdXdXdXdXdXdXdXdXdXdXdXdXdXdX_ ..] I Q 5.6.6.6.6.6.6.6.6.6.6.6.6.6.6.8.*.*.y...dXdXdXdXdXdXdXdXdXdXdXdXdXdXdXdXdXdXdX",
"dXdXdXdXdXdXdXdXdXdXdXdXdXdXdXdXdXdXdXdXq ' V I Q 6.6.=.6.6.6.6.6.6.6.6.6.6.6.7.8.*.*.0._ dXdXdXdXdXdXdXdXdXdXdXdXdXdXdXdXdXdXdX",
"dXdXdXdXdXdXdXdXdXdXdXdXdXdXdXdXdXdXdXdXdXv V $.Q 7.7.7.6.6.6.6.6.6.=.7.7.7.7.9.5.6.*.%.dXdXdXdXdXdXdXdXdXdXdXdXdXdXdXdXdXdXdXdX",
"dXdXdXdXdXdXdXdXdXdXdXdXdXdXdXdXdXdXdXdXdXz G I Q 7.7.7.6.6.6.6.6.6.6.7.7.=.Y U =.6.&.$.dXdXdXdXdXdXdXdXdXdXdXdXdXdXdXdXdXdXdXdX",
"dXdXdXdXdXdXdXdXdXdXdXdXdXdXdXdXdXdXdXdXdXj G I I A A %.7.6.6.6.6.6.=.7.9.J 5 6 J 6.8.H dXdXdXdXdXdXdXdXdXdXdXdXdXdXdXdXdXdXdXdX",
"dXdXdXdXdXdXdXdXdXdXdXdXdXdXdXdXdXdXdXdXdXg G $.M % O M 6.6.6.=.=.=.=.=.7.j     v 5.8.U dXdXdXdXdXdXdXdXdXdXdXdXdXdXdXdXdXdXdXdX",
"dXdXdXdXdXdXdXdXdXdXdXdXdXdXdXdXdXdXdXdXdXg F $.g   . 6 W =.=.7.7.9.=.=.-.k X o b 6.7.%.dXdXdXdXdXdXdXdXdXdXdXdXdXdXdXdXdXdXdXdX",
"dXdXdXdXdXdXdXdXdXdXdXdXdXdXdXdXdXdXdXdXdXj G P M - o d L Q q.p.p.a.u.q.w.Y k k R =.6.! J dXdXdXdXdXdXdXdXdXdXdXdXdXdXdXdXdXdXdX",
"dXdXdXdXdXdXdXdXdXdXdXdXdXdXdXdXdXdXdXdXdXN V T P m C A +.e.U.z.| <.R.].'.a.r.0.7.~ ~ ! 8.{ dXdXdXdXdXdXdXdXdXdXdXdXdXdXdXdXdXdX",
"dXdXdXdXdXdXdXdXdXdXdXdXdXdXdXdXdXdXdXdXf n F T ^ ^ +.e.T.`.k.#   e .XuXsX2X[.'.W.t.t.t.E.E.;.dXdXdXdXdXdXdXdXdXdXdXdXdXdXdXdXdX",
"dXdXdXdXdXdXdXdXdXdXdXdXdXdXdXdXdXdXdXdXN $.P I %.r.R.).=X4XD.e # a =XaXaXaXsXwX2X2X:X[.[.[.{.b.dXdXdXdXdXdXdXdXdXdXdXdXdXdXdXdX",
"dXdXdXdXdXdXdXdXdXdXdXdXdXdXdXdXdXdXdX| e.y.E.!.'.1X0XeX9XuX0X@X@X0XpXaXaXaXaXaXaXaXsXsXqXqXqX$Xv.dXdXdXdXdXdXdXdXdXdXdXdXdXdXdX",
"dXdXdXdXdXdXdXdXdXdXdXdXdXdXdXdXdXdXx.~./.;X2XsXiXaXpXiXiXaXaXaXpXaXaXaXaXaXaXaXaXaXiXeX7X5XK.,.dXdXdXdXdXdXdXdXdXdXdXdXdXdXdXdX",
"dXdXdXdXdXdXdXdXdXdXdXdXdXdXdXdXdXdXM.H..X4XyXyXpXiXiXuXiXiXaXaXaXiXiXiXiXiXiXaXaXiX9X4X*XF.` dXdXdXdXdXdXdXdXdXdXdXdXdXdXdXdXdX",
"dXdXdXdXdXdXdXdXdXdXdXdXdXdXdXdXdXdXdXd.Z. X%X&X6X8XtXuXuXuXuXiXiXuXuXuXiXuXuXiXiXtX7XXXc.' 9 dXdXdXdXdXdXdXdXdXdXdXdXdXdXdXdXdX",
"dXdXdXdXdXdXdXdXdXdXdXdXdXdXdXdXdXdXdXdXd.M.H.}..X%X5XeXeX9XeXeXeXtXeXuXtXtXtXuXrX6XJ.<.' k 9 dXdXdXdXdXdXdXdXdXdXdXdXdXdXdXdXdX",
"dXdXdXdXdXdXdXdXdXdXdXdXdXdXdXdXdXdXdXdXdXs.M.Z.|.|.+X6X5X7X7X7X8X8X8X8X7XrX7X7X*XD...n C f dXdXdXdXdXdXdXdXdXdXdXdXdXdXdXdXdXdX",
"dXdXdXdXdXdXdXdXdXdXdXdXdXdXdXdXdXdXdXdXdXdXdXg.S.Z.A.}.+X*X&X4X&X&X&X&X*X*X*X+Xx.[ n m z 6 dXdXdXdXdXdXdXdXdXdXdXdXdXdXdXdXdXdX",
"dXdXdXdXdXdXdXdXdXdXdXdXdXdXdXdXdXdXdXdXdXdXdXdXs g.S.S.A.}. XXX+XXXXXXXXXJ.XXD...V T S g ; dXdXdXdXdXdXdXdXdXdXdXdXdXdXdXdXdXdX",
"dXdXdXdXdXdXdXdXdXdXdXdXdXdXdXdXdXdXdXdXdXdXdXdX, t s s.h.M.V.Z.L.H.L.Z.C.H.J.n.#.K U A 6 & dXdXdXdXdXdXdXdXdXdXdXdXdXdXdXdXdXdX",
"dXdXdXdXdXdXdXdXdXdXdXdXdXdXdXdXdXdXdXdXdXdXdXdXdX> 8 u s.h.M.M.M.V.V.V.B.A.+X~.3.Q R b - O dXdXdXdXdXdXdXdXdXdXdXdXdXdXdXdXdXdX",
"dXdXdXdXdXdXdXdXdXdXdXdXdXdXdXdXdXdXdXdXdXdXdXdXdX< f y s.S.V.V.M.V.V.A.A.+XoXI.0.5.U g % + dXdXdXdXdXdXdXdXdXdXdXdXdXdXdXdXdXdX",
"dXdXdXdXdXdXdXdXdXdXdXdXdXdXdXdXdXdXdXdXdXdXdXdXdX4 j M (  .k.D.A.Z.V.+X+X.Xc.3.-.W Z 0 dXdXdXdXdXdXdXdXdXdXdXdXdXdXdXdXdXdXdXdX",
"dXdXdXdXdXdXdXdXdXdXdXdXdXdXdXdXdXdXdXdXdXdXdXdXdXdXl G B v [ <.|.XX|.OXD.>.[ H J m q dXdXdXdXdXdXdXdXdXdXdXdXdXdXdXdXdXdXdXdXdX",
"dXdXdXdXdXdXdXdXdXdXdXdXdXdXdXdXdXdXdXdXdXdXdXdXdXdX9 P K V S ] <.c.C.dXp c N G n 9 dXdXdXdXdXdXdXdXdXdXdXdXdXdXdXdXdXdXdXdXdXdX",
"dXdXdXdXdXdXdXdXdXdXdXdXdXdXdXdXdXdXdXdXdXdXdXdXdXdXdXJ &.U Y K J ( dXdXdX7 z n h 4 dXdXdXdXdXdXdXdXdXdXdXdXdXdXdXdXdXdXdXdXdXdX",
"dXdXdXdXdXdXdXdXdXdXdXdXdXdXdXdXdXdXdXdXdXdXdXdXdXdXdXM &.&.E R J h dXdX3 6 h k 7 4 dXdXdXdXdXdXdXdXdXdXdXdXdXdXdXdXdXdXdXdXdXdX",
"dXdXdXdXdXdXdXdXdXdXdXdXdXdXdXdXdXdXdXdXdXdXdXdXdXdXdXc P &.I K S 6 dXdX= > 7 7 5 dXdXdXdXdXdXdXdXdXdXdXdXdXdXdXdXdXdXdXdXdXdXdX",
"dXdXdXdXdXdXdXdXdXdXdXdXdXdXdXdXdXdXdXdXdXdXdXdXdXdXdXq M I J G N < dXdX@ ; > > 4 dXdXdXdXdXdXdXdXdXdXdXdXdXdXdXdXdXdXdXdXdXdXdX",
"dXdXdXdXdXdXdXdXdXdXdXdXdXdXdXdXdXdXdXdXdXdXdXdXdXdXdXdXf S B m z > dXdXo & ; ; , dXdXdXdXdXdXdXdXdXdXdXdXdXdXdXdXdXdXdXdXdXdXdX",
"dXdXdXdXdXdXdXdXdXdXdXdXdXdXdXdXdXdXdXdXdXdXdXdXdXdXdXdX6 z b z f ; dXdXO o & & = dXdXdXdXdXdXdXdXdXdXdXdXdXdXdXdXdXdXdXdXdXdXdX",
"dXdXdXdXdXdXdXdXdXdXdXdXdXdXdXdXdXdXdXdXdXdXdXdXdXdXdXdX< 7 7 1 > - dXdX@ o * * dXdXdXdXdXdXdXdXdXdXdXdXdXdXdXdXdXdXdXdXdXdXdXdX",
"dXdXdXdXdXdXdXdXdXdXdXdXdXdXdXdXdXdXdXdXdXdXdXdXdXdXdXdX= < < & = % dXdXdX$ @ dXdXdXdXdXdXdXdXdXdXdXdXdXdXdXdXdXdXdXdXdXdXdXdXdX",
"dXdXdXdXdXdXdXdXdXdXdXdXdXdXdXdXdXdXdXdXdXdXdXdXdXdXdX@ % & - & * o dXdXdXdXdXdXdXdXdXdXdXdXdXdXdXdXdXdXdXdXdXdXdXdXdXdXdXdXdXdX",
"dXdXdXdXdXdXdXdXdXdXdXdXdXdXdXdXdXdXdXdXdXdXdXdXdXdXdX= % % % % * O dXdXdXdXdXdXdXdXdXdXdXdXdXdXdXdXdXdXdXdXdXdXdXdXdXdXdXdXdXdX",
"dXdXdXdXdXdXdXdXdXdXdXdXdXdXdXdXdXdXdXdXdXdXdXdXdXdXdX2 % % % + + dXdXdXdXdXdXdXdXdXdXdXdXdXdXdXdXdXdXdXdXdXdXdXdXdXdXdXdXdXdXdX",
"dXdXdXdXdXdXdXdXdXdXdXdXdXdXdXdXdXdXdXdXdXdXdXdXdXdXdXdXdXdXdXdXdXdXdXdXdXdXdXdXdXdXdXdXdXdXdXdXdXdXdXdXdXdXdXdXdXdXdXdXdXdXdXdX",
"dXdXdXdXdXdXdXdXdXdXdXdXdXdXdXdXdXdXdXdXdXdXdXdXdXdXdXdXdXdXdXdXdXdXdXdXdXdXdXdXdXdXdXdXdXdXdXdXdXdXdXdXdXdXdXdXdXdXdXdXdXdXdXdX"
};
