/* XPM */
static char * door_1_xpm[] = {
"128 128 22 1",
" 	c #3B3B3B",
".	c #007373",
"+	c #006F6F",
"@	c #000001",
"#	c #4B4B4B",
"$	c #007777",
"%	c #007B7B",
"&	c #008787",
"*	c #007F7F",
"=	c #23B3B3",
"-	c #4BC3C3",
";	c #008F8F",
">	c #00A7A7",
",	c #009B9B",
"'	c #005B5B",
")	c #23B7B7",
"!	c #77CBCB",
"~	c #9FDFDF",
"{	c #BBEBEB",
"]	c #DBF7F7",
"^	c #009F9F",
"/	c #575757",
"                                                                                                                                ",
"                                                                                                                                ",
"  .+++++++++++++++++++++++++++++++++++++++++++++++++++++++@@@@@@@@@@@@.+++++++++++++++++++++++++++++++++++++++++++++++++++++++# ",
"  .$$$$$$$$$$$$$$$$$$$$$$$$$$$$$$$$$$$$$$$$$$$$$$$$$$$$$$$@@@@@@@@@@@@.$$$$$$$$$$$$$$$$$$$$$$$$$$$$$$$$$$$$$$$$$$$$$$$$$$$$$$$# ",
"  .%%%%%%%%%%%%%%%%%%%%%%%%%%%%%%%%%%%%%%%%%%%%%%%%%%%%%%$@@@@@@@@@@@@.%%%%%%%%%%%%%%%%%%%%%%%%%%%%%%%%%%%%%%%%%%%%%%%%%%%%%%$# ",
"  .&&&&&&&&&&&&&*=-&&&&&&&&&&*=-&&&&&&&&&&*=-&&&&&&&&&&&&%@@@@@@@@@@@@.&&&&&&&&&&&&&*=-&&&&&&&&&&*=-&&&&&&&&&&*=-&&&&&&&&&&&&%# ",
"  .&&&&&&&&&&&&*$;>&&&&&&&&&*$;>&&&&&&&&&*$;>&&&&&&&&&&&&%@@@@@@@@@@@@.&&&&&&&&&&&&*$;>&&&&&&&&&*$;>&&&&&&&&&*$;>&&&&&&&&&&&&%# ",
"  .,,,,,,,,,,,;*$+*,,,,,,,,;*$+*,,,,,,,,;*$+*,,,,,,,,,;;;&@@@@@@@@@@@@.,,,,,,,,,,,;*$+*,,,,,,,,;*$+*,,,,,,,,;*$+*,,,,,,,,,,,,&  ",
"  .>>>>>>>>>>>;***;>>>>>>>>;***;>>>>>>>>;***;>>>>>>>>;;;;&@@@@@@@@@@@@.>>>>>>>>>>>;***;>>>>>>>>;***;>>>>>>>>;***;>>>>>>>>>>>>&  ",
"  .>>>>>>>>>>>,;;;,>>>>>>>>,;;;,>>>>>>>>,;;;,>>>>>>>;;;;;&@@@@@@@@@@@@.>>>>>>>>>>>,;;;,>>>>>>>>,;;;,>>>>>>>>,;;;,>>>>>>>>>>>>&  ",
"  .=========,+''''''''''''''''''''''''''''''''''.,,;;;;;;;@@@@@@@@@@@@.=========,+''''''''''''''''''''''''''''''''''.========,  ",
"  .=========-,''''''''''''''''''''''''''''''''''.,;;;;;;;;@@@@@@@@@@@@.=========-,''''''''''''''''''''''''''''''''''.========,  ",
"  .=========--;;&&&&*&****%%%..$$$+...$$.$$%%%%'.;;;;;;;;;@@@@@@@@@@@@.=========--*****;;;;;;;;;,,,,,,===========-='.========,  ",
"  .=========--;&&&&*&****%%%..$$$+...$$.$$%%%%%'.;;;;;;;;;@@@@@@@@@@@@.=========-->,>====)==)))--)----!!!!~!!~~~{{~'.========,  ",
"  .===>~]===--;&&&&*&***%%%..%$$+......$$%$$%%%'.;&&*=-;;;@@@@@@@@@@@@.===>~]===-->>>>>====))))))-----!!!!~!~~~~~~~'.===>~]==,  ",
"  %===;)~===--&&&&****%*%%..$$$++....$$$$%$%%%%'.;&*+;>;;;@@@@@@@@@@@@%===;)~===-->>======)))-)----!!!!!!~~~~~{~{{~'.===;)~==,  ",
"  %==>*;,===--&&*&****%%%..%$$+...$$$$$%%%%%**%'.;;*++*;;;@@@@@@@@@@@@%==>*;,===--====)=))))--)---!!!!!~!~~~~{{~{{~'.==>*;,==,  ",
"  .=>>,;>===--&&&&****%%..%$$.....$.$$%$$%%%**%'.;;***;;,,@@@@@@@@@@@@.=>>,;>===--=>====))))-)-----!!!!!!~~~~~~{{{~'.=>>,;>==,  ",
"  .==>>>====--&*****%%%..$$$$.....$$$$$$%%%****'.;;;;;;,,,@@@@@@@@@@@@.==>>>====--=>===)))))----!-!!!!~~~~~~~{{{{{-'.==>>>===,  ",
"  .=========--**%**%%%..%$$$...$.$$$$%%%%****&*'.;;;;;,,>,@@@@@@@@@@@@.=========--=))))))------!!!!!~~~~~~{{{{{{{{-'.========,  ",
"  .=========--&****%%..%$$....$$.$$%$%%%%***&&*'.;;;;,,>>,@@@@@@@@@@@@.=========--===))))-)----!!!!~!!~~~~{~{{{~~~-'.========,  ",
"  .=========--***%%%..$$$$......$$%$$%%%%*****&'.;;;,,>>=,@@@@@@@@@@@@.=========--==)))))------!!!!~!~~~~~{{{{{~~~-'.========,  ",
"  .=========--**%%%..$$$$.....$$$$%$%%**%***&&&'.;;,,>>==,@@@@@@@@@@@@.=========--))))-)----!!!!!!~~~~~{~{{{{{{~{~)'.========,  ",
"  .=========--*%%%..%$$....$$$$$%%%%%%***&&&&&&'.;,,>>===,@@@@@@@@@@@@.=========--)))--)----!!!!~!~~~~{{~{{{{~~~~~,'.========,  ",
"  .=========--%%%..%$$$$...$.$$%$$%%%****&*&&&&'.,,>>====,@@@@@@@@@@@@.=========--)))))-----!!!!!!~~~~~~{{{{~~~!!!,'.========,  ",
"  .=========--%%..$$$$.....$$$$$$%%%*****&&&&&&'%,>>====>,@@@@@@@@@@@@.=========--)))----!-!!!!~~~~~~~{{{{{~~{~!~!,'%========,  ",
"  .=========--%..%$$....$$$$$$%%%%%***&*&&&&;;;'%>>====>^,@@@@@@@@@@@@.=========--------!!!!!~!~~~~{{{{{{{~~~~~!!!,'%========,  ",
"  .=========--..%$$....$$.$$%$%%%****&&*&&&&;,;'.>====>^>,@@@@@@@@@@@@.=========---)-----!!!~!!~~~~{~{{{{~{~!~!!!!;'.========,  ",
"  .=========--.$$$$......$$$$$%%%**%***&&&&&;;;'.====>^>=,@@@@@@@@@@@@.=========--------!!!!~!~~~~~{{{{{~~{~!~!!-!;'.========,  ",
"  .=========--$$$....$.$$$$%%%%%*****&&&&;;;;;;'.===>^>==,@@@@@@@@@@@@.=========-----!!!!!~~~~~~{{{{{{{~~~~~~!!-!!;'.========,  ",
"  .===>~]===--$$....$$.$$%%%%%****&&&&&&;;,,,,;'.==>>~]==,@@@@@@@@@@@@.===>~]===-----!!!!~!!~~~{{~{{{{{{~~~!!!!-!-;'.===>~]==,  ",
"  .===;)~===--$$....$.$$%$$%%%****&*&&&&&;;;,,,'+=>^;)~==,@@@@@@@@@@@@.===;)~===-----!!!!!!~~~~~~{{{~~~~~!!!!-----;'+===$)~==,  ",
"  .===*;,==>--$.....$$$$%$%%%%****&&&&&;;;;,,,,'+>^>*;,==,@@@@@@@@@@@@.==>*;,===--!-!!!!~~~~~{~{{{{{~~~~!~!!-!!---&'+==>+$,==,  ",
"  .====>>=>>--...$$$$$$%%%%**%*&&&&&&;;;,,,,,>,'+^^>,;>==,@@@@@@@@@@@@.=>>,;>===--!!!!~!~~~~{{~{{{{{{~~~!!!!!!----;'+=>>,;>==,  ",
"  .======>>,--..$$.$$%$%%%%**%&&*&&&&;;;;,,,>>,'+^>>>>===,@@@@@@@@@@@@.==>>>====--!!!~!!~~~~{~{{{{~~~~!!!!!-----)-&'+==>>>===,  ",
"  .=====>>,,--....$$$$$%%%******&&&&;;;;;;,,,,>'+>=======,@@@@@@@@@@@@.=========--!!!~!~~~~~{{{{{~~~!!~!!-!----))-&'+========,  ",
"  .====>>,,;--$.$$$$%%%%****&*&&&&;;;,,,,,,,>>>'+========,@@@@@@@@@@@@.=========--!~~~~~~{{{{{{{{{{~~~!!!!!----)-)&'+========,  ",
"  .===>>,,;;--$.$$%%%%%%***&&*&&&;;;;;,,,>>>>>>'+========,@@@@@@@@@@@@.=========--~!!~~~{{~{{{~~~~~~!!!!------))))&'+========,  ",
"  .==>>,,;;;--.$$%$$%%%%***&*&&&&;,;;,,,,>,>>>>'+========,@@@@@@@@@@@@.=========--~!~~~~~~{{{{~~~!!~!!------)))=))&'+========,  ",
"  .=>>,,;;;;--$$$%$%%%*%***&&&&;&;,;,,,,,>>>>>>'+========,@@@@@@@@@@@@.=========--~~~~{~{{{{{{~{~!~!!-!!----)-)=))&'+========,  ",
"  .>>,,;;;;;--$%%%%%%***&&&&&&;;;;;,,,>>>>>>==='+========,@@@@@@@@@@@@.=========--~~~{{~{{{{~~~~~!!!!-!-----)))===&'+========,  ",
"  %>,,;;;;;;--%$$%%%***&&*&&&&;,;;,;,>>,>>>>==='+========,@@@@@@@@@@@@%=========--~~~~~{{{{~{~!!!!!!-----)-)=))===*'+========,  ",
"  %,,;;;;;;;--$$%%%******&&&&&;;;,,,,,,>>>>>==='+========,@@@@@@@@@@@@%=========--~~~{{{{{~~{~!~!!-!----))-)=))===*'+========,  ",
"  .,;;;;;;;;-!%%%%***&*&&&&;;;;;,,,>,>>>>======'+========,@@@@@@@@@@@@.=========-!{{{{{{{~~~~~~!!!!!----)))))=====*'+========,  ",
"  .;;;;;;;;;!~%%****&&*&&&;;,;,,,,>>,>>>====))='+========,@@@@@@@@@@@@.=========!~{~{{{{~{~!~!!!!-------)=))===>>>*'+========,  ",
"  .;;;;;;;;;~~%%**%***&&&&&;;;,,,,>,>>>>>===))='+========,@@@@@@@@@@@@.=========~~{{{{{~~{~!~!!------))))=)===>>>>*'+========,  ",
"  .;&&*=-;;;~~%*****&&&&;;;;;;,,,,>>>>=>====)))'+===>~]==,@@@@@@@@@@@@.===>~]===~~{{{{~~~~~~!!-!!----)-)))=====>>>*'+===>~]==,  ",
"  +;&*+;>;;;{{***&&&&&&;;,,,,,,>>>>>>====))))-)''===;)~==,@@@@@@@@@@@@+===;)~==={{{{{{{~~~!!!!-!-----)))))==>=>>>>*''==,+)~==,  ",
"  +;;*++*;;,{{***&*&&&&&;;;,,,>>,>>>>====))=-))''==>*;,==,@@@@@@@@@@@@+==>*;,==={{{~~~~~!!!!------))))=====>>>>>,,*''==;+$,==,  ",
"  +;;***;;,,{{***&&&&&;;;;,,,,,,>>>>>====)))-)-''=>>,;>==,@@@@@@@@@@@@+=>>,;>==={{{~~~~!~!!-!!---)))=))====>>>>,>>*''=>;;;>=>,  ",
"  +;;;;;;,,>{{&*&&&&;;;,,,,,>,>>>>====))))-----''==>>>===,@@@@@@@@@@@@+==>>>===={{{{{~~!!!!!!------))))====>>>>,>,*''==>>>=>>,  ",
"  +;;;;;,,>>{{&*&&&&;;;;,,,>>,>>>=====))))))---''========,@@@@@@@@@@@@+========={{~~~~!!!!-----)-)))====>>>>>>,,,,*''=====>>,,  ",
"  +;;;;,,>>={{&&&&&;;;;;;,,,,>>>>>=====))))----''========,@@@@@@@@@@@@+========={{~!!~!!-!----))-=))===>>>>>,>,,,,.''====>>,,;  ",
"  +;;;,,>>=={{&&&;&;,,,,,,,>>>>=>===))))-----!-''========,@@@@@@@@@@@@+========={{~~~!!-!!----)-))))====>>>>>>,;,,*''===>>,,;;  ",
"  +;;,,>>===~~&&&;;;;,,,>>>>>>=====)))-)----!!-''========,@@@@@@@@@@@@+=========~~~!!!!-!----))))====>=>>>>,,,,;;;.''==>>,,;;;  ",
"  +;,,>>====~!&&&;;;,,,,>,>>>>>===)=)-))----!-!''========,@@@@@@@@@@@@+=========~!~!!------)))=))===>>>>>,,,,,,;;;+''=>>,,;;;;  ",
"  +,,>>=====!!;;;;;,,,,,>>>>>>===))=)-)-----!!!''========,@@@@@@@@@@@@+=========!!!!-!!---))-)=))====>>>,>>,,,,;,;+''>>,,;;;;;  ",
"  +,>>======!!;,,,,;,>,>>>>=====)))))----!!!!!!''========,@@@@@@@@@@@@+=========!!-!-!------))======>>>>,>,,,;;;;;+''>,,;;;;;;  ",
"  +>>=======!!;;;,,,,>,>>>>===))=)-))---!!-!!~!''========,@@@@@@@@@@@@+=========!!------)-)=))===>>>>>,,,,,,;,;&&&+'',,;;;;;;;  ",
"  +>========!!;;,,,,,>>>>>>===))=)-)------!!!!!''========,@@@@@@@@@@@@+=========!!-----))-)=)====>>>>,>>,;,;;,;&&&+'',;;;;;;;;  ",
"  +=========!!,,,,>,>>>>=>====)))-----!-!!!!~~~''========,@@@@@@@@@@@@+=========!!!----)))))=====>>>>>>,,,;;;;;&&&+'';;;;;;;;;  ",
"  +=========!!,,,>>,>>>>===))=)-)----!!-!!~~~{~''========,@@@@@@@@@@@@+=========!!-----)=))===>=>>>>,,,,,;,;&;&&&&+'';;;;;;;;;  ",
"  +===>~]===!!,,,,,>>>>>===))=)))------!!~!!~~~''===>~]==,@@@@@@@@@@@@+===>~]===!!--))))=)===>>>>>,>,,,,;;,;&&&&**+'';&&*=-;;;  ",
"  '===;)~===!!,>,>>>>=>==)=))))------!!!!~~~~~~''===;)~==,@@@@@@@@@@@@'===;)~===!!----)))=====>>>,>>,,,;;;;;&&&*&&+'';&*+;>;;;  ",
"  '==>*;,===!!>>,>>>=====)))------!!!!!~~~{{{{{''==>*;,==,@@@@@@@@@@@@'==>*;,===!!-))))=)==>=>>>>,>,,,,,;;;&&&&*&*+'';;*++*;;,  ",
"  '=>>,;>===!!>,>>>>>===)=))))----!-!!~!!~~~{{{''=>>,;>==,@@@@@@@@@@@@'=>>,;>===!!))=))===>>>>>,,,,,;;;;;&&&&*****+'';;***;;,,  ",
"  '==>>>====!!>>>>=>===))=)-------!!!!!~~~~{{{{''==>>>===,@@@@@@@@@@@@'==>>>====!!-)=))===>>>>,>>,,,;;;;&&&&*&&%**+'';;;;;;,,,  ",
"  '=========!!>>>=====)))))----!-!!!!~~~{{{{{{~''========,@@@@@@@@@@@@'=========!!))====>=>>>>,>,,,,,,;;&&&&&&*%**+'';;;;;,,>,  ",
"  '=========!!>>>====)=)-))----!-!!~!~~~~{{{{{~''========,@@@@@@@@@@@@'=========!!))===>>>>>>,,,,,;;;;;&&&&****%%%+'';;;;,,>>,  ",
"  '=========!!>>>===))=)-)-----!!!~!~~~~~{{{~~~''========,@@@@@@@@@@@@'=========!!))===>>>>,>,,,,;;;&&&&&*&****%%%+'';;;,,>>=,  ",
"  '=========!!======))------!-!!!!~!~{{{{{{~{{~''========,@@@@@@@@@@@@'=========!!=====>>>>,>,;,,,,;;&&&*&&****%%%+'';;,,>>==,  ",
"  '=========!!===))=)-))---!!-!!~!~~~~{{{{{{{~~''========,@@@@@@@@@@@@'=========!!==>>>>>>,,,,,;;;;;&&&&*&***%%%%%+'';,,>>===,  ",
"  '=========!!===))=)))------!!~!!~~~{{{{{~~~~~''========,@@@@@@@@@@@@'=========!!=>>>>>,>,,,,;;;&&&&&***%%*%%%$$$+'',,>>====,  ",
"  '=========!!===))))----!-!!!!~~~~~{{{{~{~~~~!''========,@@@@@@@@@@@@'=========!!==>>>>>>,,,;;;;&&&&*&&***%%%%$%$+'',>>====>,  ",
"  '=========!!))))-)----!!-!!~~~{{{{{{{~{{~~~~!''========,@@@@@@@@@@@@'=========!!=>>>>,,,,,,,;&;&&&&*&***%%%%%$$$+''>>====>^,  ",
"  '=========!!))=-))----!-!!~!!~~~{{{{{~{~~~~~!''========,@@@@@@@@@@@@'=========!!>>>,,,,;;;;;;&&&&&*****%%%$%$$$$+''>====>^>,  ",
"  '=========!!)))-)-----!!!!~~~~~{{{{~{~~~~!!!!''========,@@@@@@@@@@@@'=========!!>>,>>,,,;;;;&&&&*&****%%%$$%$$.$+''====>^>=,  ",
"  '=========!!)------!!!!!!~~{{{{{{{~{{~~~!!~!!''========,@@@@@@@@@@@@'=========!!>>,>,,,,,;;;&&&&*&***%%%%%%$$.$$+''===>^>==,  ",
"  '===>~]===!!)))---!!-!!~!~~~~{{{{{~{~~~~~~!!!''===>~]==,@@@@@@@@@@@@'===>~]===!!,,,,,,;;;;&&&&&****%*%%$%$$$$.$.+''==>>~]==,  ",
"  '===;)~===!!))------!!!!~~~~~{{{~~~~~~!!!!!!-''===;)~==,@@@@@@@@@@@@'===;)~===!!>>,,,;;;&&&&&*&****%%%$$%$$.....+''=>^;)~==,  ",
"  '==>*;,===!!----!-!!!!~~~{{{{{{~{{~~~!!~!!!--''==>*;,==,@@@@@@@@@@@@'==>*;,===!!>,,,,,,;;&&&&&&****%%%$%$$.$$...+''>^>*;,==,  ",
"  '=>>,;>===!!---!!-!!~~~~~~{{{{{~{~~~~~~!!!!!-''=>>,;>==,@@@@@@@@@@@@'=>>,;>===!!,,;;;;;;&&&&*****%%%$%$$$$.$...$+''^^>,;>==,  ",
"  '==>>>====!!-----!!~!~{~~{{{{{~~~~~!~!!!!----''==>>>===,@@@@@@@@@@@@'==>>>====!!,,;;;&&&&&***%**%%%$$%$$$.....$$+''^>>>>===,  ",
"  '=========!!---!!!!~!~{~{{{{~{~~~~!!~!!!-----''========,@@@@@@@@@@@@'=========!!,,;,;;&&&*&&****%%%$%$$.$.....$$+''>=======,  ",
"  '=========!!!!!!!~~~~~~{{{{{{{~~~~~~!!!!!----''========,@@@@@@@@@@@@'=========!!;;;;;&&&&*&***%%%%%$$$$.$....$$%+''========,  ",
"  '=========!!!-!!~!~{~~{{{{{~~~~~~~!!!!-!----)''========,@@@@@@@@@@@@'=========!!;;&&&&&******%%%$$$$$$.....$$$$.+''========,  ",
"  '=========!!!!!!!!~{~{{{{~~~~~~!!!!!!-----)))''========,@@@@@@@@@@@@'=========!!,;&&&&*&&***%%%$$%$$.$....$$$%..+''========,  ",
"  '=========!!!!!~~~~~{{{{~{{~~~~!~!!!!!---)--)''========,@@@@@@@@@@@@'=========!!;;&&&&&&***%%%%%%$$$$$....$$%..%+''========,  ",
"  '=========!!!~!~{~{{{{{{~{~~~~~!!!!!!----)-))''========,@@@@@@@@@@@@'=========!!;&&&&***%*%%%$%$$$$.....$$$$..%%+''========,  ",
"  '=========!!~!!~~~{{{{~~~~~~!~!!!!-----))))))''========,@@@@@@@@@@@@'=========!!&&&*&***%%%%$$%$$.....$$$$$..%%%+''========,  ",
"  '=========!!~~~~~~{{{~{{~~~!!~!!!!----)--)))=''========,@@@@@@@@@@@@'=========!!&&*&&***%%%%%%$$.$$....$$%..%%**+''========,  ",
"  '=========!!~{{{{{{{{{{~~~~~~!!!!!------)))))''========,@@@@@@@@@@@@'=========!!&&*&****%%%%$$$$.$....$$$..%%%**+''========,  ",
"  '=========!!~~~{{{{{~~~~~!~!!!!-!----)))))===''========,@@@@@@@@@@@@'=========!!******%%%$$$$$......$$$$..%%%***+''========,  ",
"  '=========!!~~{{{{~{~~~~!!~!!!-----)-))))====''========,@@@@@@@@@@@@'=========!!&&%**%%%%$%$$.$$....$$%..%%****&+''========,  ",
"  '===>~]===!!{{{{{~{{~~~~!~!!!!!---)--))))=)==''===>~]==,@@@@@@@@@@@@'===>~]===!!&*%**%%%%$$$$$$....$$%..%%%****&+''===>~]==,  ",
"  '===;)~===!!{{{{{~{~~~~~!!!!-!----)-)))======''===;)~==,@@@@@@@@@@@@'===;)~===!!**%%%%$%$$$$.....$$$$..%%%%****&+''===;)~==,  ",
"  '==>*;,===!!{{{~~~~~~!!!!!!-----))))))====>>>''==>*;,==,@@@@@@@@@@@@'===*;,==>!!**%%%$$%$$.$....$$$$..%%**%*&&&&+''==>*;,==,  ",
"  '=>>,;>===!!{{~{{~~~!!~!!!!----)--)))==)====>''=>>,;>==,@@@@@@@@@@@@'====>>=>>!!**%%%%%$$.$$....$$%..%%%**%&&*&&+''=>>,;>==,  ",
"  '==>>>====!!{{{{~~~~~~!!!!!----)-)))======>>>''==>>>===,@@@@@@@@@@@@'======>>,!!%%%%%$$$$.$....$$$..%%%******&&&+''==>>>===,  ",
"  '=========!!{~~~~~!~!!!!------)))))=)===>>>>>''========,@@@@@@@@@@@@'=====>>,,!!%%$$$$$......$$$$..%%****&*&&&&;.''========,  ",
"  '=========!!{~~~~!!~!!!-----)-))))==)===>>,>,''========,@@@@@@@@@@@@'====>>,,;!!%%$%$$.$$....$$%..%%%***&&*&&&;;.''========,  ",
"  '=========!!{~~~~!~!!!!!------)))======>>>>>,''========,@@@@@@@@@@@@'===>>,,;;!!%%$$$$$$....$$%..%%%%***&*&&&&;,.''========,  ",
"  '=========!!~~~~~!!!!-!----)))))))===>>=>>>,,''========,@@@@@@@@@@@@'==>>,,;;;!!$$$$$.....$$$$..%%%*%***&&&&;&;,.''========,  ",
"  '=========!!~~!!!!!!-----))))))===>==>>,,>,,,''========,@@@@@@@@@@@@'=>>,,;;;;!!%$$.$...$$$$%..%%%***&&&&&&;;;;;*''========,  ",
"  '=========!!~~!~!!!!----)--)))====>=>>>>>,,,;''========,@@@@@@@@@@@@'>>,,;;;;;!!$$$$$....$$%..%%%***&&*&&&&;,;;,.''========,  ",
"  '=========!!~~!!!!!!----)-)))))===>=>>>>,,,,,''========,@@@@@@@@@@@@'>,,;;;;;;!!$$.....$$$$..%%%******&&&&&;;;,,*''========,  ",
"  '=========!!~!!!!------)))))======>>>,,,,,;,;''========,@@@@@@@@@@@@',,;;;;;;;!!......$$$$..%%%***&*&&&&;;;;;,,,*''========,  ",
"  '=========!!~!!!!----)-))))====>=>>>>,,,,;;,;''========,@@@@@@@@@@@@',;;;;;;;;!!$$....$$%..%%****&&*&&&;;,;,,,,>*''========,  ",
"  '=========!!!!!!!------))))))=====>>>,,,,,,;;''========,@@@@@@@@@@@@';;;;;;;;;!!$...$$$%..%%%**%***&&&&&;;;,,,,>*''========,  ",
"  '=========!!!!-!----)))))===>==>>>,>,,,,,;;;;''========,@@@@@@@@@@@@';;;;;;;;;!!...$$$$..%%%*****&&&&;;;;;;,,,,>*''========,  ",
"  '===>~]===!!!-----)-))))====>=>>>>,,,,;;;;;;&''===>~]==,@@@@@@@@@@@@';&&*=-;;;!!...$$%..%%****&&&&&&;;,,,,,,>>>>*''===>~]==,  ",
"  '===;)~===!!!!---)--))))=)====>,>>,,,,;,;;;;;''===;)~==,@@@@@@@@@@@@';&*+;>;;;!!.+$$%..%%%****&*&&&&&;;;,,,>>,>>*''===;)~==,  ",
"  '==>*;,===!!!----)-)))======>>>,>,,,,,;;;;;;&''==>,;,==,@@@@@@@@@@@@';;*++*;;,!!+$$$..%%*%****&&&&&;;;;,,,,,,>>>*''==>,;,==,  ",
"  '=>>,;>===!!---))))))====>>>>>>,,,,;,;;;;&&&&''=>>,,>==,@@@@@@@@@@@@';;***;;,,!!$$%..%%%***&*&&&&;;;,,,,,>,>>>>=*''=>>,,>==,  ",
"  '==>>>====!!--)--)))==)====>,>>,,,;;,;;;;&;&&''==>>>===,@@@@@@@@@@@@';;;;;;,,>!!$$..%%%****&*&&&&;;;;,,,>>,>>>==;''==>>>===,  ",
"  '=========!!!!!!!!!!!!!!!!!!!!!!!!!!!!!!!!!))%'========,@@@@@@@@@@@@';;;;;,,>>!!!!!!!!!!!!!!!!!!!!!!!!!!!!!!!!!))%'========,  ",
"  '=========!!!!!!!!!!!!!!!!!!!!!!!!!!!!!!!!!)),%========,@@@@@@@@@@@@';;;;,,>>=!!!!!!!!!!!!!!!!!!!!!!!!!!!!!!!!!)),%========,  ",
"  '======================================================,@@@@@@@@@@@@';;;,,>>===============================================,  ",
"  '======================================================,@@@@@@@@@@@@';;,,>>================================================,  ",
"  '======================================================,@@@@@@@@@@@@';,,>>=================================================,  ",
"  '============>~]==========>~]===========>~]============,@@@@@@@@@@@@',,>>========>~]==========>~]===========>~]============,  ",
"  '============;)~==========;)~===========;)~============,@@@@@@@@@@@@',>>=========;)~==========;)~===========;)~============,  ",
"  '===========>*;,=========>*;,==========>*;,============,@@@@@@@@@@@@'>>=========>*;,=========>*;,==========>*;,============,  ",
"  '>=========>>,;>========>>,;>=========>>,;>============,@@@@@@@@@@@@'>=========>>,;>========>>,;>=========>>,;>============,  ",
"##'===========>>>==========>>>===========>>>=============,@@@@@@@@@@@@'===========>>>==========>>>===========>>>=============,##",
"##'======================================================;@@@@@@@@@@@@'======================================================;##",
"////////////////////////////////////////////////////////##           @ ##///////////////////////////////////////////////////////",
"////////////////////////////////////////////////////////##            ##////////////////////////////////////////////////////////"};
