/* XPM */
static char *result[] = {
/* columns rows colors chars-per-pixel */
"64 64 224 2 ",
"   c #05090D",
".  c #121213",
"X  c #2A1E17",
"o  c #3C2617",
"O  c #38281A",
"+  c #37331E",
"@  c #373C21",
"#  c #2D2928",
"$  c #442A1A",
"%  c #4B2C1A",
"&  c #452817",
"*  c #47331E",
"=  c #56321C",
"-  c #5B341E",
";  c #512A0C",
":  c #63391E",
">  c #6F3A1D",
",  c #773C1D",
"<  c #443C21",
"1  c #573C28",
"2  c #6A3C23",
"3  c #723E23",
"4  c #394C27",
"5  c #484727",
"6  c #59482A",
"7  c #565236",
"8  c #594937",
"9  c #674627",
"0  c #784727",
"q  c #7A572F",
"w  c #685538",
"e  c #735D33",
"r  c #61473C",
"t  c #5B5450",
"y  c #685843",
"u  c #775341",
"i  c #78675A",
"p  c #71644C",
"a  c #6F6B6A",
"s  c #577465",
"d  c #91441C",
"f  c #A44D1F",
"g  c #8B4D2A",
"h  c #854927",
"j  c #954C26",
"k  c #8C522D",
"l  c #9C532C",
"z  c #97522C",
"x  c #985834",
"c  c #88563B",
"v  c #A3552D",
"b  c #A95629",
"n  c #B55B2C",
"m  c #B85A2B",
"M  c #AC5C33",
"N  c #A65A37",
"B  c #B45D32",
"V  c #BB5F33",
"C  c #A04F23",
"Z  c #AA6238",
"A  c #B56133",
"S  c #BC6336",
"D  c #BD693B",
"F  c #B9612F",
"G  c #C9632D",
"H  c #DD682B",
"J  c #C36536",
"K  c #CC6A35",
"L  c #C4693A",
"P  c #CB6C3A",
"I  c #C76738",
"U  c #D46B35",
"Y  c #D36D3A",
"T  c #DC6F3A",
"R  c #DB733C",
"E  c #D5723A",
"W  c #E86E32",
"Q  c #E3743B",
"!  c #E5793D",
"~  c #EA7A3C",
"^  c #E87539",
"/  c #F37E3D",
"(  c #FD7C3A",
")  c #E16D2F",
"_  c #C95D2B",
"`  c #925F42",
"'  c #805E4B",
"]  c #8D6954",
"[  c #AD6949",
"{  c #B36E4A",
"}  c #BE7146",
"|  c #A9745A",
" . c #B97351",
".. c #887969",
"X. c #977867",
"o. c #A57D6F",
"O. c #CB7748",
"+. c #D87744",
"@. c #D17D50",
"#. c #EB7C41",
"$. c #E57544",
"%. c #F57B42",
"&. c #FC7D43",
"*. c #F77F4E",
"=. c #E57F53",
"-. c #5B836E",
";. c #718D72",
":. c #FD823D",
">. c #F6813F",
",. c #A7824C",
"<. c #8C8875",
"1. c #B48E7E",
"2. c #AC897A",
"3. c #9EA07B",
"4. c #D58358",
"5. c #EA8347",
"6. c #F48243",
"7. c #FE8542",
"8. c #FE8A44",
"9. c #F98B4D",
"0. c #E68453",
"q. c #F88D57",
"w. c #FD945A",
"e. c #C68764",
"r. c #D59373",
"t. c #ED9268",
"y. c #FD9864",
"u. c #ED976F",
"i. c #FEA672",
"p. c #FFA96F",
"a. c #727B83",
"s. c #758990",
"d. c #858787",
"f. c #968A84",
"g. c #899686",
"h. c #999687",
"j. c #8C9693",
"k. c #989A9C",
"l. c #A89689",
"z. c #A89B94",
"x. c #B3958A",
"c. c #A9AB9B",
"v. c #B7B399",
"b. c #879BA7",
"n. c #8B9EAB",
"m. c #8FA2AB",
"M. c #93A4AB",
"N. c #9AA6AE",
"B. c #8AA1B2",
"V. c #97AAB7",
"C. c #9EB2BC",
"Z. c #ADABAB",
"A. c #A4A5A7",
"S. c #A6AFB1",
"D. c #A6B5BB",
"F. c #B2B6BC",
"G. c #B9B8B7",
"H. c #B6ADA5",
"J. c #8CA190",
"K. c #C89C84",
"L. c #DE9E83",
"P. c #CCA28A",
"I. c #D9A68B",
"U. c #C7A998",
"Y. c #DBAF95",
"T. c #EDA987",
"R. c #FFAD84",
"E. c #FEB485",
"W. c #E8B495",
"Q. c #F8B399",
"!. c #C6BBB7",
"~. c #CDB5AD",
"^. c #FABBA3",
"/. c #FFC298",
"(. c #C7C2BB",
"). c #D2C5BB",
"_. c #E7C2AD",
"`. c #FCC8AD",
"'. c #EBC7B4",
"]. c #FED3BE",
"[. c #F0D0BE",
"{. c #9FB3C4",
"}. c #AEBAC4",
"|. c #A9B9C6",
" X c #B2BCC4",
".X c #B9BDC6",
"XX c #B4C2CD",
"oX c #BAC4CE",
"OX c #BFC0C0",
"+X c #BBCAD3",
"@X c #BBCFDD",
"#X c #C8C8C8",
"$X c #D5CCC7",
"%X c #DED3CD",
"&X c #C2CBD4",
"*X c #CBD4DC",
"=X c #C9D1D6",
"-X c #DADBDC",
";X c #D7D5D4",
":X c #D0CFD0",
">X c #FBD7C7",
",X c #EADCD4",
"<X c #E5DBD5",
"1X c #F6DDD2",
"2X c #E0D4CB",
"3X c #EEE1DA",
"4X c #F6E3D8",
"5X c #CEDAE4",
"6X c #D5DCE2",
"7X c #DDE2E6",
"8X c #D9E4EC",
"9X c #ECE6E3",
"0X c #E5EAED",
"qX c #E9EBEE",
"wX c #E3E4E6",
"eX c #F8EBE5",
"rX c #EAEEF1",
"tX c #E0ECF1",
"yX c #EEF0F3",
"uX c #F3F4F5",
"iX c #F6F9FA",
"pX c #FDFDFD",
"aX c #F7F6F6",
"sX c None",
/* pixels */
"sXsXsXsXsXsXsXsXsXsXsXsXsXsXsXsXsXsXsXsXsXsXsXsXsXsXsXsXsXsXsXsXsXsXsXsXsXsXsXsXsXsXsXsXsXsXsXsXsXsXsXsXsXsXsXsXsXsXsXsXsXsXsXsX",
"sXsXsXsXsXsXsXsXsXsXsXsXsXsXsXsXsXsXsXsXsXsXsXsXsXsXsXsXsXsXsXsXsXsXsXsXsXsXsXsXsXsXsXsXsXsXsXsXsXsXsXsXsXsXsXsXsXsXsXsXsXsXsXsX",
"sXsXsXsXsXsXsXsXsXsXsXsXsXsXsXsXsXsXsXsXsXsXsXsXsXsXsXsXsXsXsXsXsXsXsXsXsXsXsXsXsXsXsXsXsXsXsXsXsXsXsXsXsXsXsXsXsXsXsXsXsXsXsXsX",
"sXsXsXsXsXsXsXsXsXsXsXsXsXsXsXsXsXsXsXsXsXsXsXsXsXsXsXsXsXsXsXsXsXsXsXsXsXsXsXsXsXsXsXsXsXsXsXsXsXsXsXsXsXsXsXsXsXsXsXsXsXsXsXsX",
"sXsXsXsXsXsXsXsXsXsXsXsXsXsXsXsXsXsXsXsXsXsXsXsXsXsXsXsXsXsXsXsXsXsXsXsXsXsXsXsXsXsXsXsXsXsXsXsXsXsXsXsXsXsXsXsXsXsXsXsXsXsXsXsX",
"sXsXsXsXsXsXsXsXsXsXsXsXsXsXsXsXsXsXsXsXsXsXsXsXsXsXsXsXsXsXsXsXsXsXsXsXsXsXsXsXsXsXsXsXsXsXsXsXsXsXsXsXsXsXsXsXsXsXsXsXsXsXsXsX",
"sXsXsXsXsXsXsXsXsXsXsXsXsXsXsXsXsXsXsXsXsXsXsXsXsXsX3.v.v.sXsXsXsXsXsXsXsXsXsXsXsXsXsXsXsXsXsXsXsXsXsXsXsXsXsXsXsXsXsXsXsXsXsXsX",
"sXsXsXsXsXsXsXsXsXsXsXsXsXsXsXsXsXsXsXsXsXsXsXsXJ.).4X3X-X(.sXsXsXsXsXsXsXsXsXsXsXsXsXsXsXsXsXsXsXsXsXsXsXsXsXsXsXsXsXsXsXsXsXsX",
"sXsXsXsXsXsXsXsXsXsXsXsXsXsXsXsXsXsXsXsXsXsXsXJ.$X3X,X$XG.S.c.sXsXsXsXsXsXsXsXsXsXsXsXsXsXsXsXsXsXsXsXsXsXsXsXsXsXsXsXsXsXsXsXsX",
"sXsXsXsXsXsXsXsXsXsXsXsXsXsXsXsXsXsXsXsXsXsX<.#X,X,X$XG.k.j.S.sXsXsXsXsXsXsXsXsXsXsXsXsXsXsXsXsXsXsXsXsXsXsXsXsXsXsXsXsXsXsXsXsX",
"sXsXsXsXsXsXsXsXsXsXsXsXsXsXsXsXsXsXsXsXsXsXZ.,X1X%X(.k.s.g.H.sXsXsXsXsXsXsXsXsXsXsXsXsXsXsXsXsXsXsXsXsXsXsXsXsXsXsXsXsXsXsXsXsX",
"sXsXsXsXsXsXsXsXsXsXsXsXsXsXsXsXsXsXsXsXsX;.(.3X,X$XG.d.s sXsXsXsXsXsXsXsXsXsXsXsXsX9 sXsXsXsXsXsXsXsXsXsXsXsXsXsXsXsXsXsXsXsXsX",
"sXsXsXsXsXsXsXsXsXsXsXsXsXsXsXsXsXsXsXsXsXg.$X3X,X$XG.k.sXsXsXsXsXsXsXsXsXsXsXsXy l.X.< sXsXsXsXsXsXsXsXsXsXsXsXsXsXsXsXsXsXsXsX",
"sXsXsXsXsXsXsXsXsXsXsXsXsXsXsXsXsXsXsXsXsXg.).3X,X$X(.!.c.sXsXsXsXsXsXsXsXsXsXy H.<XH.6 sXsXsXsXsXsXsXsXsXsXsXsXsXsXsXsXsXsXsXsX",
"sXsXsXsXsXsXsXsXsXsXsXsXsXsXsXsXsXsXsXsXsXj.!.,X3X%X$X~.W.Y.r.1.,.sXsXsXsXsX6 x.:X6X!.w sXsXsXsXsXsXsXsXsXsXsXsXsXsXsXsXsXsXsXsX",
"sXsXsXsXsXsXsXsXsXsXsXsXsXsXsX5 sXsXsXsXsXg.G.%X4X4X'.i.t.q.0.@.4.sXsXsXsX5 X.).:X-X%Xi sXsXsXsXsXsXsXsXsXsXsXsXsXsXsXsXsXsXsXsX",
"sXsXsXsXsXsXsXsXsXsXsXsXsXsXsXr ..i 8 sXsXsXZ.%X>X`.R.q./ / $.E O.O.sXsX4 c U.:X#X-X<XX.sXsXsXsXsXsXsXsXsXsXsXsXsXsXsXsXsXsXsXsX",
"sXsXsXsXsXsXsXsXsXsXsXsXsXsXsXy A.|.A...y y ..~.`.i.9.#.~ +.P S L E x 6 9 e._.#XoX-X9X<.sXsXsXsXsXsXsXsXsXsXsXsXsXsXsXsXsXsXsXsX",
"sXsXsXsXsXsXsXsXsXsXsXsXsXsXsX6 k.@X@X.Xk.] u ] e.@.K D D D S A A L M g M 4.I.~.#X=X9Xl.sXsXsXsXsXsXsXsXsXsXsXsXsXsXsXsXsXsXsXsX",
"sXsXsXsXsXsXsXsXsXsXsXsXsXsXsX< ..+X XoX&X.Xh.' x N v x x S K J K E I S E E 4.I.).;XyXl.sXsXsXsXsXsXsXsXsXsXsXsXsXsXsXsXsXsXsXsX",
"sXsXsXsXsXsXsXsXsXsXsXsXsXsXsXsXi .X.XF.G.#X:XU.| Z M M L ! ~ ! >.>.R ! %.Q ! t.T.>X9Xl.sXsXsXsXsXsXsXsXsXsXsXsXsXsXsXsXsXsXsXsX",
"sXsXsXsXsXsXsXsXsXsXsXsXsXsXsXsXr Z.&XG.U.x.U.W.i.0.Q Q >.7.7.7.8.7.7.8.8.7.:.>.9.E.>Xl.sXsXsXsXsXsXsXsXsXsXsXsXsXsXsXsXsXsXsXsX",
"sXsXsXsXsXsXsXsXsXsXsXsXsXsXsXsX< f.&X#XP. .O.5.9.8.7.8.8.:.7.7.7.7.7.8.7.8.:.( ( w.'.3.sXsXsXsXsXsXsXsXsXsXsXsXsXsXsXsXsXsXsXsX",
"sXsXsXsXsXsXsXsXsXsXsXsXsXsXsXsX5 i !.!.P.} L W :.:.7.7.7.7.7.7.7.7.7.7.7.7.7.&.%.0.W.X.sXsXsXsXsXsXsXsXsXsXsXsXsXsXsXsXsXsXsXsX",
"sXsXsXsXsXsXsXsXsXsXsXsXsXsXsXsXsXt Z.U.@.O.+.6.7.7.7.7.:.7.7.7.7.7.7.7.7.7.7.7.&.*.t.] sXsXsXsXsXsXsXsXsXsXsXsXsXsXsXsXsXsXsXsX",
"sXsXsXsXsXsXsXsXsXsXsXsXsXsXsXsXsX5 f.x.O.T ~ 6.7.7.7.7.7.7.7.7.7.7.7.7.7.7.7.7.&.&.=.' sXsXsXsXsXsXsXsXsXsXsXsXsXsXsXsXsXsXsXsX",
"sXsXsXsXsXsXsXsXsXsXsXsXsXsXsXsXsXsXi x. .P ^ >.6.7.7.7.7.7.7.7.7.7.7.7.8.8.8.7.&.%.$.` sXsXsXsXsXsXsXsXsXsXsXsXsXsXsXsXsXsXsXsX",
"sXsXsXsXsXsXsXsXsXsXsXsXsXsXsXsXsXsXr { [ L Q >.7.7.7.7.7.7.7.7.7.7.7.7.8.>.5.8.&.%.+.N r sXsXsXsXsXsXsXsXsXsXsXsXsXsXsXsXsXsXsX",
"sXsXsXsXsXsXsXsXsXsXsXsXsXsXsXsXsXsX7 c Z L Q &.7.8.7.7.7.7.7.7.8.8.8.8.>.N g L 8.&.$.V z sXsXsXsXsXsXsXsXsXsXsXsXsXsXsXsXsXsXsX",
"sXsXsXsXsXsXsXsXsXsXsXsXsXsXsXsXsXsXsX9 v J T %.8.8.8.7.7.7.7.7.8.:.8.8.D $ . 0 %.7.%.I v z sXsXsXsXsXsXsXsXsXsXsXsXsXsXsXsXsXsX",
"sXsXsXsXsXsXsXsXsXsXsXsXsXsXsXsXsXsXsX6 v V T Q S Z E 7.7.7.7.7.:.:.:.:.A X . : #.8.&.$.B v sXsXsXsXsXsXsXsXsXsXsXsXsXsXsXsXsXsX",
"sXsXsXsXsXsXsXsXsXsXsXsXsXsXsXsXsXsXsXsXz V $.J - X 0 ! 7.:.:.:.:.:.:.:.U > & l >.7.&.%.$.S z sXsXsXsXsXsXsXsXsXsXsXsXsXsXsXsXsX",
"sXsXsXsXsXsXsXsXsXsXsXsXsXsXsXsXsXsXsXsXg B T M O   o F :.:.8.y.p.p.y.w.9.5.D >.:.( ( &.q.t.N sXsXsXsXsXsXsXsXsXsXsXsXsXsXsXsXsX",
"sXsXsXsXsXsXsXsXsXsXsXsXsXsXsXsXsXsXsXsXg B I V - X = m ^ q.E.W.P.P._.].`./.i.p.y.9.w.y.R.Q.u.<.sXsXsXsXsXsXsXsXsXsXsXsXsXsXsXsX",
"sXsXsXsXsXsXsXsXsXsXsXsXsXsXsXsXsXsXsXsXg B J +.A j l L 4.Y.z.t # t =XpXpXeX4X1X].].].].>X>X>X%XsXsXsXsXsXsXsXsXsXsXsXsXsXsXsXsX",
"sXsXsXsXsXsXsXsXsXsXsXsXsXsXsXsXsXsXsXsXg B V U W ) P r.).:Xa     a 7XpXpXpXpXpXpXpXpXaX9X9XwX:XsXsXsXsXsXsXsXsXsXsXsXsXsXsXsXsX",
"sXsXsXsXsXsXsXsXsXsXsXsXsXsXsXsXsXsXsXsXj m _ H W 0.Y.(.-X7XF.d.j.:XpXpXpXpXpXpXpXpXpXyXwXwX#X..sXsXsXsXsXsXsXsXsXsXsXsXsXsXsXsX",
"sXsXsXsXsXsXsXsXsXsXsXsXsXsXsXsXsXsXsXq O.$.$.*.u.'.3X0XqXuXaXqXuXpXpXpXpXpXpXpXpXiXyXwX5X=X1.e sXsXsXsXsXsXsXsXsXsXsXsXsXsXsXsX",
"sXsXsXsXsXsXsXsXsXsXsXsXsXsXsXsXsXsXsXo.r.T.^.>XeXiXiXyXaXpXpXpXpXpXuXuXaXaXaXaXiXaXrX5X.Xx.M sXsXsXsXsXsXsXsXsXsXsXsXsXsXsXsXsX",
"sXsXsXsXsXsXsXsXsXsXsXsXsXsXsXsXsXsXh.U.!.,XyXpXpXiXiXiXaXaXpXiXaXuXuXuXuXuXaXuXiXrX8X Xf.N j sXsXsXsXsXsXsXsXsXsXsXsXsXsXsXsXsX",
"sXsXsXsXsXsXsXsXsXsXsXsXsXsXsXsXsX;.N.|.oX*XtXtX0XqXrXuXyXuXuXuXuXyXuXyXuXuXuXyXrX8XF.2.B v g sXsXsXsXsXsXsXsXsXsXsXsXsXsXsXsXsX",
"sXsXsXsXsXsXsXsXsXsXsXsXsXsXsXsXsXsXsXs.n.}..X&X&X*X7XqXrXrXrXrXqXqXqXqX0X0X7X7X*XF.X.M m l h sXsXsXsXsXsXsXsXsXsXsXsXsXsXsXsXsX",
"sXsXsXsXsXsXsXsXsXsXsXsXsXsXsXsXsXsXsXsX-.s.V.|.{.}.oX=X6XwX7X7X8X8X6X6X6X*X*X+XG.2.M S A g 0 sXsXsXsXsXsXsXsXsXsXsXsXsXsXsXsXsX",
"sXsXsXsXsXsXsXsXsXsXsXsXsXsXsXsXsXsXsXsXsXsXs.B.{.{.|.|.oX&X*X*X=X*X&X+X+XXX}.D.l.[ n I V 3 1 sXsXsXsXsXsXsXsXsXsXsXsXsXsXsXsXsX",
"sXsXsXsXsXsXsXsXsXsXsXsXsXsXsXsXsXsXsXsXsXsXsXsXa.s.B.{.V.|.|.}.|.}.}.}.D.N.S.S.1.} K E b 2 < sXsXsXsXsXsXsXsXsXsXsXsXsXsXsXsXsX",
"sXsXsXsXsXsXsXsXsXsXsXsXsXsXsXsXsXsXsXsXsXsXsXsX6 t a a.b.n.M.M.M.N.N.N.m.M.D.#Xr.+.! E g % $ sXsXsXsXsXsXsXsXsXsXsXsXsXsXsXsXsX",
"sXsXsXsXsXsXsXsXsXsXsXsXsXsXsXsXsXsXsXsXsXsXsXsXsX: 3 u a.b.B.n.b.m.M.M.M.C.+X(.r.5.>.K 0 o sXsXsXsXsXsXsXsXsXsXsXsXsXsXsXsXsXsX",
"sXsXsXsXsXsXsXsXsXsXsXsXsXsXsXsXsXsXsXsXsXsXsXsXsXsXj j ' d.k.M.N.N.M.C.XX+XOXx.4.5.~ Z 6 sXsXsXsXsXsXsXsXsXsXsXsXsXsXsXsXsXsXsX",
"sXsXsXsXsXsXsXsXsXsXsXsXsXsXsXsXsXsXsXsXsXsXsXsXsXsXk B v ` X.l.C.XXC.XX&XG.2.{ U R A e sXsXsXsXsXsXsXsXsXsXsXsXsXsXsXsXsXsXsXsX",
"sXsXsXsXsXsXsXsXsXsXsXsXsXsXsXsXsXsXsXsXsXsXsXsXsXsXq L G m m [ l.S.D.D.J...x A U n q sXsXsXsXsXsXsXsXsXsXsXsXsXsXsXsXsXsXsXsXsX",
"sXsXsXsXsXsXsXsXsXsXsXsXsXsXsXsXsXsXsXsXsXsXsXsXsXsXsXS ^ T G G } | g.-.sX6 d A n g 6 sXsXsXsXsXsXsXsXsXsXsXsXsXsXsXsXsXsXsXsXsX",
"sXsXsXsXsXsXsXsXsXsXsXsXsXsXsXsXsXsXsXsXsXsXsXsXsXsXsXx $.%.Q ^ ) f p sXsX; j l j 0 sXsXsXsXsXsXsXsXsXsXsXsXsXsXsXsXsXsXsXsXsXsX",
"sXsXsXsXsXsXsXsXsXsXsXsXsXsXsXsXsXsXsXsXsXsXsXsXsXsXsXq Y &.$.^ E C 5 sXsX- g h h 9 sXsXsXsXsXsXsXsXsXsXsXsXsXsXsXsXsXsXsXsXsXsX",
"sXsXsXsXsXsXsXsXsXsXsXsXsXsXsXsXsXsXsXsXsXsXsXsXsXsXsXe B Q Q Y J k sXsX@ - 0 > > 5 sXsXsXsXsXsXsXsXsXsXsXsXsXsXsXsXsXsXsXsXsXsX",
"sXsXsXsXsXsXsXsXsXsXsXsXsXsXsXsXsXsXsXsXsXsXsXsXsXsXsXsXk J P J A h sXsX@ % - : 9 5 sXsXsXsXsXsXsXsXsXsXsXsXsXsXsXsXsXsXsXsXsXsX",
"sXsXsXsXsXsXsXsXsXsXsXsXsXsXsXsXsXsXsXsXsXsXsXsXsXsXsXsX0 v B B b 0 sXsX+ $ % = = 5 sXsXsXsXsXsXsXsXsXsXsXsXsXsXsXsXsXsXsXsXsXsX",
"sXsXsXsXsXsXsXsXsXsXsXsXsXsXsXsXsXsXsXsXsXsXsXsXsXsXsXsX9 h l j h 9 sXsX+ o & % $ < sXsXsXsXsXsXsXsXsXsXsXsXsXsXsXsXsXsXsXsXsXsX",
"sXsXsXsXsXsXsXsXsXsXsXsXsXsXsXsXsXsXsXsXsXsXsXsXsXsXsXsX1 3 0 3 : = @ sXsXO o & * sXsXsXsXsXsXsXsXsXsXsXsXsXsXsXsXsXsXsXsXsXsXsX",
"sXsXsXsXsXsXsXsXsXsXsXsXsXsXsXsXsXsXsXsXsXsXsXsXsXsXsX4 + = : - % & + sXsXsXsXsXsXsXsXsXsXsXsXsXsXsXsXsXsXsXsXsXsXsXsXsXsXsXsXsX",
"sXsXsXsXsXsXsXsXsXsXsXsXsXsXsXsXsXsXsXsXsXsXsXsXsXsXsX@ $ % % $ & & O sXsXsXsXsXsXsXsXsXsXsXsXsXsXsXsXsXsXsXsXsXsXsXsXsXsXsXsXsX",
"sXsXsXsXsXsXsXsXsXsXsXsXsXsXsXsXsXsXsXsXsXsXsXsXsXsXsX< $ $ % % $ o sXsXsXsXsXsXsXsXsXsXsXsXsXsXsXsXsXsXsXsXsXsXsXsXsXsXsXsXsXsX",
"sXsXsXsXsXsXsXsXsXsXsXsXsXsXsXsXsXsXsXsXsXsXsXsXsXsXsXsX* $ $ o O sXsXsXsXsXsXsXsXsXsXsXsXsXsXsXsXsXsXsXsXsXsXsXsXsXsXsXsXsXsXsX",
"sXsXsXsXsXsXsXsXsXsXsXsXsXsXsXsXsXsXsXsXsXsXsXsXsXsXsXsXsXsXsXsXsXsXsXsXsXsXsXsXsXsXsXsXsXsXsXsXsXsXsXsXsXsXsXsXsXsXsXsXsXsXsXsX",
"sXsXsXsXsXsXsXsXsXsXsXsXsXsXsXsXsXsXsXsXsXsXsXsXsXsXsXsXsXsXsXsXsXsXsXsXsXsXsXsXsXsXsXsXsXsXsXsXsXsXsXsXsXsXsXsXsXsXsXsXsXsXsXsX"
};
