/* XPM */
static char *result[] = {
/* columns rows colors chars-per-pixel */
"64 64 221 2 ",
"   c #111211",
".  c #231B16",
"X  c #3B2517",
"o  c #3F2619",
"O  c #372A19",
"+  c #3C341E",
"@  c #303334",
"#  c #452A1A",
"$  c #4A2C1A",
"%  c #432817",
"&  c #41331D",
"*  c #47381F",
"=  c #53321D",
"-  c #5D351E",
";  c #543C1E",
":  c #522F1A",
">  c #65381E",
",  c #7A3D1C",
"<  c #453A21",
"1  c #5E3821",
"2  c #563A27",
"3  c #693C25",
"4  c #733F22",
"5  c #3E4727",
"6  c #474727",
"7  c #584527",
"8  c #544E30",
"9  c #6B4528",
"0  c #7A462A",
"q  c #794428",
"w  c #6B4A37",
"e  c #764C32",
"r  c #685A39",
"t  c #6D522D",
"y  c #73633B",
"u  c #654E45",
"i  c #786458",
"p  c #706965",
"a  c #85411D",
"s  c #824625",
"d  c #85492B",
"f  c #8C4B2B",
"g  c #874829",
"h  c #944E2B",
"j  c #9C532C",
"k  c #995129",
"l  c #894D31",
"z  c #8A573A",
"x  c #945333",
"c  c #9B5936",
"v  c #A4552D",
"b  c #A8592C",
"n  c #B45D2D",
"m  c #BB5C2E",
"M  c #A55731",
"N  c #A45B34",
"B  c #AC5B33",
"V  c #A85730",
"C  c #B45D33",
"Z  c #B95F35",
"A  c #996636",
"S  c #846335",
"D  c #AD613A",
"F  c #BB6234",
"G  c #B5643A",
"H  c #B86738",
"J  c #B8602F",
"K  c #C36434",
"L  c #CC6C3A",
"P  c #C86937",
"I  c #D56C3B",
"U  c #D76D37",
"Y  c #CA713C",
"T  c #D5703A",
"R  c #DB743C",
"E  c #DC7237",
"W  c #C3632E",
"Q  c #E26F3A",
"!  c #EB763D",
"~  c #EB7B3E",
"^  c #E5773D",
"/  c #F67D3C",
"(  c #8A5E4B",
")  c #996649",
"_  c #886856",
"`  c #927456",
"'  c #B67352",
"]  c #AB6C4D",
"[  c #947565",
"{  c #85726A",
"}  c #A87B69",
"|  c #B57A62",
" . c #CA7343",
".. c #D77743",
"X. c #CB7850",
"o. c #EC7E41",
"O. c #E67A45",
"+. c #F47B41",
"@. c #FD7D43",
"#. c #F27740",
"$. c #728B72",
"%. c #FE823E",
"&. c #F4803F",
"*. c #9A8579",
"=. c #8A9879",
"-. c #A88878",
";. c #B68A71",
":. c #CE825A",
">. c #D88457",
",. c #E8844B",
"<. c #F58142",
"1. c #FE8542",
"2. c #FF8A44",
"3. c #FF8749",
"4. c #E88656",
"5. c #F68C52",
"6. c #F4945D",
"7. c #C78969",
"8. c #D68B64",
"9. c #D59975",
"0. c #EA9367",
"q. c #F99867",
"w. c #EC956F",
"e. c #FFA56D",
"r. c #FCA676",
"t. c #E8A37D",
"y. c #6F7781",
"u. c #788785",
"i. c #7B8C97",
"p. c #888B89",
"a. c #969988",
"s. c #8B9597",
"d. c #989B98",
"f. c #8C908C",
"g. c #AC978B",
"h. c #B39688",
"j. c #A89995",
"k. c #94A793",
"l. c #B9A69B",
"z. c #ADA892",
"x. c #889BA7",
"c. c #929FA7",
"v. c #A09EA3",
"b. c #8FA1AA",
"n. c #97A5AA",
"m. c #99AAB7",
"M. c #9EB2BB",
"N. c #9BB0AF",
"B. c #A1A2A3",
"V. c #AAA9A5",
"C. c #A9A8AB",
"Z. c #B7ACA7",
"A. c #B6B4AC",
"S. c #A3B2BC",
"D. c #ACB5BB",
"F. c #ACB6BB",
"G. c #B8B6B8",
"H. c #A4B0AE",
"J. c #CB9983",
"K. c #D8B19B",
"L. c #D6AB93",
"P. c #F9AC88",
"I. c #FFB687",
"U. c #FAB996",
"Y. c #E2B29E",
"T. c #C4B4AE",
"R. c #D5B6A5",
"E. c #C4BDBB",
"W. c #C9BBB4",
"Q. c #C3AFA7",
"!. c #F2BAA5",
"~. c #BFC2A9",
"^. c #C8C2BB",
"/. c #D8C3B5",
"(. c #FDC6A9",
"). c #F7C8B5",
"_. c #FFD8BE",
"`. c #ABB7C2",
"'. c #B4BBC2",
"]. c #BBBBC1",
"[. c #C0BCC0",
"{. c #B5C2CA",
"}. c #BAC4CC",
"|. c #BFC1C5",
" X c #BECAD3",
".X c #B9C6D0",
"XX c #C7C6C5",
"oX c #CAC8C6",
"OX c #D4CBC5",
"+X c #D8CDC7",
"@X c #DBD1CB",
"#X c #C3CCD4",
"$X c #C4CFD9",
"%X c #CBD4DB",
"&X c #D6D6D8",
"*X c #E3D5CE",
"=X c #F9D8C8",
"-X c #EBDCD5",
";X c #E6DAD3",
":X c #F3DED5",
">X c #ECCEC0",
",X c #EBE0DC",
"<X c #FAE4DA",
"1X c #D4DBE1",
"2X c #D9DEE2",
"3X c #CAD6E1",
"4X c #DDE3E7",
"5X c #E4E5E6",
"6X c #E2E6E9",
"7X c #E5E9EC",
"8X c #EAEAEC",
"9X c #E9E6E8",
"0X c #FFECE1",
"qX c #F1EEEB",
"wX c #EDEFF0",
"eX c #EEF1F2",
"rX c #F3F4F5",
"tX c #FDFDFE",
"yX c #F7F7F8",
"uX c #FFF1EA",
"iX c None",
/* pixels */
"iXiXiXiXiXiXiXiXiXiXiXiXiXiXiXiXiXiXiXiXiXiXiXiXiXiXiXiXiXiXiXiXiXiXiXiXiXiXiXiXiXiXiXiXiXiXiXiXiXiXiXiXiXiXiXiXiXiXiXiXiXiXiXiX",
"iXiXiXiXiXiXiXiXiXiXiXiXiXiXiXiXiXiXiXiXiXiXiXiXiXiXiXiXiXiXiXiXiXiXiXiXiXiXiXiXiXiXiXiXiXiXiXiXiXiXiXiXiXiXiXiXiXiXiXiXiXiXiXiX",
"iXiXiXiXiXiXiXiXiXiXiXiXiXiXiXiXiXiXiXiXiXiXiXiXiXiXiXiXiXiXiXiXiXiXiXiXiXiXiXiXiXiXiXiXiXiXiXiXiXiXiXiXiXiXiXiXiXiXiXiXiXiXiXiX",
"iXiXiXiXiXiXiXiXiXiXiXiXiXiXiXiXiXiXiXiXiXiXiXiXiXiXiXiXiXiXiXiXiXiXiXiXiXiXiXiXiXiXiXiXiXiXiXiXiXiXiXiXiXiXiXiXiXiXiXiXiXiXiXiX",
"iXiXiXiXiXiXiXiXiXiXiXiXiXiXiXiXiXiXiXiXiXiXiXiXiXiXiXiXiXiXiXiXiXiXiXiXiXiXiXiXiXiXiXiXiXiXiXiXiXiXiXiXiXiXiXiXiXiXiXiXiXiXiXiX",
"iXiXiXiXiXiXiXiXiXiXiXiXiXiXiXiXiXiXiXiXiXiXiXiXiXiXiXiXiXiXiXiXiXiXiXiXiXiXiXiXiXiXiXiXiXiXiXiXiXiXiXiXiXiXiXiXiXiXiXiXiXiXiXiX",
"iXiXiXiXiXiXiXiXiXiXiXiXiXiXiXiXiXiXiXiXiXiXiXiXiXiXiXiXiXiXiXiXiXiXiXiXiXiXiXiXiXiXiXiXiXiXiXiXiXiXiXiXiXiXiXiXiXiXiXiXiXiXiXiX",
"iXiXiXiXiXiXiXiXiXiXiXiXiXiXiXiXiXiXiXiXiXiXiXiXiXiXiXiXiXiXiXiXiXiXiXiXiXiXiXiXiXiXiXiXiXiXiXiXiXiXiXiXiXiXiXiXiXiXiXiXiXiXiXiX",
"iXiXiXiXiXiXiXiXiXiXiXiXiXiXiXiXiXiXiXiXiXiXiXiXiXiXiXiXiXiXiXiXiXiXiXiXiXiXiXiXiXiXiXiXiXiXiXiXiXiXiXiXiXiXiXiXiXiXiXiXiXiXiXiX",
"iXiXiXiXiXiXiXiXiXiXiXiXiXiXiXiXiXiXiXiXiXiXiXiXiXiXiXiXiXiXiXiXiXiXiXiXiXiXiXiXiXiXiXiXiXiXiXiXiXiXiXiXiXiXiXiXiXiXiXiXiXiXiXiX",
"iXiXiXiXiXiXiXiXiXiXiXiXiXiXiXiXiXiXiXiXiXiXiXiXiXiXiXiXiXiXiXiXiXiXiXiXiXiXiXiXiXiXiXiXiXiXiXiXiXiXiXiXiXiXiXiXiXiXiXiXiXiXiXiX",
"iXiXiXiXiXiXiXiXiXiXiXiXiXiXiXiXiXiXiXiXiXiXiXiXiXiXiXiXiXiXiXiXiXiXiXiXiXiXiXiX< = iXiXiXiXiXiXiXiXiXiXiXiXiXiXiXiXiXiXiXiXiXiX",
"iXiXiXiXiXiXiXiXiXiXiXiXiXiXiXiXiXiXiXiXiXiXiXiXiXiXiXiXiXiXiXiXiXiXiXiXiXiXiX6 [ ( iXiXiXiXiXiXiXiXiXiXiXiXiXiXiXiXiXiXiXiXiXiX",
"iXiXiXiXiXiXiXiXiXiXiXiXiXiXiXiXiXiXiXiXiXiXiXiXiXiXiXiXiXiXiXiXiXiXiXiXiXiX6 *.^.g.iXiXiXiXiXiXiXiXiXiXiXiXiXiXiXiXiXiXiXiXiXiX",
"iXiXiXiXiXiXiXiXiXiXiXiXiXiXiXiXiXiXiXiXiXiXiXiXiXiXiXiXiXiXiXiXiXiXiXiXiX6 [ ^.&XW.7 iXiXiXiXiXiXiXiXiXiXiXiXiXiXiXiXiXiXiXiXiX",
"iXiXiXiXiXiXiXiXiXiXiXiXiXiXiXiXiXiXiXiXiXiXiXiXiXiXiXiXiXiXiXiXiXiXiXiXiXe T.XX&X@Xw iXiXiXiXiXiXk.V.A.^.A.k.f.iXiXiXiXiXiXiXiX",
"iXiXiXiXiXiXiXiXiXiXiXiXiXiXiXu iXiXiXiXiXiXiXiXiXiXiXiXiXiXiXiXiXiXiXiX3 -.XXXX&X,Xi iXiXiXiXd.A.W.OX*X-X-X*X+X^.p.iXiXiXiXiXiX",
"iXiXiXiXiXiXiXiXiXiXiXiXiXiX$ p C.a._ iXiXiXiXiXiXiXiXiXiXiXiXiXiXiXiX; ] K.XXXX+XqX{ iXiXh.L.T.oX@X-X:X:X-X;X;X*XOXk.iXiXiXiXiX",
"iXiXiXiXiXiXiXiXiXiXiXiXiXiXiXi '.`.G.j.i 6 iXiXiXiXiXiXiXiXG A A A t d :.L.W.XX#XqX*.y 9.t.w.R.;X-X-X-X@X+X+X+X+X@X@X=.iXiXiXiX",
"iXiXiXiXiXiXiXiXiXiXiXiXiXiXiXu `.`.`.'.G.*.w 7 iXiXiXiXiXG P c P H x H  .:.K.oXXXqXg.( >.>.8.!.=X=X*XOX^.E.W.E.^.OX*X/.iXiXiXiX",
"iXiXiXiXiXiXiXiXiXiXiXiXiXiXiX2 C.'.F.'.}.E.l.` z iXiXS H ~ P R <.Y P ^ T ..t.K./.yXz.z X...O.P.(.=X+X/.A.B.v.C.G.|.*X,XiXiXiXiX",
"iXiXiXiXiXiXiXiXiXiXiXiXiXiXiX< f.XXF.T.Q.A./.L.>.Y Y R 1.<./ 1.&.&.<.2.+.<.5.q.(.<Xg.d D  .O.0.I.).+XXXB.s.f.c.A.~.@X<Xz.iXiXiX",
"iXiXiXiXiXiXiXiXiXiXiXiXiXiXiXiX_ [.].T.7.' 8.5.5.<.~ 1.2.&.1.2.1.1.1.1.1.1.%.<.q.=Xg.0 N P ..O.q.P.R.^.B.p.i.f.n.V.^.,X^.iXiXiX",
"iXiXiXiXiXiXiXiXiXiXiXiXiXiXiXiX2 ].G.W.9.] ^ @.1.1.%.1.1.1.1.1.1.1.1.1.1.1.1./ 4.).-.q M D  ...o.5.t.K.l.$.iXiX$.d.H./.^.iXiXiX",
"iXiXiXiXiXiXiXiXiXiXiXiXiXiXiXiX2 j.].J.:. .O.1.1.1.1.1.1.1.1.1.1.1.1.1.1.1.1.1.@.!.{ 3 x M D I R ^ 4.8.;.iXiXiXiXiXn.OXiXiXiXiX",
"iXiXiXiXiXiXiXiXiXiXiXiXiXiXiXiXiXp [.| T ..~ 1.1.1.2.1.1.1.1.1.1.1.1.1.1.1.1.@.O.@.( w q ( D K T ,.,.:.` iXiXiXiXiX$.iXiXiXiXiX",
"iXiXiXiXiXiXiXiXiXiXiXiXiXiXiXiXiX2 j.| I E +.<.1.1.1.1.1.1.1.1.1.1.2.1.1.1.1.@.#.O.( 2 4 l M Z  .,...:.iXiXiXiXiXiXiXiXiXiXiXiX",
"iXiXiXiXiXiXiXiXiXiXiXiXiXiXiXiXiX8 } | H E &.<.%.1.1.1.1.1.2.1.1.1.1.1.2.1.1.@.#.O.) 3 3 l ( Z Y Y Y ' iXiXiXiXiXiXiXiXiXiXiXiX",
"iXiXiXiXiXiXiXiXiXiXiXiXiXiXiXiXiXiX( ] B ../ 1.1.1.1.1.1.1.1.1.1.1.1.1.2.2.2.1.@.O.M g 4 d x B G G D y iXiXiXiXiXiXiXiXiXiXiXiX",
"iXiXiXiXiXiXiXiXiXiXiXiXiXiXiXiXiXiX7 c C I ~ @.1.1.1.1.1.1.1.1.1.1.1.2.R N F 1.@.#.C j l e x c c c l iXiXiXiXiXiXiXiXiXiXiXiXiX",
"iXiXiXiXiXiXiXiXiXiXiXiXiXiXiXiXiXiX8 f Z I #.1.2.2.2.1.1.1.1.1.1.1.2.^ 9 # 1 <.@.@...j N l l x x l iXiXiXiXiXiXiXiXiXiXiXiXiXiX",
"iXiXiXiXiXiXiXiXiXiXiXiXiXiXiXiXiXiXiXl C K Q O.R ~ 2.<.1.1.1.%.1.%.2.R o . 1 <.@.@.#.Z V l 0 0 e iXiXiXiXiXiXiXiXiXiXiXiXiXiXiX",
"iXiXiXiXiXiXiXiXiXiXiXiXiXiXiXiXiXiXiX0 C K I g - q T &.1.%.%.1.2.1.%./ k 4 J %.@.@./ #. .k 9 iXiXiXiXiXiXiXiXiXiXiXiXiXiXiXiXiX",
"iXiXiXiXiXiXiXiXiXiXiXiXiXiXiXiXiXiXiX9 V m I - . . k ^ / 3.e.I.I.I.r.e.5.,.2.%./ / 3.q.w.X.iXiXiXiXiXiXiXiXiXiXiXiXiXiXiXiXiXiX",
"iXiXiXiXiXiXiXiXiXiXiXiXiXiXiXiXiXiXiX9 V Z I v * = b T >.U.K.-.*./.<X<X_.(.U.r.r.r.P.U.).!.g.iXiXiXiXiXiXiXiXiXiXiXiXiXiXiXiXiX",
"iXiXiXiXiXiXiXiXiXiXiXiXiXiXiXiXiXiXiX9 V Z K U W n  .8.K.B.@   @ G.tXtXtXuX0XuX0X0X<X:X:X<X;XN.iXiXiXiXiXiXiXiXiXiXiXiXiXiXiXiX",
"iXiXiXiXiXiXiXiXiXiXiXiXiXiXiXiXiXiXiX0 C m I Q ! >.9.W.&Xd.@ @ u.9XtXtXtXtXtXtXtXtXyX8X5X2XV.iXiXiXiXiXiXiXiXiXiXiXiXiXiXiXiXiX",
"iXiXiXiXiXiXiXiXiXiXiXiXiXiXiXiXiXiXiXj Z I U ! 4.R.@X&X9X5XXX].9XtXtXtXtXtXtXtXtXyX9X&X%XT.y iXiXiXiXiXiXiXiXiXiXiXiXiXiXiXiXiX",
"iXiXiXiXiXiXiXiXiXiXiXiXiXiXiXiXiXiX8 ' X.4.w.P.>XqX8XeXyXtXtXtXtXtXyXtXyXyXtXyXyXwX2X#XG.| iXiXiXiXiXiXiXiXiXiXiXiXiXiXiXiXiXiX",
"iXiXiXiXiXiXiXiXiXiXiXiXiXiXiXiXiXiX[ J.Y.).<XyXtXyXrXyXyXtXtXyXyXrXrXyXyXrXyXyXeX6X$XC.| V iXiXiXiXiXiXiXiXiXiXiXiXiXiXiXiXiXiX",
"iXiXiXiXiXiXiXiXiXiXiXiXiXiXiXiXiXa.G.G.@X7XyXyXrXrXrXrXrXrXrXrXrXrXrXrXeXrXeXeX7X%XC.} M h iXiXiXiXiXiXiXiXiXiXiXiXiXiXiXiXiXiX",
"iXiXiXiXiXiXiXiXiXiXiXiXiXiXiXiXiXs.b.`.'.3X1X1X6X7XwXeXeXwXrXrXrX8XeXeXeXeXwX6X3XC.] C v f iXiXiXiXiXiXiXiXiXiXiXiXiXiXiXiXiXiX",
"iXiXiXiXiXiXiXiXiXiXiXiXiXiXiXiXiXiXiXu.m.`.{..X$X3X4X6X7X7X7X7X7X6X6X4X4X2X&X%XC.] Z C x s iXiXiXiXiXiXiXiXiXiXiXiXiXiXiXiXiXiX",
"iXiXiXiXiXiXiXiXiXiXiXiXiXiXiXiXiXiXiXiXiXi.m.`.`.`.'.$X1X2X2X1X1X%X%X%X$X X.XG.} C G G g 3 iXiXiXiXiXiXiXiXiXiXiXiXiXiXiXiXiXiX",
"iXiXiXiXiXiXiXiXiXiXiXiXiXiXiXiXiXiXiXiXiXiXi.x.m.m.M.`.'.#X#X#X X X X{.`.F.H.j.G Z P n q ; iXiXiXiXiXiXiXiXiXiXiXiXiXiXiXiXiXiX",
"iXiXiXiXiXiXiXiXiXiXiXiXiXiXiXiXiXiXiXiXiXiXiXp y.s.x.m.m.m.S.D.S.S.S.H.N.N.F.h. . .T k 1 : iXiXiXiXiXiXiXiXiXiXiXiXiXiXiXiXiXiX",
"iXiXiXiXiXiXiXiXiXiXiXiXiXiXiXiXiXiXiXiXiXiXiXiX2 u p i.x.x.c.c.n.n.n.b.b.F.XXJ.O.~ T s $ # iXiXiXiXiXiXiXiXiXiXiXiXiXiXiXiXiXiX",
"iXiXiXiXiXiXiXiXiXiXiXiXiXiXiXiXiXiXiXiXiXiXiXiXiX, a p s.s.c.x.x.b.m.M.S.}.^.9.o.! K 9 o # iXiXiXiXiXiXiXiXiXiXiXiXiXiXiXiXiXiX",
"iXiXiXiXiXiXiXiXiXiXiXiXiXiXiXiXiXiXiXiXiXiXiXiXiXf j c { d.n.N.m.N.M.{.{.G.;.T &.E A 8 + 6 iXiXiXiXiXiXiXiXiXiXiXiXiXiXiXiXiXiX",
"iXiXiXiXiXiXiXiXiXiXiXiXiXiXiXiXiXiXiXiXiXiXiXiXiXiXB C j ) } V.F.M.M.{.V.-.] U T b r iXiXiXiXiXiXiXiXiXiXiXiXiXiXiXiXiXiXiXiXiX",
"iXiXiXiXiXiXiXiXiXiXiXiXiXiXiXiXiXiXiXiXiXiXiXiXiXiXF I F n J ;.V.H.N.k.i A D P J 7 iXiXiXiXiXiXiXiXiXiXiXiXiXiXiXiXiXiXiXiXiXiX",
"iXiXiXiXiXiXiXiXiXiXiXiXiXiXiXiXiXiXiXiXiXiXiXiXiXiXN O.E L L H ' _ iXiX; v b J f 6 iXiXiXiXiXiXiXiXiXiXiXiXiXiXiXiXiXiXiXiXiXiX",
"iXiXiXiXiXiXiXiXiXiXiXiXiXiXiXiXiXiXiXiXiXiXiXiXiXiXt ^ #.O.^ U K 7 iXiX- k f k 4 iXiXiXiXiXiXiXiXiXiXiXiXiXiXiXiXiXiXiXiXiXiXiX",
"iXiXiXiXiXiXiXiXiXiXiXiXiXiXiXiXiXiXiXiXiXiXiXiXiXiXiXP #.Q ^ U J 6 iXiX> s q s 9 iXiXiXiXiXiXiXiXiXiXiXiXiXiXiXiXiXiXiXiXiXiXiX",
"iXiXiXiXiXiXiXiXiXiXiXiXiXiXiXiXiXiXiXiXiXiXiXiXiXiXiXj Q I I K j < iXiX= > 3 4 8 iXiXiXiXiXiXiXiXiXiXiXiXiXiXiXiXiXiXiXiXiXiXiX",
"iXiXiXiXiXiXiXiXiXiXiXiXiXiXiXiXiXiXiXiXiXiXiXiXiXiXiX9 K F K n h & iXiX$ ; - > 6 iXiXiXiXiXiXiXiXiXiXiXiXiXiXiXiXiXiXiXiXiXiXiX",
"iXiXiXiXiXiXiXiXiXiXiXiXiXiXiXiXiXiXiXiXiXiXiXiXiXiXiXiXv v n v s & iXO o $ : : 5 iXiXiXiXiXiXiXiXiXiXiXiXiXiXiXiXiXiXiXiXiXiXiX",
"iXiXiXiXiXiXiXiXiXiXiXiXiXiXiXiXiXiXiXiXiXiXiXiXiXiXiXiXs h k s q < iX+ X % % $ < iXiXiXiXiXiXiXiXiXiXiXiXiXiXiXiXiXiXiXiXiXiXiX",
"iXiXiXiXiXiXiXiXiXiXiXiXiXiXiXiXiXiXiXiXiXiXiXiXiXiXiXiX> q 3 - - + iXiXiX% % % 5 iXiXiXiXiXiXiXiXiXiXiXiXiXiXiXiXiXiXiXiXiXiXiX",
"iXiXiXiXiXiXiXiXiXiXiXiXiXiXiXiXiXiXiXiXiXiXiXiXiXiXiXO $ > > $ o X iXiXiX+ + iXiXiXiXiXiXiXiXiXiXiXiXiXiXiXiXiXiXiXiXiXiXiXiXiX",
"iXiXiXiXiXiXiXiXiXiXiXiXiXiXiXiXiXiXiXiXiXiXiXiXiXiXiX# $ $ $ # o X iXiXiXiXiXiXiXiXiXiXiXiXiXiXiXiXiXiXiXiXiXiXiXiXiXiXiXiXiXiX",
"iXiXiXiXiXiXiXiXiXiXiXiXiXiXiXiXiXiXiXiXiXiXiXiXiXiXiX# # $ $ # o X iXiXiXiXiXiXiXiXiXiXiXiXiXiXiXiXiXiXiXiXiXiXiXiXiXiXiXiXiXiX",
"iXiXiXiXiXiXiXiXiXiXiXiXiXiXiXiXiXiXiXiXiXiXiXiXiXiXiX& o # % O O iXiXiXiXiXiXiXiXiXiXiXiXiXiXiXiXiXiXiXiXiXiXiXiXiXiXiXiXiXiXiX",
"iXiXiXiXiXiXiXiXiXiXiXiXiXiXiXiXiXiXiXiXiXiXiXiXiXiXiXiXiXiXiXiXiXiXiXiXiXiXiXiXiXiXiXiXiXiXiXiXiXiXiXiXiXiXiXiXiXiXiXiXiXiXiXiX"
};
