/* XPM */
static char *result[] = {
/* columns rows colors chars-per-pixel */
"64 64 231 2 ",
"   c #131212",
".  c #251B16",
"X  c #3C2618",
"o  c #382718",
"O  c #3B311C",
"+  c #3C3C22",
"@  c #322E2C",
"#  c #452A1A",
"$  c #4C2D1A",
"%  c #422718",
"&  c #512F1C",
"*  c #43351C",
"=  c #56341D",
"-  c #63371F",
";  c #483C24",
":  c #5B3724",
">  c #563F32",
",  c #643B21",
"<  c #6B3C22",
"1  c #7A3F23",
"2  c #4A4526",
"3  c #5C4426",
"4  c #574733",
"5  c #505039",
"6  c #754324",
"7  c #7C4425",
"8  c #764D2B",
"9  c #75552F",
"0  c #694B35",
"q  c #7C5A37",
"w  c #6F4A30",
"e  c #78603F",
"r  c #6C5A4B",
"t  c #7D5A48",
"y  c #676666",
"u  c #726E6A",
"i  c #5F6150",
"p  c #813E19",
"a  c #8C4C27",
"s  c #864929",
"d  c #944E2B",
"f  c #904925",
"g  c #9A532D",
"h  c #98522E",
"j  c #8D5430",
"k  c #9D5533",
"l  c #935934",
"z  c #8A562D",
"x  c #A2552E",
"c  c #AB5B2D",
"v  c #A7582F",
"b  c #BA5D2A",
"n  c #B35D2E",
"m  c #AC5B32",
"M  c #A45633",
"N  c #B95F33",
"B  c #B75D36",
"V  c #876232",
"C  c #9C6A3B",
"Z  c #BB632F",
"A  c #A5633B",
"S  c #B76134",
"D  c #BB6035",
"F  c #B4643D",
"G  c #AB632E",
"H  c #C46634",
"J  c #CA6536",
"K  c #CA6A35",
"L  c #CC6E3A",
"P  c #C66938",
"I  c #D36C3B",
"U  c #DA6E3B",
"Y  c #D76C33",
"T  c #DC733A",
"R  c #D67239",
"E  c #E4753C",
"W  c #EB7B3E",
"Q  c #E5763A",
"!  c #F47E3E",
"~  c #F97F3C",
"^  c #E66C33",
"/  c #8A5E46",
"(  c #A15E41",
")  c #9C6444",
"_  c #8E7157",
"`  c #A86647",
"'  c #A97540",
"]  c #AA7358",
"[  c #B87253",
"{  c #BA7049",
"}  c #866E65",
"|  c #967869",
" . c #847168",
".. c #A67763",
"X. c #B07D61",
"o. c #C46945",
"O. c #D87743",
"+. c #CC7853",
"@. c #E87643",
"#. c #F47B42",
"$. c #FB7C43",
"%. c #F37E4E",
"&. c #E07952",
"*. c #FD823E",
"=. c #F3803F",
"-. c #87855F",
";. c #B78146",
":. c #BC8968",
">. c #A88876",
",. c #B1856F",
"<. c #87866E",
"1. c #C1864C",
"2. c #EA8349",
"3. c #F68241",
"4. c #FF8542",
"5. c #FE8A44",
"6. c #FB884C",
"7. c #E68156",
"8. c #F68959",
"9. c #FA945C",
"0. c #C78769",
"q. c #C18D73",
"w. c #D69674",
"e. c #D6906B",
"r. c #F69569",
"t. c #F19A72",
"y. c #E89673",
"u. c #F8A579",
"i. c #E5A47F",
"p. c #6F7F86",
"a. c #74838C",
"s. c #7F8282",
"d. c #778B97",
"f. c #7D919A",
"g. c #6D8687",
"h. c #938985",
"j. c #88999E",
"k. c #9B9898",
"l. c #8F988C",
"z. c #A7948C",
"x. c #B89789",
"c. c #A69895",
"v. c #AF9187",
"b. c #8CA494",
"n. c #A9A49D",
"m. c #AEAE94",
"M. c #8D9DA6",
"N. c #8A9BA8",
"B. c #969FA3",
"V. c #899FB1",
"C. c #A59FA2",
"Z. c #94A4AA",
"A. c #9AA6AA",
"S. c #9BACB6",
"D. c #98AAB8",
"F. c #98ACAF",
"G. c #A7A6A9",
"H. c #B8ACA7",
"J. c #A3AEB6",
"K. c #A3B2BD",
"L. c #ABB6BE",
"P. c #A8B7B6",
"I. c #B6BABD",
"U. c #ADB3AB",
"Y. c #CAA798",
"T. c #D5A896",
"R. c #D7A585",
"E. c #FBAA84",
"W. c #FCB695",
"Q. c #FEB996",
"!. c #EFAD8A",
"~. c #C5B4A7",
"^. c #C7BCB8",
"/. c #D8BDAC",
"(. c #E8BAA7",
"). c #FFBEA3",
"_. c #BCC5BC",
"`. c #FFC19D",
"'. c #C2C7BB",
"]. c #D7C2B7",
"[. c #FEC2A4",
"{. c #FBC4AB",
"}. c #EDCCBC",
"|. c #F9C9B2",
" X c #FCD2BF",
".X c #E3C6A6",
"XX c #ABB9C3",
"oX c #BABDC4",
"OX c #B4BDC5",
"+X c #B3C1CB",
"@X c #BAC4CD",
"#X c #B8C4C5",
"$X c #BCC8D3",
"%X c #CCCECE",
"&X c #C6C6C5",
"*X c #D4CDCB",
"=X c #D2D7C7",
"-X c #C4CDD4",
";X c #CCD3DA",
":X c #D4D3D2",
">X c #DCDADB",
",X c #D6D7DA",
"<X c #CFD0CF",
"1X c #E6D4C5",
"2X c #FAD7C8",
"3X c #E9DBD5",
"4X c #F7DED4",
"5X c #E6E2DB",
"6X c #F9E2D7",
"7X c #D3DAE1",
"8X c #D9DFE4",
"9X c #C8D4E0",
"0X c #E2DEE1",
"qX c #DEE3E7",
"wX c #E5E3E3",
"eX c #E3E7EA",
"rX c #E5E9ED",
"tX c #EBEDEE",
"yX c #EEE6E3",
"uX c #F3E7E2",
"iX c #F9ECE5",
"pX c #F5ECE6",
"aX c #FDF4ED",
"sX c #ECEFF1",
"dX c #EFF1F3",
"fX c #F3F4F5",
"gX c #F6F9F9",
"hX c #FDFDFD",
"jX c #FAF7F6",
"kX c #F1EFF1",
"lX c None",
/* pixels */
"lXlXlXlXlXlXlXlXlXlXlXlXlXlXlXlXlXlXlXlXlXlXlXlXlXlXlXlXlXlXlXlXlXlXlXlXlXlXlXlXlXlXlXlXlXlXlXlXlXlXlXlXlXlXlXlXlXlXlXlXlXlXlXlX",
"lXlXlXlXlXlXlXlXlXlXlXlXlXlXlXlXlXlXlXlXlXlXlXlXlXlXlXlXlXlXlXlXlXlXlXlXlXlXlXlXlXlXlXlXlXlXlXlXlXlXlXlXlXlXlXlXlXlXlXlXlXlXlXlX",
"lXlXlXlXlXlXlXlXlXlXlXlXlXlXlXlXlXlXlXlXlXlXlXlXlXlXlXlXlXlXlXlXlXlXlXlXlXlXlXlXlXlXlXlXlXlXlXlXlXlXlXlXlXlXlXlXlXlXlXlXlXlXlXlX",
"lXlXlXlXlXlXlXlXlXlXlXlXlXlXlXlXlXlXlXlXlXlXlXlXlXlXlXlXlXlXlXlXlXlXlXlXlXlXlXlXlXlXlXlXlXlXlXlXlXlXlXlXlXlXlXlXlXlXlXlXlXlXlXlX",
"lXlXlXlXlXlXlXlXlXlXlXlXlXlXlXlXlXlXlXlXlXlXlXlXlXlXlXlXlXlXlXlXlXlXlXlXlXlXlXlXlXlXlXlXlXlXlXlXlXlXlXlXlXlXlXlXlXlXlXlXlXlXlXlX",
"lXlXlXlXlXlXlXlXlXlXlXlXlXlXlXlXlXlXlXlXlXlXlXlXlXlXlXlXlXlXlXlXlXlXlXlXlXlXlXlXf.U.U.lXlXlXlXlXlXlXlXlXlXlXlXlXlXlXlXlXlXlXlXlX",
"lXlXlXlXlXlXlXlXlXlXlXlXlXlXlXlXlXlXlXlXlXlXlXlXlXlXlXlXlXlXlXlXlXlXlXlXlXlXlXb._.=X=XlXlXlXlXlXlXlXlXlXlXlXlXlXlXlXlXlXlXlXlXlX",
"lXlXlXlXlXlXlXlXlXlXlXlXlXlXlXlXlXlXlXlXlXlXlXlXlXlXlXlXlXlXlXlXlXlXlXlXlXlXA.%XyXpX5X'.lXlXlXlXlXlXlXlXlXlXlXlXlXlXlXlXlXlXlXlX",
"lXlXlXlXlXlXlXlXlXlXlXlXlXlXlXlXlXlXlXlXlXlXlXlXlXlXlXlXlXlXlXlXlXlXlXlXl.P.%XyXpXpX6X=XlXlXlXlXlXlXlXlXlXlXlXlXlXlXlXlXlXlXlXlX",
"lXlXlXlXlXlXlXlXlXlXlXlXlXlXlXlXlXlXlXlXlXlXlXlXlXlXlXlXlXlXlXlXlXlXlXb.OX:X5XtXpXiX6X1XlXlXlXlXlXlXlXlXlXlXlXlXlXlXlXlXlXlXlXlX",
"lXlXlXlXlXlXlXlXlXlXlXlXlXlXlXlXlXlXlXlXlXlXlXlXlXlXlXlXlXlXlXlXlXlXM.#X,X5XuXuXiX6X4X}.m.lXlXlXlXlXlXlXlXlXlXlXlXlXlXlXlXlXlXlX",
"lXlXlXlXlXlXlXlXlXlXlXlXlXlXlXlXlXlXlXlXlXlXlXlXlXlXlXlXlXlXlXlXlXj.I.:X3X4XuXuX6X4X X}.'.lXlXlXlXlXlXlXlXlXlXlXlXlXlXlXlXlXlXlX",
"lXlXlXlXlXlXlXlXlXlXlXlXlXlXlXlXlXlXlXlXlXlXlXlXlXlXlXlXlXlXlXlXp.G.%X3X2X3XuX4X X X|.{..XlXlXlXlXlXlXlXlXlXlXlXlXlXlXlXlXlXlXlX",
"lXlXlXlXlXlXlXlXlXlXlXlXlXlXlXlXlXlXlXlXlXlXlXlXlXlXlXlXlXlXlXlXc.'.}.).|.2X2X{.[.|.).Q.R.x.lXlXlXlXlXlXlXlXlXlXlXlXlXlXlXlXlXlX",
"lXlXlXlXlXlXlXlXlXlXlXlXlXlXlXlXlXlXlXlXlXlXlXlXlXlXlXlXlXlXlX..T.(.E.E.W.).(.W.Q.`.i.) 9 :.lXlXlXlXlXlXlXlXlXlXlXlXlXlXlXlXlXlX",
"lXlXlXlXlXlXlXlXlXlXlXlXlXlXlXlXlXlXlXlXlXlXlXlXlXlXlXlXlXlXt +.y.t.r.r.u.u.u.E.E.e./ t 0 ` lXlXlXlXlXlXlXlXlXlXlXlXlXlXlXlXlXlX",
"lXlXlXlXlXlXlXlXlXlXlXlXlXlXlXlXlXlX> r 5 lXlXlXlXlXlXlXlXlX/ o.&.%.8.8.9.r.r.r.[ / >.^.>.j lXlXlXlXlXlXlXlXlXlXlXlXlXlXlXlXlXlX",
"lXlXlXlXlXlXlXlXlXlXlXlXlXlXlXlXlXlX4 C.C. .4 lXlXlXlXlXlXlXk B o.&.%.$.%.%.&.m 8 l.-X>Xz.j lXlXlXlXlXlXlXlXlXlXlXlXlXlXlXlXlXlX",
"lXlXlXlXlXlXlXlXlXlXlXlXlXlXlXlXlXlX> G.+X#Xc.r lXlXlXlXlXlXM B B I @.@.@.o.d < >.:X%X>Xc.j 1.lXlXlXlXlXlXlXlXlXlXlXlXlXlXlXlXlX",
"lXlXlXlXlXlXlXlXlXlXlXlXlXlXlXlXlXlX; G.XXXX@XH.} lXlXlXlXlXk x m B J I J f < ] ].&X%X3XH.g ;.lXlXlXlXlXlXlXlXlXlXlXlXlXlXlXlXlX",
"lXlXlXlXlXlXlXlXlXlXlXlXlXlXlXlXlXlX; c.oXL.I.-X^.| w lXlX9 d x B N B J x 7 A R.^.&X<XwX~.v ;.lXlXlXlXlXlXlXlXlXlXlXlXlXlXlXlXlX",
"lXlXlXlXlXlXlXlXlXlXlXlXlXlXlXlXlXlX; h.oXI.~.H.'.].0.C V j m L U J L I S m O.0.T.&X%X0X~.c C lXlXlXlXlXlXlXlXlXlXlXlXlXlXlXlXlX",
"lXlXlXlXlXlXlXlXlXlXlXlXlXlXlXlXlXlXlX} I.oXY.:.q.i.u.2.T T W 4.#.W 4.E L Q Q L w.].%XwX~.Z lXlXlXlXlXlXlXlXlXlXlXlXlXlXlXlXlXlX",
"lXlXlXlXlXlXlXlXlXlXlXlXlXlXlXlXlXlXlXr I.I.T.{ P Q 4.5.3.3.5.4.3.5.3.3.4.4.3.W 9.u.}.uXx.D lXlXlXlXlXlXlXlXlXlXlXlXlXlXlXlXlXlX",
"lXlXlXlXlXlXlXlXlXlXlXlXlXlXlXlXlXlXlX4 H.Y.+.+.R *.5.4.4.4.4.*.4.4.4.5.4.4.5.4.~ 6.W.2X>.G lXlXlXlXlXlXlXlXlXlXlXlXlXlXlXlXlXlX",
"lXlXlXlXlXlXlXlXlXlXlXlXlXlXlXlXlXlXlX2 k.x.+.U @.3.4.4.5.4.4.4.4.4.4.4.4.4.4.4.4.#.t.}._ V lXlXlXlXlXlXlXlXlXlXlXlXlXlXlXlXlXlX",
"lXlXlXlXlXlXlXlXlXlXlXlXlXlXlXlXlXlXlXlX} X.P R ! 4.3.4.4.4.5.4.4.5.*.4.4.4.4.4.$.$.r.T.j lXlXlXlXlXlXlXlXlXlXlXlXlXlXlXlXlXlXlX",
"lXlXlXlXlXlXlXlXlXlXlXlXlXlXlXlXlXlXlXlX/ [ ` R ! =.4.4.4.4.*.4.4.4.4.4.4.4.4.4.$.#.8.q.0 lXlXlXlXlXlXlXlXlXlXlXlXlXlXlXlXlXlXlX",
"lXlXlXlXlXlXlXlXlXlXlXlXlXlXlXlXlXlXlXlX0 ( F U ! 4.4.4.4.4.4.4.4.4.4.4.4.5.*.4.$.~ @.] lXlXlXlXlXlXlXlXlXlXlXlXlXlXlXlXlXlXlXlX",
"lXlXlXlXlXlXlXlXlXlXlXlXlXlXlXlXlXlXlXlXlXh N U ! 4.5.4.4.4.4.4.4.4.4.5.4.5.5.5.4.#.@.` lXlXlXlXlXlXlXlXlXlXlXlXlXlXlXlXlXlXlXlX",
"lXlXlXlXlXlXlXlXlXlXlXlXlXlXlXlXlXlXlXlXlXh N I W #.3.5.4.4.4.4.4.4.*.5.4.L x R 3.3.2.lXlXlXlXlXlXlXlXlXlXlXlXlXlXlXlXlXlXlXlXlX",
"lXlXlXlXlXlXlXlXlXlXlXlXlXlXlXlXlXlXlXlXlXh B U I < 6 T 4.3.4.4.4.4.5.5.T : . 8 5.5.=.lXlXlXlXlXlXlXlXlXlXlXlXlXlXlXlXlXlXlXlXlX",
"lXlXlXlXlXlXlXlXlXlXlXlXlXlXlXlXlXlXlXlXlXd N O.s o . g =.4.4.4.*.*.*.5.L * o - 3.4.$.C lXlXlXlXlXlXlXlXlXlXlXlXlXlXlXlXlXlXlXlX",
"lXlXlXlXlXlXlXlXlXlXlXlXlXlXlXlXlXlXlXlXlXd B U a o   s T *.*.6.9.6.*.*.=., o g 5.$.$.o.lXlXlXlXlXlXlXlXlXlXlXlXlXlXlXlXlXlXlXlX",
"lXlXlXlXlXlXlXlXlXlXlXlXlXlXlXlXlXlXlXlXlXx B J K s < c R 2.E.`.`.`.W.u.9.2.R =.*.4.$.$.' lXlXlXlXlXlXlXlXlXlXlXlXlXlXlXlXlXlXlX",
"lXlXlXlXlXlXlXlXlXlXlXlXlXlXlXlXlXlXlXlX6 m H J E Y H +.w./.c.5 @ u 1XaX6X[.u.9.5.$.$.9.t.' lXlXlXlXlXlXlXlXlXlXlXlXlXlXlXlXlXlX",
"lXlXlXlXlXlXlXlXlXlXlXlXlXlXlXlXlXlXlXlXl B J Y ^ O.w.Y.*X%Xy     s.kXhXaXiX6X2X|.`.Q.W.).(.-.lXlXlXlXlXlXlXlXlXlXlXlXlXlXlXlXlX",
"lXlXlXlXlXlXlXlXlXlXlXlXlXlXlXlXlXlXlXq +.&.&.8.t.(.*X>XwXsX%Xk.G.qXhXhXhXhXhXjXhXjXaX6X4X6X3XlXlXlXlXlXlXlXlXlXlXlXlXlXlXlXlXlX",
"lXlXlXlXlXlXlXlXlXlXlXlXlXlXlXlXlXlX<.x.Y.(.2X6XiXjXjXkXfXhXhXgXjXhXhXhXhXhXhXhXhXhXkXeX3X8XU.lXlXlXlXlXlXlXlXlXlXlXlXlXlXlXlXlX",
"lXlXlXlXlXlXlXlXlXlXlXlXlXlXlXlXlXlXA.OX&X,XtXgXgXfXfXjXfXhXhXhXhXgXgXjXgXjXhXhXhXdX0X,X;Xx.lXlXlXlXlXlXlXlXlXlXlXlXlXlXlXlXlXlX",
"lXlXlXlXlXlXlXlXlXlXlXlXlXlXlXlXlXlXlXf.XX@X7X8XeXsXsXfXfXfXgXfXfXfXdXfXgXgXfXgXfXeX9XoXv.l lXlXlXlXlXlXlXlXlXlXlXlXlXlXlXlXlXlX",
"lXlXlXlXlXlXlXlXlXlXlXlXlXlXlXlXlXlXlXlXd.D.OXOX-X9XrXsXsXsXdXfXdXfXfXfXfXfXdXdXrX9XG...k a lXlXlXlXlXlXlXlXlXlXlXlXlXlXlXlXlXlX",
"lXlXlXlXlXlXlXlXlXlXlXlXlXlXlXlXlXlXlXlXlXa.V.K.XXOX;X8XeXeXeXqXrXrXrXtXsXrXrXeX-Xc.[ M a 8 lXlXlXlXlXlXlXlXlXlXlXlXlXlXlXlXlXlX",
"lXlXlXlXlXlXlXlXlXlXlXlXlXlXlXlXlXlXlXlXlXlXg.V.D.D.XX@X-X7X8X8X7X7X7X,X7X7X9XoXv.( N m 7 w lXlXlXlXlXlXlXlXlXlXlXlXlXlXlXlXlXlX",
"lXlXlXlXlXlXlXlXlXlXlXlXlXlXlXlXlXlXlXlXlXlXlXi a.V.D.D.XXOX@X-X$X$X$X$X@X+XXXv.m N P g < 3 lXlXlXlXlXlXlXlXlXlXlXlXlXlXlXlXlXlX",
"lXlXlXlXlXlXlXlXlXlXlXlXlXlXlXlXlXlXlXlXlXlXlXlX4 y p.f.N.F.S.J.K.XXP.J.J.J.U.:.L I K s = ; lXlXlXlXlXlXlXlXlXlXlXlXlXlXlXlXlXlX",
"lXlXlXlXlXlXlXlXlXlXlXlXlXlXlXlXlXlXlXlXlXlXlXlX* , 0 y a.j.M.M.Z.Z.Z.Z.Z._._.q.E Q H , # lXlXlXlXlXlXlXlXlXlXlXlXlXlXlXlXlXlXlX",
"lXlXlXlXlXlXlXlXlXlXlXlXlXlXlXlXlXlXlXlXlXlXlXlXlX< 1 t p.N.Z.M.M.Z.D.S.K.@X^.e.#.Q G lXX lXlXlXlXlXlXlXlXlXlXlXlXlXlXlXlXlXlXlX",
"lXlXlXlXlXlXlXlXlXlXlXlXlXlXlXlXlXlXlXlXlXlXlXlXlX3 h M } h.B.S.D.D.K.+X@XH.:.T W K q lXlXlXlXlXlXlXlXlXlXlXlXlXlXlXlXlXlXlXlXlX",
"lXlXlXlXlXlXlXlXlXlXlXlXlXlXlXlXlXlXlXlXlXlXlXlXlXlXk N x ( ] n.+XD._.#Xn...{ Y L z lXlXlXlXlXlXlXlXlXlXlXlXlXlXlXlXlXlXlXlXlXlX",
"lXlXlXlXlXlXlXlXlXlXlXlXlXlXlXlXlXlXlXlXlXlXlXlXlXlXl U H b b X.n.B.F.lXr A S H g lXlXlXlXlXlXlXlXlXlXlXlXlXlXlXlXlXlXlXlXlXlXlX",
"lXlXlXlXlXlXlXlXlXlXlXlXlXlXlXlXlXlXlXlXlXlXlXlXlXlX9 I E U R K Z u lXlX= g x c 6 lXlXlXlXlXlXlXlXlXlXlXlXlXlXlXlXlXlXlXlXlXlXlX",
"lXlXlXlXlXlXlXlXlXlXlXlXlXlXlXlXlXlXlXlXlXlXlXlXlXlXlXD #.#.Q Q Z lXlXlX- h a f 3 lXlXlXlXlXlXlXlXlXlXlXlXlXlXlXlXlXlXlXlXlXlXlX",
"lXlXlXlXlXlXlXlXlXlXlXlXlXlXlXlXlXlXlXlXlXlXlXlXlXlXlXl E E Q Y c lXlXlX= 7 7 6 2 lXlXlXlXlXlXlXlXlXlXlXlXlXlXlXlXlXlXlXlXlXlXlX",
"lXlXlXlXlXlXlXlXlXlXlXlXlXlXlXlXlXlXlXlXlXlXlXlXlXlXlXlXN I J H f 2 lXlX& - < 3 lXlXlXlXlXlXlXlXlXlXlXlXlXlXlXlXlXlXlXlXlXlXlXlX",
"lXlXlXlXlXlXlXlXlXlXlXlXlXlXlXlXlXlXlXlXlXlXlXlXlXlXlXlXg B N n a 2 lXlX# & - = lXlXlXlXlXlXlXlXlXlXlXlXlXlXlXlXlXlXlXlXlXlXlXlX",
"lXlXlXlXlXlXlXlXlXlXlXlXlXlXlXlXlXlXlXlXlXlXlXlXlXlXlXlXs g x d 7 lXlXlXX # $ $ lXlXlXlXlXlXlXlXlXlXlXlXlXlXlXlXlXlXlXlXlXlXlXlX",
"lXlXlXlXlXlXlXlXlXlXlXlXlXlXlXlXlXlXlXlXlXlXlXlXlXlXlXlX- 7 s < - lXlXlXX X % # lXlXlXlXlXlXlXlXlXlXlXlXlXlXlXlXlXlXlXlXlXlXlXlX",
"lXlXlXlXlXlXlXlXlXlXlXlXlXlXlXlXlXlXlXlXlXlXlXlXlXlXlXlX$ - , & # o lXlX+ X O lXlXlXlXlXlXlXlXlXlXlXlXlXlXlXlXlXlXlXlXlXlXlXlXlX",
"lXlXlXlXlXlXlXlXlXlXlXlXlXlXlXlXlXlXlXlXlXlXlXlXlXlXlXO # & = # % X lXlXlXlXlXlXlXlXlXlXlXlXlXlXlXlXlXlXlXlXlXlXlXlXlXlXlXlXlXlX",
"lXlXlXlXlXlXlXlXlXlXlXlXlXlXlXlXlXlXlXlXlXlXlXlXlXlXlX* # # # # % o lXlXlXlXlXlXlXlXlXlXlXlXlXlXlXlXlXlXlXlXlXlXlXlXlXlXlXlXlXlX",
"lXlXlXlXlXlXlXlXlXlXlXlXlXlXlXlXlXlXlXlXlXlXlXlXlXlXlX; % * # X o lXlXlXlXlXlXlXlXlXlXlXlXlXlXlXlXlXlXlXlXlXlXlXlXlXlXlXlXlXlXlX",
"lXlXlXlXlXlXlXlXlXlXlXlXlXlXlXlXlXlXlXlXlXlXlXlXlXlXlXlXlXlXlXlXlXlXlXlXlXlXlXlXlXlXlXlXlXlXlXlXlXlXlXlXlXlXlXlXlXlXlXlXlXlXlXlX",
"lXlXlXlXlXlXlXlXlXlXlXlXlXlXlXlXlXlXlXlXlXlXlXlXlXlXlXlXlXlXlXlXlXlXlXlXlXlXlXlXlXlXlXlXlXlXlXlXlXlXlXlXlXlXlXlXlXlXlXlXlXlXlXlX"
};
