/* XPM */
static char * door_0_xpm[] = {
"128 128 53 1",
" 	c #3B3B3B",
".	c #006F6F",
"+	c #4B4B4B",
"@	c #007777",
"#	c #007B7B",
"$	c #008787",
"%	c #007F7F",
"&	c #23B3B3",
"*	c #4BC3C3",
"=	c #008F8F",
"-	c #009B9B",
";	c #00A7A7",
">	c #005B5B",
",	c #007373",
"'	c #23B7B7",
")	c #77CBCB",
"!	c #9FDFDF",
"~	c #BBEBEB",
"{	c #DBF7F7",
"]	c #575757",
"^	c #737373",
"/	c #7F7F7F",
"(	c #8F8F8F",
"_	c #9B9B9B",
":	c #2F2F2F",
"<	c #676767",
"[	c #878701",
"}	c #D7D701",
"|	c #EFEF01",
"1	c #E3E301",
"2	c #BBBB01",
"3	c #AFAF01",
"4	c #FFFF01",
"5	c #5F5F01",
"6	c #939301",
"7	c #C7C701",
"8	c #004343",
"9	c #434301",
"0	c #777701",
"a	c #373701",
"b	c #ABABAB",
"c	c #9F9F01",
"d	c #FFFF57",
"e	c #B7B7B7",
"f	c #000001",
"g	c #C3C3C3",
"h	c #D3D3D3",
"i	c #232323",
"j	c #6B6B01",
"k	c #009F9F",
"l	c #DFDFDF",
"m	c #EFEFEF",
"n	c #4F4F01",
"                                                                                                                                ",
"                                                                                                                                ",
"  ............................................................................................................................+ ",
"  @@@@@@@@@@@@@@@@@@@@@@@@@@@@@@@@@@@@@@@@@@@@@@@@@@@@@@@@@@@@@@@@@@@@@@@@@@@@@@@@@@@@@@@@@@@@@@@@@@@@@@@@@@@@@@@@@@@@@@@@@@@@+ ",
"  ##########################################################################################################################@@+ ",
"  $$$$$$$$$$$%&*$$$$$$$$$$$$$%&*$$$$$$$$$$$$$%&*$$$$$$$$$$$$$$&*$$$$$$$$$$$$$%&*$$$$$$$$$$$$$%&*$$$$$$$$$$$$$%&*$$$$$$$$$$$$#@+ ",
"  $$$$$$$$$$%@=-$$$$$$$$$$$$%@=;$$$$$$$$$$$$%@=;$$$$$$$$$$$$$#=;$$$$$$$$$$$$%@=;$$$$$$$$$$$$%@=;$$$$$$$$$$$$%@=;$$$$$$$$$$$$#@+ ",
"  ---------=%@.%-----------=%@.%-----------=%@.%------------=#$$-----------=%@.%-----------=%@.%-----------=%@.%------------$#  ",
"  ;;;;;;;;;=%%%=;;;;;;;;;;;=%%%=-;;;;;;;;;;=%%%=;;;;;;;;;;;==$$=;;;;;;;;;;;=%%%=;;;;;;;;;;;=%%%=;;;;;;;;;;;=%%%=;;;;;;;;;;;;$#  ",
"  ;;;;;;;;;-===-;;;;;;;;;;;-===--;;;;;;;;;;-===-;;;;;;;;;;;-===-;;;;;;;;;;;-===-;;;;;;;;;;;-===-;;;;;;;;;;;-===-;;;;;;;;;;;;$#  ",
"  &&&&&&&&&-.>>>>>>>>>>>>>>>>>>>>>>>>>>>>>>>>>>>>>>>>>>>>>>>>>>>>>>>>>>>>>>>>>>>>>>>>>>>>>>>>>>>>>>>>>>>>>>>>>>>>>>,&&&&&&&&-%  ",
"  &&&&&&&&&*-.>>>>>>>>>>>>>>>>>>>>>>>>>>>>>>>>>>>>>>>>>>>>>>>>>>>>>>>>>>>>>>>>>>>>>>>>>>>>>>>>>>>>>>>>>>>>>>>>>>>>>,&&&&&&&&-%  ",
"  &&&&&&&&&**=%%%%%%%%%%%%%%%%%%%%%,%,,,,,,,,,,,,,,,,,,,,,%%%%%%%%%%%%%%%%%%%%%%%%%%%%=========------&&&&&&&&&&&*&>,&&&&&&&&-%  ",
"  &&&&&&&&&**;;-;;---===$$$$$%$%%%%###@@,@@,,,@@,@@@@####%##%%%$$%$$=$====-==---;;-;&&&&'&&'''**'****))))!))!!!~~!>,&&&&&&&&-%  ",
"  &&&;!{&&&**;;;;------==$$$$$$%%%%###@#,@,,,,,,@@@@@####%#%%%%%%$$$$$====-=----;;;;;;&&&&''''''*****))))!)!!!!!!!>,&&&;!{&&-%  ",
"  &&&='!&&&**;----======$$$$%%%%%###@#@,,,,,@,@@@@######%%%%%$%$$$$======-----;-;;;&&&&&&'''*'****))))))!!!!!~!~~!>,&&&='!&&-%  ",
"  &&;%=-&&&**;----===$$$$$%%%#%%###@@,@,,,,@@,@@@#####%#%%%%$$%$$======-=----;;-;&&&&'&''''**'***)))))!)!!!!~~!~~!>,&&;%=-&&-%  ",
"  &;;-=;&&&**;----=-==$$$%$$%%%%###@#,@,,,,,,@@@@@######%%%%%%$$=$$======----;;;;&;&&&&''''*'*****))))))!!!!!!~~~!>,&;;-=;&&-%  ",
"  &&;;;&&&&**---=====$$$$%$%%%#####@,,,,,,,@@@@#@####%%%%%%%$$$$=$====-----;-;;;&&;&&&'''''****)*))))!!!!!!!~~~~~*>,&&;;;&&&-%  ",
"  &&&&&&&&&**--===$$$$$%%%%%%###@@,@,,,,@@@@@@#####%%%%%%$$$$$======------;;;&&&&&''''''******)))))!!!!!!~~~~~~~~*>,&&&&&&&&-%  ",
"  &&&&&&&&&**-==-=$$$$%$$%%%###@@#@@,,,,,,@@@@@###%##%%%%$%$$=$$===-==----;;;;&;&&&&''''*'****))))!))!!!!~!~~~!!!*>,&&&&&&&&-%  ",
"  &&&&&&&&&**=====$$$$$$%%%######,,,,,,,@@@@@@####%#%%%%%$$$$$$====-=-----;;;&&&&&&'''''******))))!)!!!!!~~~~~!!!*>,&&&&&&&&-%  ",
"  &&&&&&&&&**-=$=$$$$%%%#%###@#,,,,,,@@@@@@#####%%%%%%$%$$$$=====------;;;;&;&&&'''''*'****))))))!!!!!~!~~~~~~!~!'>,&&&&&&&&-%  ",
"  &&&&&&&&&**-=$$$$%$%%%####@@,@@,,,,@,@@@@@###%##%%%$$%$$=$====-==---;;;;;&;&&&&'''**'****))))!)!!!!~~!~~~~!!!!!->,&&&&&&&&-%  ",
"  &&&&&&&&&**==$$$%$$%%%######,@,,,,,@@@@@@######%%%%%%$$=$$======---;--;;&&;&&&''''''*****))))))!!!!!!~~~~!!!)))->,&&&&&&&&-%  ",
"  &&&&&&&&&**=$$$$%$%%%%####,,,,,,@,@@@@#####%%%%%%$%$$$$=$====-----;;;&;;&&&'''''''****)*))))!!!!!!!~~~~~!!~!)!)->#&&&&&&&&-%  ",
"  &&&&&&&&&**$$$%%%%%%###@@,@@,,,@@,@@@@####%##%%%$$%$$======-=----;;;;;&&&&&&'''******)))))!)!!!!~~~~~~~!!!!!)))->#&&&&&&&&-%  ",
"  &&&&&&&&&**$$%$$#%%####@#@@,,,,,,@@@@@######%%%%$%$$=$$===-==----;-;;&&&'&&''''*'*****)))!))!!!!~!~~~~!~!)!))))=>,&&&&&&&&-%  ",
"  &&&&&&&&&**$$$$%#%%####@,,,,,@,@@@@#@####%%%%%$%$$$$=$====-=----;;;;;&&&'&'''''******))))!)!!!!!~~~~~!!~!)!))*)=>,&&&&&&&&-%  ",
"  &&&&&&&&&**$%%%%####@#,@,,,,@@,@@@#####%#%%%%$$%$$$=====------;;;;;&&&&&&'''*'****)))))!!!!!!~~~~~~~!!!!!!))*))=>,&&&&&&&&-%  ",
"  &&&;!{&&&**$%%%%###@@,@@,,,,@,@@@@@###%##%%%%$%$$=$====-==---;;-;&&&&'&&'''**'****))))!))!!!~~!~~~~~~!!!))))*)*=>,&&&;!{&&-%  ",
"  &&&='!&&&**$%%%%#####,@,,,,,@@@@#@####%#%%%%%$$$$=$====-=----;;;;;;&&&&''''''*****))))))!!!!!!~~~!!!!!))))*****=>.&&&@'!&&-%  ",
"  &&;%=-&&&**%%%#####,,,,,,@@@@@@#####%%%%%%$$$$$$======-----;-;;;&&&&&&'''*'****)*))))!!!!!~!~~~~~!!!!)!))*))***$>.&&;.@-&&-%  ",
"  &;;-=;&&&**%%###@@,@@,,,@@,@@@@####%##%%%$$%$$=$====-=----;;-;&&&&'&''''**'***)))))!)!!!!~~!~~~~~~!!!))))))****=>.&;;-=;&&-%  ",
"  &&;;;&&&&**%%###@#@@,,,,,,@@@@@####%#%%%%%%$$$$$====-=----;;;;&;&&&&''''*'*****)))!))!!!!~!~~~~!!!!)))))*****'*$>.&&;;;&&&-%  ",
"  &&&&&&&&&**#####@,,,,,@,@@@@######%%%%%$%$$$$======-----;-;;;&&;&&&'''''****)*))))!)!!!!!~~~~~!!!))!))*)****''*$>.&&&&&&&&-%  ",
"  &&&&&&&&&**##@@,@,,,,@@,@@@#####%#%%%%$$%$$======-=----;;;&&&&&''''''******)))))!!!!!!~~~~~~~~~~!!!)))))****'*'$>.&&&&&&&&-%  ",
"  &&&&&&&&&**#@@#@@,,,,@,@@@@@######%%%%%%$$=$$======------;;&;&&&&'''**'****))))!))!!!~~!~~~!!!!!!))))******''''$>.&&&&&&&&-%  ",
"  &&&&&&&&&**###,,,,,,,@@@@#@####%%%%%%%$$$$=$====------;;;;;&&&&&''''''*****))))!)!!!!!!~~~~!!!))!))******'''&''$>.&&&&&&&&-%  ",
"  &&&&&&&&&**#,,,,,,@@@@@@#####%%%%%%$$$$$======------;;;;;&&&&'''''*'****))))))!!!!!~!~~~~~~!~!)!))*))****'*'&''$>.&&&&&&&&-%  ",
"  &&&&&&&&&**,@@,,,,@,@@@@####%##%%%%$%$$=$$===-==---;;-;&&&;'&&'''**'***)))))!)!!!!~~!~~~~!!!!!))))*)*****'''&&&$>.&&&&&&&&-%  ",
"  &&&&&&&&&**,@,,,,,@@@@@@####%#%%%%%$$$$$$====-=----;;;;;;&&'&''''''*****))))))!!!!!!~~~~!~!))))))*****'*'&''&&&%>.&&&&&&&&-%  ",
"  &&&&&&&&&**,,,,@,@@@@######%%%%%$%$$$$=====------;-;;;&&&&&&'''''****)*))))!!!!!!!~~~~~!!~!)!))*)****''*'&''&&&%>.&&&&&&&&-%  ",
"  &&&&&&&&&)),,,@@,@@@@####%#%%%%$$%$$=$====-==---;;-;&&&&'&''''******)))))!!!!!!~~~~~~~!!!!!!)))))****'''''&&&&&%>.&&&&&&&&-%  ",
"  &&&&&&&&&)),,,,,@@@@@######%%%%%%$$=$$======----;;;;&;&&&&''''''*****)))!))!!!!~!~~~~!~!)!))))*******'&''&&&;;;%>.&&&&&&&&-%  ",
"  &&&&&&&&&)),,,@@@@#@####%%%%%%%$$$$=$====-----;-;;;&&;&&&'''''******))))!)!!!!!~~~~~!!~!)!))******''''&'&&&;;;;%>.&&&&&&&&-%  ",
"  &&&;!{&&&))@@@@@@#####%#%%%%$$$$$======-=----;;-&&&&&''''''******)))))!!!!!!~!~~~~~!!!!!!))*))****'*'''&&&&&;;;%>.&&&;!{&&-%  ",
"  &&&='!&&&!!@,@@@@@###%##%%%%$%$$=$$===-==----;;;;&;&&&&''''*'*****)))!))!!!~~!~~~~~~!!!))))*)*****'''''&&;&;;;;%>>&&-.'!&&-%  ",
"  &&;%=-&&&!!@@@@@@####%#%%%%%$$$$$$====-=-----;;;&&&&&&'''''******))))))!!!!!!~~~!!!!!))))******''''&&&&&;;;;;--%>>&&=.@-&&-%  ",
"  &;;-=;&&&~~@@@#####%%%%%%$$$$$$=====------;;;;&;&&''''''*'****)))))!!!!!!~!~~~~~!!!!)!))*))***'''&''&&&&;;;;-;;%>>&;===;&;-%  ",
"  &&;;;&&&&~~@@@####%##%%%$$%$$=$====-==---;;;;;&;&&&&'''**'****))))!))!!!~~!~~~~~~~!!))))))******''''&&&&;;;;-;-%>>&&;;;&;;-%  ",
"  &&&&&&&&&~~@@@######%%%%%%$$$$$======---;--;;&&;&&&''''''*****))))))!!!!~!~~~~!!!!!))))*****'*'''&&&&;;;;;;----%>>&&&&&;;--%  ",
"  &&&&&&&&&~~#@####%%%%%$%$$$$======-----;;;&;;&&&'''''*'****)*))))!!!!!~!~~~~~!!!))!))*)****''*&''&&&;;;;;-;----,>>&&&&;;--=%  ",
"  &&&&&&&&&~~####%#%%%%$$%$$======-=----;;;;;&&&&&&'''**'***)))))!)!!!!~~!~~~~~~~!!!))*))****'*''''&&&&;;;;;;-=--%>>&&&;;--==%  ",
"  &&&&&&&&&~~###%##%%%%$%$$=$$]^/(________________''''*'*****)))!))!!!!~!~~~~!!!!!))))*)****''''&&&&;&;;;;----===,>>&&;;--===%  ",
"  &&&&&&&&&~~###%#%%%%%$$$$=$@:]<<<<<<<<<<<<<<<<<_''''****)*))))!)!!!!!~~~~~!!!))!))******'''&''&&&;;;;;------===.>>&;;--====%  ",
"  &&&&&&&&&~~#%%%%%%$$$$$$===@:]<<<<<<<<<<<<<<<<<_'******)))))!!!!!!~~~~~~~!!!!)!))*))***''*'&''&&&&;;;-;;----=-=.>>;;--=====%  ",
"  &&&&&&&&&~~%##%%%$$%$$=$===@:]<+/<<<<<<<<<+/<<<_**'****))))!))!!!~~!~~~~~~!)!))))*)******''&&&&&&;;;;-;---=====.>>;--======%  ",
"  &&&&&&&&&~~%#%%%[}|||12====@:]<]+<<<<<<<<]]+<<<_''*****))))!)!!!!!!~~~!!!!!)!)))*****'*'&''&&&;;;;;------=-=$$$.>>--=======%  ",
"  &&&&&&&&&~~%%%%@[3|4442====@:]<<<<<<<<<<<<<<<<<_****))))))!!!!!~!~~~~~!!!!)!))*)****''*'&'&&&&;;;;-;;-=-==-=$$$.>>-========%  ",
"  &&&&&&&&&~~%%%@>567|47[==-=@:]<<<<<<<<<<<<<<<<<_***)))))!)!!!!~~!~~~~~~!!!))))*)****'''''&&&&&;;;;;;---=====$$$.>>=========%  ",
"  &&&&&&&&&~~%%@>89571420====@:]<<<<<<<<<<<<<<<<<_****))))))!!!!!!~~~~!!!!)))))*******'&''&&&;&;;;;-----=-=$=$$$$.>>=========%  ",
"  &&&;!{&&&~~%@@>88a7142==---@:]<<<<<<<<<<<<<<<<<_*)*))))!!!!!!!~~~~~!!!))!))*)****''''&'&&&;;;;;-;----==-=$$$$%%.>>=$$%&*===%  ",
"  &&&='!&&&~~%@,>>>a71|3-----@:]<<<<<<<<<<<<<<<<<_)))))!!!!!!~~~~~~~~~~!!!)))))******'''&&&&&;;;-;;---=====$$$%$$.>>=$%.=;===%  ",
"  &&;%=-&&&~~%@,,,$a71|2==---@:]<<<<<<<<<<<<<<<<<b))))!))!!!!~!~~~!!!!!!))))******''''&'&&;&;;;;-;-----===$$$$%$%.>>==%..%==-%  ",
"  &;;-=;&&&!!%@,,$=a71|2=----@:]<<<<<<<<<<<<<<<<<b))))!)!!!!!~~~~~!!!))!))******'''&''&&&;;;;;-----=====$$$$%%%%%.>>==%%%==--%  ",
"  &&;;;&&&&!!%@,$==a71|3---;;,:]<<<<9[cc3714<<<<<b)))!!!!!~!~~~~~~!~!!!))*))****'*'&''&&&;;;;-;;---====$$$$%$$#%%.>>======---%  ",
"  &&&&&&&&;&&%@$===a71|3--;;;,:]<<<]90c3714d<<<^^e)!)!!!!~~!~~~~!!!!!))))*)*****'''&&&&;&;;;;-;------==$$$$$$%#%%.>>=====--;-%  ",
"  &&&&&&&;-;;%@$==-a71|3-;--;,:]<<]+95+fffcd<<<^/e)))!!!!!!~~~~!!!)))))******'*'&''&&&;;;;;;-----=====$$$$%%%%###.>>====--;;-%  ",
"  &&&&&&;--;;%@====a71|3;;;&;,:]<<]+95+::fc4<<<//g!!!!!!!~~~~~!!~!)!))*))***''*'&''&&&;;;;-;----===$$$$$%$%%%%###.>>===--;;&-%  ",
"  &&&&&&;--;;%@==-=a7113;;;;&,:]<<] 95]::fc4<<^/(g!!!!~~~~~~~!!!!!))))))****'''''&&&&&;;;;-;-=----==$$$%$$%%%%###.>>==--;;&&-%  ",
"  &&&&&&;--;;%@=-=-a7}}3-;;&&,:]<<] 95<::fc1<<^(_h!!!!~!~~~~!~!)!))))*****'*'&''&&&;;;;;;-----=====$$$$%$%%%#####.>>=--;;&&&-%  ",
"  &&&&&&;-=;;%@=-=-a777c;;;&&,:]<<]:95/++:c1<^/_bh!!!!~~~~~!!~!)!))*)****''*'&'&&&;;;;;-;----===$$$$$%%%##%###@@@.>>--;;&&&&-%  ",
"  &&&&&&;-=;;%@----a222c;&&&&,:]<<+:95(/<+c7<^(beh!~~~~~~~!!!!!!))*))****'*'''&&&&&;;;;;;---====$$$$%$$%%%####@#@.>>-;;&&&&;-%  ",
"  &&&&&&;-=;;%@=--;ac33c&&&'&,:]<<+i955j0[63</(beh~~!~~~~~~!!!))))*)*****''''&&&;&;;;;-------=$=$$$$%$%%%#####@@@.>>;;&&&&;k-%  ",
"  &&&&&&;-=;;%@---;a6ccc;&&&&,:]<<+i99999999</_beh!!~~~!!!!!))))******''''&&&&&;;;;;----======$$$$$%%%%%###@#@@@@.>>;&&&&;k;-%  ",
"  &&&&&&;-=;;%@--;;a6666&&&&',:]<<+iii:  +]<^/_beh~~~~~!!!!)!))*))***''''''&&&&&;;;-;;---====$$$$%$%%%%###@@#@@,@.>>&&&&;k;&-%  ",
"  &&&&&&;-=;;%@-;;;a6666'&''',:]<<++++]]<<<^^(_bel~~~~~~!!!))))))******''''&&&&;;;;-;-----===$$$$%$%%%######@@,@@.>>&&&;k;&&-%  ",
"  &&&;!{;-=;;%@-;;j5[[[[0&''',:]<<<<<<<<<<<^/(_eem~~~!!!!)))))*****'*'''&&&&;;;;;------====$$$$$%%%%#%##@#@@@@,@,.>>&&;;!{&&-%  ",
"  &&&='!;-=;;%@-;,9500005'''',:]<<<<<<<<<<^//(begm~~!!!))!))*)****''*&''&&&&;;;;-;;---===$$$$$%$%%%%###@@#@@,,,,,.>>&;k='!&&-%  ",
"  &&;%=-;-=;;%@-,>9n5jj59''**,:]<<<<<<<<<^^/(_eggm~~~~!!!)))))****'*''''&&&&;;;;;;------==$$$$$$%%%%###@#@@,@@,,,.>>;k;%=-&&-%  ",
"  &;;-=;;-=;;%@,>>899999#'**',:]<<<<<<<<^^/(_beegm!!!!!))))******''''&&&&;&;;;;----======$$$$%%%%%###@#@@@@,@,,,@.>>kk;-=;&&-%  ",
"  &&;;;&;-=;;%@,>>888>==''''*,:]<<<<<<<^^/(_bebbel!!))!))******'''&''&&&;;;;;-;----===$$$$$%%%#%%###@@#@@@,,,,,@@.>>k;;;;&&&-%  ",
"  &&&&&&;-=;;%@,,>>>,=''*'***,:]<<<<<<^^/(_beb__bh~!)!))*))****'*'&''&&&&;;;-;;----=-==$$$%$$%%%%###@#@@,@,,,,,@@.>>;&&&&&&&-%  ",
"  &&&&&&;-=;;%@%%,.#=''**'***,:]<+/<<^^/(_be_h((_g!!))))*)*****'''&&&&&&;;;;-;---=====$$$$%$%%%#####@@@@,@,,,,@@#.>>&&&&&&&&-%  ",
"  &&&&&&;-=;;%@#@@%='''''****,:]<]+<^^/(_beb^<//(g)))))*****'*'&''&&&;;;;;------===$$$$$%%%%%%###@@@@@@,,,,,@@@@,.>>&&&&&&&&-%  ",
"  &&&&&&;-=;;%%#@%=''''****)*,:]<<<^^/(_beb_(////g!))*)****''*'&''&&&;;;;-;;-=-==-=$$$$%$$%%%###@@#@@,@,,,,@@@#,,.>>&&&&&&&&-%  ",
"  &&&&&&;-=;;%%#%-''******))),::::::::::::::::::<g)))))****'''''&&&&&;;;;;;---=====$$$$$$%%%######@@@@@,,,,@@#,,#.>>&&&&&&&&-%  ",
"  &&&&&&;--;;%%=-'''*'*****)),,,,,,,,,,,,,,,,$$k))))*******'&''&&&;;;;;;-----=-=$=$$$$%%%#%###@#@@@@,,,,,@@@@,,##.>>&&&&&&&&-%  ",
"  &&&&&&;--&&%=-''''******))))!)!!!!!~~~~~!!~!))))******''''&'&&&;;;;;-;----==-=$$$$%$%%%####@@#@@,,,,,@@@@@,,###.>>&&&&&&&&-%  ",
"  &&&&&&&;-&&--''*'****)))))!!!!!!~!~~~~~!!!!!!))*))****'*'''&&&&&;;;;;;---=====$$$%$$%%%######@@,@@,,,,@@#,,##%%.>>&&&&&&&&-%  ",
"  &&&&&&&&-));''**'****))))!))!!!~~!~~~~~~!!!))))*)*****'''''&&;&;;;;-------===$$$$%$%%%%####@@@@,@,,,,@@@,,###%%.>>&&&&&&&&-%  ",
"  &&&&&&&&&))'''''*****))))))!!!!!!~~~!!!!!))))******''''&&&&&;;;;;----======$$$$%%%%%%###@@@@@,,,,,,@@@@,,###%%%.>>&&&&&&&&-%  ",
"  &&&&&&&&&~~'''****)*))))!!!!!~!~~~~~!!!!)!))*))***'''&''&&&&;;;;-;;---====$$$$%$$#%%####@#@@,@@,,,,@@#,,##%%%%$.>>&&&&&&&&-%  ",
"  &&&;!{&&&~~******)))))!)!!!!~~!~~~~~~~!!))))))******''''&&&&;;;;-;-----===$$$$$$%#%%####@@@@@@,,,,@@#,,###%%%%$.>>&&&;!{&&-%  ",
"  &&&='!&&&~~*'*****)))!))!!!!~!~~~~!!!!!))))*****'*'''&&&&;;;;;;-----====$$$$$%%%%####@#@@@@,,,,,@@@@,,####%%%%$.>>&&&='!&&-%  ",
"  &&;%=-&&&~~******))))!)!!!!!~~~~~!!!))!))*)****''*&''&&&;;;;;-;----===$$$$$%$%%%%###@@#@@,@,,,,@@@@,,##%%#%$$$$.>>&&;%=-&&-%  ",
"  &;;-=;&&&~~***)))))!!!!!!~~~~~~~~~~!!!))*))****'*''''&&&&;;;;;;-=----==$$$$$$%%%%#####@@,@@,,,,@@#,,###%%#$$%$$.>>&;;-=;&&-%  ",
"  &&;;;&&&&~~***))))!))!!!~~!~~~!!!!!!))))*)****''''&&&&;&;;;;----======$$$$%%%%%#####@@@@,@,,,,@@@,,###%%%%%%$$$.>>&&;;;&&&-%  ",
"  &&&&&&&&&~~***))))))!!!!!!~~~~!!!))!))******'''&''&&&;;;;;------===$$$$$%%%#%%###@@@@@,,,,,,@@@@,,##%%%%$%$$$$=,>>&&&&&&&&-%  ",
"  &&&&&&&&&~~))))))!!!!!~!~~~~~~!~!)!))*))***''*'&''&&&&;;;-;;----=-=$$$$%$$%%%%###@#@@,@@,,,,@@#,,###%%%$$%$$$==,>>&&&&&&&&-%  ",
"  &&&&&&&&&~~))))!)!!!!~~!~~~~!!!!!))))*)******''&&&&&&;;;;-;---=====$$$$%$%%%#####@@@@@@,,,,@@#,,####%%%$%$$$$=-,>>&&&&&&&&-%  ",
"  &&&&&&&&&~~))))))!!!!~!~~~~!~!))))))*****'*'&''&&&;;;;;------=-=$$$$$$%%%%%###@@@@@@,,,,,@@@@,,###%#%%%$$$$=$=-,>>&&&&&&&&-%  ",
"  &&&&&&&&&~~)))!!!!!!!~~~~~!!~!)!))*)****''*'&'&&&&;;;;-;;-=-==-=$$$$%$%%%%###@@#@@,@,,,@@@@#,,###%%%$$$$$$=====%>>&&&&&&&&-%  ",
"  &&&&&&&&&~~)!!!!!!~~~~~~~!!!!!!)))))****'''''&&&&&;;;;;;---=====$$$$$$%%%######@@@@@,,,,@@#,,###%%%$$%$$$$=-==-,>>&&&&&&&&-%  ",
"  &&&&&&&&&~~!))!!!!~!~~~~~~!)!))))*******'&''&&&;&;;;;-----=-=$=$$$$%%%#%%##@#@@@@,,,,,@@@@,,###%%%%%%$$$$$===--%>>&&&&&&&&-%  ",
"  &&&&&&&&&~~!)!!!!!~~~~~!!!!)!))******''''&'&&&;;;;;-;----==-=$$$$%%%%%####@@#@@,,,,,,@@@@,,###%%%$%$$$$=====---%>>&&&&&&&&-%  ",
"  &&&&&&&&&~~!!!!~!~~~~~!!!!)!))*))****'*'''&&&&&;;;-;;---=====$$$%$$%%%####@#@@,@@,,,,@@#,,##%%%%$$%$$$==-=----;%>>&&&&&&&&-%  ",
"  &&&&&&&&&~~!!!~~!~~~~~~!!!))))*)*****'''''&&;&;;;;-;-----===$$$$%$%%%%####@@@@,@,,,@@@#,,###%%#%%%$$$$$===----;%>>&&&&&&&&-%  ",
"  &&&&&&&&&~~!!!!!~~~!!!!!)))))*****''''&&&&&;;;;;-----=====$$$$%%%%%%###@@@@@@,,,,,@@@@,,###%%%%%$$$$======----;%>>&&&&&&&&-%  ",
"  &&&;!{&&*~~!!!~~~~~!!!!)!))*)****'''&''&&&&;;;;-;;---====$$$$%$$#%%###@@#@@,@,,,,,@@#,,##%%%%$$$$$$==------;;;;%>>&&&;!{&&-%  ",
"  &&&='{&**~~~~~~~~~~~~!!))))))******''''&&&&;;;;-;------==$$$$$$%#%%#####@@@@@,,,.@@#,,###%%%%$%$$$$$===---;;-;;%>>&&&='!&&-%  ",
"  &&;%=-**){{~!~~~~!!!!!))))*******'''&&&&;;;;;;-----=====$$$$%%%%####@#@@@@,,,,..@@@,,##%#%%%%$$$$$====------;;;%>>&&;-=-&&-%  ",
"  &;;-=**)){{~~~~~!!!))!))*)****'''&''&&&;;;;;-;----===$$$$$%$%%%%###@@#@@,,,,,,.@@#,,###%%%$%$$$$===-----;-;;;;&%>>&;;--;&&-%  ",
"  &&;;**))){{~~~~~!~!!!))*))****'*'&''&&&&;;;;;;-=----==$$$%$$%%%%#####@@,@@,,,.@@@,,###%%%%$%$$$$====---;;-;;;&&=>>&&;;;&&&-%  ",
"  &&&**)))){{{~~!!!!!!!!!!!!!!!!!!!!!!!!!!!!!!!!!!!!!)))))))******))))))))))))*'&&'*))))))))))))))))))))))))))))''#>&&&&&&&&-%  ",
"  &&**))))){{{~!!!!!!!!!!!!!!!!!!!!!!!!!!!!!!!!!!!!!!)))))))******))))))))))))*'&&'*))))))))))))))))))))))))))))''-#&&&&&&&&-%  ",
"  &**))))))))))**&&&&&&&&&&&&&&&&&&&&&&&&&&&&&&&&&&&&&;;--===========--;;&&&&&&;-;&&&&&&&&&&&&&&&&&&&&&&&&&&&&&&&&&&&&&&&&&&-%  ",
"  **))))))))))**&&&&&&&&&&&&&&&&&&&&&&&&&&&&&&&&&&&&&;;--===========--;;&&&&&&;-;&&&&&&&&&&&&&&&&&&&&&&&&&&&&&&&&&&&&&&&&&&&-%  ",
"  *))))))))))**&&&&&&&&&&&&&&&&&&&&&&&&&&&&&&&&&&&&&;;--===========--;;&&&&&&;-;&&&&&&&&&&&&&&&&&&&&&&&&&&&&&&&&&&&&&&&&&&&&-%  ",
"  ))))))))))**!{&&&&&&&&&&&&&;!{&&&&&&&&&&&&&;!{&&&;;--====$$%&*==--;;&&&&&&;-!{&&&&&&&&&&&&&;!{&&&&&&&&&&&&&;!{&&&&&&&&&&&&-%  ",
"  )))))))))**='!&&&&&&&&&&&&&='!&&&&&&&&&&&&&='!&&;;--=====$%@-;=--;;&&&&&&;-='!&&&&&&&&&&&&&='!&&&&&&&&&&&&&='!&&&&&&&&&&&&-%  ",
"  ))))))))**;%=-&&&&&&&&&&&&;%=-&&&&&&&&&&&&;%=-&;;--=======%@.%--;;&&&&&&;-;%=-&&&&&&&&&&&&;%=-&&&&&&&&&&&&;%=-&&&&&&&&&&&&-%  ",
"  )))))))**;;-=;&&&&&&&&&&&;;-=;&&&&&&&&&&&;;-=;;;--========%%%=-;;&&&&&&;-;;-=;&&&&&&&&&&&;;-=;&&&&&&&&&&&;;-=;&&&&&&&&&&&&-%  ",
"++))))))**&&;;;&&&&&&&&&&&&&;;;&&&&&&&&&&&&&;;;;;--============-;;&&&&&&;-;;;;;&&&&&&&&&&&&&;;;&&&&&&&&&&&&&;;;&&&&&&&&&&&&&-%++",
"++)))))**&&&&&&&&&&&&&&&&&&&&&&&&&&&&&&&&&&&&&;;--===========--;;&&&&&&;-;;&&&&&&&&&&&&&&&&&&&&&&&&&&&&&&&&&&&&&&&&&&&&&&&&&=%++",
"]]]]]]]]]]]]]]]]]]]]]]]]]]]]]]]]]]]]]]]]]]]]]]]]]]]]]]]]]]]]]]]]]]]]]]]]]]]]]]]]]]]]]]]]]]]]]]]]]]]]]]]]]]]]]]]]]]]]]]]]]]]]]]]]",
"]]]]]]]]]]]]]]]]]]]]]]]]]]]]]]]]]]]]]]]]]]]]]]]]]]]]]]]]]]]]]]]]]]]]]]]]]]]]]]]]]]]]]]]]]]]]]]]]]]]]]]]]]]]]]]]]]]]]]]]]]]]]]]]]"};
